<?xml version="1.0" encoding="utf-8"?>
<svg xmlns="http://www.w3.org/2000/svg" xmlns:xlink="http://www.w3.org/1999/xlink" width="600" height="400" viewBox="0 0 2400 1600">
<defs>
  <clipPath id="clip750">
    <rect x="0" y="0" width="2400" height="1600"/>
  </clipPath>
</defs>
<path clip-path="url(#clip750)" d="
M0 1600 L2400 1600 L2400 0 L0 0  Z
  " fill="#ffffff" fill-rule="evenodd" fill-opacity="1"/>
<defs>
  <clipPath id="clip751">
    <rect x="480" y="0" width="1681" height="1600"/>
  </clipPath>
</defs>
<path clip-path="url(#clip750)" d="
M112.177 1423.18 L2352.76 1423.18 L2352.76 47.2441 L112.177 47.2441  Z
  " fill="#ffffff" fill-rule="evenodd" fill-opacity="1"/>
<defs>
  <clipPath id="clip752">
    <rect x="112" y="47" width="2242" height="1377"/>
  </clipPath>
</defs>
<polyline clip-path="url(#clip752)" style="stroke:#000000; stroke-linecap:butt; stroke-linejoin:round; stroke-width:2; stroke-opacity:0.1; fill:none" points="
  112.177,1423.18 112.177,47.2441 
  "/>
<polyline clip-path="url(#clip752)" style="stroke:#000000; stroke-linecap:butt; stroke-linejoin:round; stroke-width:2; stroke-opacity:0.1; fill:none" points="
  560.293,1423.18 560.293,47.2441 
  "/>
<polyline clip-path="url(#clip752)" style="stroke:#000000; stroke-linecap:butt; stroke-linejoin:round; stroke-width:2; stroke-opacity:0.1; fill:none" points="
  1008.41,1423.18 1008.41,47.2441 
  "/>
<polyline clip-path="url(#clip752)" style="stroke:#000000; stroke-linecap:butt; stroke-linejoin:round; stroke-width:2; stroke-opacity:0.1; fill:none" points="
  1456.52,1423.18 1456.52,47.2441 
  "/>
<polyline clip-path="url(#clip752)" style="stroke:#000000; stroke-linecap:butt; stroke-linejoin:round; stroke-width:2; stroke-opacity:0.1; fill:none" points="
  1904.64,1423.18 1904.64,47.2441 
  "/>
<polyline clip-path="url(#clip752)" style="stroke:#000000; stroke-linecap:butt; stroke-linejoin:round; stroke-width:2; stroke-opacity:0.1; fill:none" points="
  2352.76,1423.18 2352.76,47.2441 
  "/>
<polyline clip-path="url(#clip750)" style="stroke:#000000; stroke-linecap:butt; stroke-linejoin:round; stroke-width:4; stroke-opacity:1; fill:none" points="
  112.177,1423.18 2352.76,1423.18 
  "/>
<polyline clip-path="url(#clip750)" style="stroke:#000000; stroke-linecap:butt; stroke-linejoin:round; stroke-width:4; stroke-opacity:1; fill:none" points="
  112.177,1423.18 112.177,1404.28 
  "/>
<polyline clip-path="url(#clip750)" style="stroke:#000000; stroke-linecap:butt; stroke-linejoin:round; stroke-width:4; stroke-opacity:1; fill:none" points="
  560.293,1423.18 560.293,1404.28 
  "/>
<polyline clip-path="url(#clip750)" style="stroke:#000000; stroke-linecap:butt; stroke-linejoin:round; stroke-width:4; stroke-opacity:1; fill:none" points="
  1008.41,1423.18 1008.41,1404.28 
  "/>
<polyline clip-path="url(#clip750)" style="stroke:#000000; stroke-linecap:butt; stroke-linejoin:round; stroke-width:4; stroke-opacity:1; fill:none" points="
  1456.52,1423.18 1456.52,1404.28 
  "/>
<polyline clip-path="url(#clip750)" style="stroke:#000000; stroke-linecap:butt; stroke-linejoin:round; stroke-width:4; stroke-opacity:1; fill:none" points="
  1904.64,1423.18 1904.64,1404.28 
  "/>
<polyline clip-path="url(#clip750)" style="stroke:#000000; stroke-linecap:butt; stroke-linejoin:round; stroke-width:4; stroke-opacity:1; fill:none" points="
  2352.76,1423.18 2352.76,1404.28 
  "/>
<path clip-path="url(#clip750)" d="M112.177 1454.1 Q108.566 1454.1 106.737 1457.66 Q104.932 1461.2 104.932 1468.33 Q104.932 1475.44 106.737 1479.01 Q108.566 1482.55 112.177 1482.55 Q115.811 1482.55 117.617 1479.01 Q119.446 1475.44 119.446 1468.33 Q119.446 1461.2 117.617 1457.66 Q115.811 1454.1 112.177 1454.1 M112.177 1450.39 Q117.987 1450.39 121.043 1455 Q124.122 1459.58 124.122 1468.33 Q124.122 1477.06 121.043 1481.67 Q117.987 1486.25 112.177 1486.25 Q106.367 1486.25 103.288 1481.67 Q100.233 1477.06 100.233 1468.33 Q100.233 1459.58 103.288 1455 Q106.367 1450.39 112.177 1450.39 Z" fill="#000000" fill-rule="evenodd" fill-opacity="1" /><path clip-path="url(#clip750)" d="M534.981 1481.64 L542.619 1481.64 L542.619 1455.28 L534.309 1456.95 L534.309 1452.69 L542.573 1451.02 L547.249 1451.02 L547.249 1481.64 L554.888 1481.64 L554.888 1485.58 L534.981 1485.58 L534.981 1481.64 Z" fill="#000000" fill-rule="evenodd" fill-opacity="1" /><path clip-path="url(#clip750)" d="M574.332 1454.1 Q570.721 1454.1 568.892 1457.66 Q567.087 1461.2 567.087 1468.33 Q567.087 1475.44 568.892 1479.01 Q570.721 1482.55 574.332 1482.55 Q577.966 1482.55 579.772 1479.01 Q581.601 1475.44 581.601 1468.33 Q581.601 1461.2 579.772 1457.66 Q577.966 1454.1 574.332 1454.1 M574.332 1450.39 Q580.142 1450.39 583.198 1455 Q586.277 1459.58 586.277 1468.33 Q586.277 1477.06 583.198 1481.67 Q580.142 1486.25 574.332 1486.25 Q568.522 1486.25 565.443 1481.67 Q562.388 1477.06 562.388 1468.33 Q562.388 1459.58 565.443 1455 Q568.522 1450.39 574.332 1450.39 Z" fill="#000000" fill-rule="evenodd" fill-opacity="1" /><path clip-path="url(#clip750)" d="M987.182 1481.64 L1003.5 1481.64 L1003.5 1485.58 L981.557 1485.58 L981.557 1481.64 Q984.219 1478.89 988.802 1474.26 Q993.409 1469.61 994.589 1468.27 Q996.835 1465.74 997.714 1464.01 Q998.617 1462.25 998.617 1460.56 Q998.617 1457.8 996.673 1456.07 Q994.751 1454.33 991.649 1454.33 Q989.45 1454.33 986.997 1455.09 Q984.566 1455.86 981.788 1457.41 L981.788 1452.69 Q984.612 1451.55 987.066 1450.97 Q989.52 1450.39 991.557 1450.39 Q996.927 1450.39 1000.12 1453.08 Q1003.32 1455.77 1003.32 1460.26 Q1003.32 1462.39 1002.51 1464.31 Q1001.72 1466.2 999.612 1468.8 Q999.034 1469.47 995.932 1472.69 Q992.83 1475.88 987.182 1481.64 Z" fill="#000000" fill-rule="evenodd" fill-opacity="1" /><path clip-path="url(#clip750)" d="M1023.32 1454.1 Q1019.7 1454.1 1017.88 1457.66 Q1016.07 1461.2 1016.07 1468.33 Q1016.07 1475.44 1017.88 1479.01 Q1019.7 1482.55 1023.32 1482.55 Q1026.95 1482.55 1028.76 1479.01 Q1030.58 1475.44 1030.58 1468.33 Q1030.58 1461.2 1028.76 1457.66 Q1026.95 1454.1 1023.32 1454.1 M1023.32 1450.39 Q1029.13 1450.39 1032.18 1455 Q1035.26 1459.58 1035.26 1468.33 Q1035.26 1477.06 1032.18 1481.67 Q1029.13 1486.25 1023.32 1486.25 Q1017.51 1486.25 1014.43 1481.67 Q1011.37 1477.06 1011.37 1468.33 Q1011.37 1459.58 1014.43 1455 Q1017.51 1450.39 1023.32 1450.39 Z" fill="#000000" fill-rule="evenodd" fill-opacity="1" /><path clip-path="url(#clip750)" d="M1445.37 1466.95 Q1448.72 1467.66 1450.6 1469.93 Q1452.5 1472.2 1452.5 1475.53 Q1452.5 1480.65 1448.98 1483.45 Q1445.46 1486.25 1438.98 1486.25 Q1436.8 1486.25 1434.49 1485.81 Q1432.2 1485.39 1429.74 1484.54 L1429.74 1480.02 Q1431.69 1481.16 1434 1481.74 Q1436.32 1482.32 1438.84 1482.32 Q1443.24 1482.32 1445.53 1480.58 Q1447.84 1478.84 1447.84 1475.53 Q1447.84 1472.48 1445.69 1470.77 Q1443.56 1469.03 1439.74 1469.03 L1435.71 1469.03 L1435.71 1465.19 L1439.93 1465.19 Q1443.38 1465.19 1445.21 1463.82 Q1447.03 1462.43 1447.03 1459.84 Q1447.03 1457.18 1445.14 1455.77 Q1443.26 1454.33 1439.74 1454.33 Q1437.82 1454.33 1435.62 1454.75 Q1433.42 1455.16 1430.78 1456.04 L1430.78 1451.88 Q1433.45 1451.14 1435.76 1450.77 Q1438.1 1450.39 1440.16 1450.39 Q1445.48 1450.39 1448.58 1452.83 Q1451.69 1455.23 1451.69 1459.35 Q1451.69 1462.22 1450.04 1464.21 Q1448.4 1466.18 1445.37 1466.95 Z" fill="#000000" fill-rule="evenodd" fill-opacity="1" /><path clip-path="url(#clip750)" d="M1471.36 1454.1 Q1467.75 1454.1 1465.92 1457.66 Q1464.12 1461.2 1464.12 1468.33 Q1464.12 1475.44 1465.92 1479.01 Q1467.75 1482.55 1471.36 1482.55 Q1475 1482.55 1476.8 1479.01 Q1478.63 1475.44 1478.63 1468.33 Q1478.63 1461.2 1476.8 1457.66 Q1475 1454.1 1471.36 1454.1 M1471.36 1450.39 Q1477.17 1450.39 1480.23 1455 Q1483.31 1459.58 1483.31 1468.33 Q1483.31 1477.06 1480.23 1481.67 Q1477.17 1486.25 1471.36 1486.25 Q1465.55 1486.25 1462.47 1481.67 Q1459.42 1477.06 1459.42 1468.33 Q1459.42 1459.58 1462.47 1455 Q1465.55 1450.39 1471.36 1450.39 Z" fill="#000000" fill-rule="evenodd" fill-opacity="1" /><path clip-path="url(#clip750)" d="M1892.81 1455.09 L1881.01 1473.54 L1892.81 1473.54 L1892.81 1455.09 M1891.58 1451.02 L1897.46 1451.02 L1897.46 1473.54 L1902.39 1473.54 L1902.39 1477.43 L1897.46 1477.43 L1897.46 1485.58 L1892.81 1485.58 L1892.81 1477.43 L1877.21 1477.43 L1877.21 1472.92 L1891.58 1451.02 Z" fill="#000000" fill-rule="evenodd" fill-opacity="1" /><path clip-path="url(#clip750)" d="M1920.13 1454.1 Q1916.52 1454.1 1914.69 1457.66 Q1912.88 1461.2 1912.88 1468.33 Q1912.88 1475.44 1914.69 1479.01 Q1916.52 1482.55 1920.13 1482.55 Q1923.76 1482.55 1925.57 1479.01 Q1927.39 1475.44 1927.39 1468.33 Q1927.39 1461.2 1925.57 1457.66 Q1923.76 1454.1 1920.13 1454.1 M1920.13 1450.39 Q1925.94 1450.39 1928.99 1455 Q1932.07 1459.58 1932.07 1468.33 Q1932.07 1477.06 1928.99 1481.67 Q1925.94 1486.25 1920.13 1486.25 Q1914.32 1486.25 1911.24 1481.67 Q1908.18 1477.06 1908.18 1468.33 Q1908.18 1459.58 1911.24 1455 Q1914.32 1450.39 1920.13 1450.39 Z" fill="#000000" fill-rule="evenodd" fill-opacity="1" /><path clip-path="url(#clip750)" d="M2327.46 1451.02 L2345.81 1451.02 L2345.81 1454.96 L2331.74 1454.96 L2331.74 1463.43 Q2332.76 1463.08 2333.77 1462.92 Q2334.79 1462.73 2335.81 1462.73 Q2341.6 1462.73 2344.98 1465.9 Q2348.36 1469.08 2348.36 1474.49 Q2348.36 1480.07 2344.89 1483.17 Q2341.41 1486.25 2335.09 1486.25 Q2332.92 1486.25 2330.65 1485.88 Q2328.4 1485.51 2326 1484.77 L2326 1480.07 Q2328.08 1481.2 2330.3 1481.76 Q2332.52 1482.32 2335 1482.32 Q2339.01 1482.32 2341.34 1480.21 Q2343.68 1478.1 2343.68 1474.49 Q2343.68 1470.88 2341.34 1468.77 Q2339.01 1466.67 2335 1466.67 Q2333.13 1466.67 2331.25 1467.08 Q2329.4 1467.5 2327.46 1468.38 L2327.46 1451.02 Z" fill="#000000" fill-rule="evenodd" fill-opacity="1" /><path clip-path="url(#clip750)" d="M2367.57 1454.1 Q2363.96 1454.1 2362.13 1457.66 Q2360.33 1461.2 2360.33 1468.33 Q2360.33 1475.44 2362.13 1479.01 Q2363.96 1482.55 2367.57 1482.55 Q2371.2 1482.55 2373.01 1479.01 Q2374.84 1475.44 2374.84 1468.33 Q2374.84 1461.2 2373.01 1457.66 Q2371.2 1454.1 2367.57 1454.1 M2367.57 1450.39 Q2373.38 1450.39 2376.44 1455 Q2379.52 1459.58 2379.52 1468.33 Q2379.52 1477.06 2376.44 1481.67 Q2373.38 1486.25 2367.57 1486.25 Q2361.76 1486.25 2358.68 1481.67 Q2355.63 1477.06 2355.63 1468.33 Q2355.63 1459.58 2358.68 1455 Q2361.76 1450.39 2367.57 1450.39 Z" fill="#000000" fill-rule="evenodd" fill-opacity="1" /><path clip-path="url(#clip750)" d="M1231.53 1522.27 L1231.53 1532.4 L1243.59 1532.4 L1243.59 1536.95 L1231.53 1536.95 L1231.53 1556.3 Q1231.53 1560.66 1232.71 1561.9 Q1233.91 1563.14 1237.58 1563.14 L1243.59 1563.14 L1243.59 1568.04 L1237.58 1568.04 Q1230.8 1568.04 1228.22 1565.53 Q1225.64 1562.98 1225.64 1556.3 L1225.64 1536.95 L1221.34 1536.95 L1221.34 1532.4 L1225.64 1532.4 L1225.64 1522.27 L1231.53 1522.27 Z" fill="#000000" fill-rule="evenodd" fill-opacity="1" /><polyline clip-path="url(#clip752)" style="stroke:#000000; stroke-linecap:butt; stroke-linejoin:round; stroke-width:2; stroke-opacity:0.1; fill:none" points="
  112.177,1411.2 2352.76,1411.2 
  "/>
<polyline clip-path="url(#clip752)" style="stroke:#000000; stroke-linecap:butt; stroke-linejoin:round; stroke-width:2; stroke-opacity:0.1; fill:none" points="
  112.177,1076.58 2352.76,1076.58 
  "/>
<polyline clip-path="url(#clip752)" style="stroke:#000000; stroke-linecap:butt; stroke-linejoin:round; stroke-width:2; stroke-opacity:0.1; fill:none" points="
  112.177,741.954 2352.76,741.954 
  "/>
<polyline clip-path="url(#clip752)" style="stroke:#000000; stroke-linecap:butt; stroke-linejoin:round; stroke-width:2; stroke-opacity:0.1; fill:none" points="
  112.177,407.333 2352.76,407.333 
  "/>
<polyline clip-path="url(#clip752)" style="stroke:#000000; stroke-linecap:butt; stroke-linejoin:round; stroke-width:2; stroke-opacity:0.1; fill:none" points="
  112.177,72.7109 2352.76,72.7109 
  "/>
<polyline clip-path="url(#clip750)" style="stroke:#000000; stroke-linecap:butt; stroke-linejoin:round; stroke-width:4; stroke-opacity:1; fill:none" points="
  112.177,1423.18 112.177,47.2441 
  "/>
<polyline clip-path="url(#clip750)" style="stroke:#000000; stroke-linecap:butt; stroke-linejoin:round; stroke-width:4; stroke-opacity:1; fill:none" points="
  112.177,1411.2 131.075,1411.2 
  "/>
<polyline clip-path="url(#clip750)" style="stroke:#000000; stroke-linecap:butt; stroke-linejoin:round; stroke-width:4; stroke-opacity:1; fill:none" points="
  112.177,1076.58 131.075,1076.58 
  "/>
<polyline clip-path="url(#clip750)" style="stroke:#000000; stroke-linecap:butt; stroke-linejoin:round; stroke-width:4; stroke-opacity:1; fill:none" points="
  112.177,741.954 131.075,741.954 
  "/>
<polyline clip-path="url(#clip750)" style="stroke:#000000; stroke-linecap:butt; stroke-linejoin:round; stroke-width:4; stroke-opacity:1; fill:none" points="
  112.177,407.333 131.075,407.333 
  "/>
<polyline clip-path="url(#clip750)" style="stroke:#000000; stroke-linecap:butt; stroke-linejoin:round; stroke-width:4; stroke-opacity:1; fill:none" points="
  112.177,72.7109 131.075,72.7109 
  "/>
<path clip-path="url(#clip750)" d="M64.2328 1397 Q60.6217 1397 58.793 1400.56 Q56.9875 1404.1 56.9875 1411.23 Q56.9875 1418.34 58.793 1421.9 Q60.6217 1425.45 64.2328 1425.45 Q67.867 1425.45 69.6726 1421.9 Q71.5013 1418.34 71.5013 1411.23 Q71.5013 1404.1 69.6726 1400.56 Q67.867 1397 64.2328 1397 M64.2328 1393.29 Q70.0429 1393.29 73.0985 1397.9 Q76.1772 1402.48 76.1772 1411.23 Q76.1772 1419.96 73.0985 1424.57 Q70.0429 1429.15 64.2328 1429.15 Q58.4226 1429.15 55.344 1424.57 Q52.2884 1419.96 52.2884 1411.23 Q52.2884 1402.48 55.344 1397.9 Q58.4226 1393.29 64.2328 1393.29 Z" fill="#000000" fill-rule="evenodd" fill-opacity="1" /><path clip-path="url(#clip750)" d="M59.8578 1089.92 L76.1772 1089.92 L76.1772 1093.86 L54.2328 1093.86 L54.2328 1089.92 Q56.8949 1087.17 61.4782 1082.54 Q66.0846 1077.88 67.2652 1076.54 Q69.5105 1074.02 70.3902 1072.28 Q71.2929 1070.52 71.2929 1068.83 Q71.2929 1066.08 69.3485 1064.34 Q67.4272 1062.61 64.3254 1062.61 Q62.1263 1062.61 59.6726 1063.37 Q57.2421 1064.13 54.4643 1065.68 L54.4643 1060.96 Q57.2884 1059.83 59.7421 1059.25 Q62.1958 1058.67 64.2328 1058.67 Q69.6031 1058.67 72.7976 1061.36 Q75.992 1064.04 75.992 1068.53 Q75.992 1070.66 75.1818 1072.58 Q74.3948 1074.48 72.2883 1077.07 Q71.7096 1077.74 68.6078 1080.96 Q65.5059 1084.16 59.8578 1089.92 Z" fill="#000000" fill-rule="evenodd" fill-opacity="1" /><path clip-path="url(#clip750)" d="M66.5939 728.748 L54.7884 747.197 L66.5939 747.197 L66.5939 728.748 M65.367 724.674 L71.2466 724.674 L71.2466 747.197 L76.1772 747.197 L76.1772 751.086 L71.2466 751.086 L71.2466 759.234 L66.5939 759.234 L66.5939 751.086 L50.9921 751.086 L50.9921 746.572 L65.367 724.674 Z" fill="#000000" fill-rule="evenodd" fill-opacity="1" /><path clip-path="url(#clip750)" d="M64.6495 405.469 Q61.5013 405.469 59.6495 407.622 Q57.8208 409.775 57.8208 413.525 Q57.8208 417.252 59.6495 419.427 Q61.5013 421.58 64.6495 421.58 Q67.7976 421.58 69.6263 419.427 Q71.4781 417.252 71.4781 413.525 Q71.4781 409.775 69.6263 407.622 Q67.7976 405.469 64.6495 405.469 M73.9318 390.816 L73.9318 395.076 Q72.1726 394.242 70.367 393.803 Q68.5846 393.363 66.8254 393.363 Q62.1958 393.363 59.7421 396.488 Q57.3115 399.613 56.9643 405.932 Q58.33 403.918 60.3902 402.853 Q62.4504 401.765 64.9272 401.765 Q70.1355 401.765 73.1448 404.937 Q76.1772 408.085 76.1772 413.525 Q76.1772 418.849 73.029 422.066 Q69.8809 425.284 64.6495 425.284 Q58.6541 425.284 55.4828 420.701 Q52.3116 416.094 52.3116 407.367 Q52.3116 399.173 56.2004 394.312 Q60.0893 389.428 66.6402 389.428 Q68.3994 389.428 70.1818 389.775 Q71.9874 390.122 73.9318 390.816 Z" fill="#000000" fill-rule="evenodd" fill-opacity="1" /><path clip-path="url(#clip750)" d="M64.3254 73.579 Q60.9921 73.579 59.0708 75.3614 Q57.1726 77.1437 57.1726 80.2687 Q57.1726 83.3937 59.0708 85.1761 Q60.9921 86.9585 64.3254 86.9585 Q67.6587 86.9585 69.58 85.1761 Q71.5013 83.3706 71.5013 80.2687 Q71.5013 77.1437 69.58 75.3614 Q67.6819 73.579 64.3254 73.579 M59.6495 71.5882 Q56.6402 70.8475 54.9504 68.7873 Q53.2838 66.7271 53.2838 63.7642 Q53.2838 59.6207 56.2236 57.2133 Q59.1865 54.8059 64.3254 54.8059 Q69.4874 54.8059 72.4272 57.2133 Q75.367 59.6207 75.367 63.7642 Q75.367 66.7271 73.6772 68.7873 Q72.0105 70.8475 69.0244 71.5882 Q72.404 72.3753 74.279 74.6669 Q76.1772 76.9586 76.1772 80.2687 Q76.1772 85.2919 73.0985 87.977 Q70.0429 90.6622 64.3254 90.6622 Q58.6078 90.6622 55.5291 87.977 Q52.4736 85.2919 52.4736 80.2687 Q52.4736 76.9586 54.3717 74.6669 Q56.2699 72.3753 59.6495 71.5882 M57.9365 64.204 Q57.9365 66.8892 59.6032 68.3938 Q61.293 69.8984 64.3254 69.8984 Q67.3346 69.8984 69.0244 68.3938 Q70.7374 66.8892 70.7374 64.204 Q70.7374 61.5188 69.0244 60.0142 Q67.3346 58.5096 64.3254 58.5096 Q61.293 58.5096 59.6032 60.0142 Q57.9365 61.5188 57.9365 64.204 Z" fill="#000000" fill-rule="evenodd" fill-opacity="1" /><polyline clip-path="url(#clip752)" style="stroke:#009af9; stroke-linecap:butt; stroke-linejoin:round; stroke-width:4; stroke-opacity:1; fill:none" points="
  112.177,1277.35 113.496,1274.46 114.815,1271.31 116.133,1267.9 117.452,1264.23 118.771,1260.29 120.09,1256.08 121.409,1251.6 122.727,1246.84 124.046,1241.79 
  125.365,1236.45 126.684,1230.8 128.002,1224.85 129.321,1218.58 130.64,1211.99 131.959,1205.05 133.277,1197.77 134.596,1190.13 135.915,1182.11 137.234,1173.71 
  138.552,1164.91 139.871,1155.69 141.19,1146.05 142.509,1135.96 143.827,1125.42 145.146,1114.4 146.465,1102.88 147.784,1090.85 149.103,1078.3 150.421,1065.19 
  151.74,1051.51 153.059,1037.24 154.378,1022.36 155.696,1006.85 157.015,990.679 158.334,973.833 159.653,956.288 160.971,938.021 162.29,919.008 163.609,899.228 
  164.928,878.66 166.246,857.288 167.565,835.083 168.884,812.019 170.203,788.077 171.522,763.24 172.84,737.498 174.159,710.846 175.478,683.284 176.797,654.815 
  178.115,625.45 179.434,595.201 180.753,564.089 182.072,532.234 183.39,499.675 184.709,466.403 186.028,432.478 187.347,398.028 188.665,363.249 189.984,328.406 
  191.303,293.831 192.622,259.926 193.94,227.159 195.259,196.07 196.578,167.262 197.897,141.412 199.216,119.255 200.534,101.712 201.853,90.23 203.172,86.1857 
  204.491,90.7559 205.809,104.92 207.128,129.461 208.447,164.962 209.766,211.823 211.084,269.503 212.403,336.159 213.722,409.714 215.041,487.922 216.359,568.367 
  217.678,648.469 218.997,725.549 220.316,797.888 221.635,864.454 222.953,924.53 224.272,977.774 225.591,1024.22 226.91,1064.27 228.228,1098.71 229.547,1128.63 
  230.866,1154.41 232.185,1176.47 233.503,1195.33 234.822,1211.43 236.141,1225.18 237.46,1236.9 238.778,1246.86 240.097,1255.33 241.416,1262.51 242.735,1268.57 
  244.053,1273.66 245.372,1277.91 246.691,1281.42 248.01,1284.27 249.329,1286.53 250.647,1288.26 251.966,1289.51 253.285,1290.32 254.604,1290.73 255.922,1290.76 
  257.241,1290.44 258.56,1289.8 259.879,1288.85 261.197,1287.61 262.516,1286.07 263.835,1284.27 265.154,1282.18 266.472,1279.84 267.791,1277.22 269.11,1274.35 
  270.429,1271.21 271.748,1267.81 273.066,1264.15 274.385,1260.22 275.704,1256.02 277.023,1251.55 278.341,1246.8 279.66,1241.77 280.979,1236.44 282.298,1230.81 
  283.616,1224.87 284.935,1218.61 286.254,1212.02 287.573,1205.1 288.891,1197.83 290.21,1190.2 291.529,1182.2 292.848,1173.81 294.167,1165.02 295.485,1155.82 
  296.804,1146.19 298.123,1136.12 299.442,1125.6 300.76,1114.59 302.079,1103.09 303.398,1091.09 304.717,1078.55 306.035,1065.46 307.354,1051.8 308.673,1037.56 
  309.992,1022.7 311.31,1007.21 312.629,991.066 313.948,974.245 315.267,956.726 316.585,938.486 317.904,919.502 319.223,899.753 320.542,879.215 321.861,857.866 
  323.179,835.709 324.498,812.724 325.817,788.87 327.136,764.114 328.454,738.437 329.773,711.826 331.092,684.281 332.411,655.811 333.729,626.436 335.048,596.185 
  336.367,565.098 337.686,533.225 339.004,500.627 340.323,467.373 341.642,433.544 342.961,399.253 344.28,364.703 345.598,330.075 346.917,295.638 348.236,261.759 
  349.555,228.905 350.873,197.644 352.192,168.643 353.511,142.669 354.83,120.587 356.148,103.365 357.467,92.0674 358.786,87.8606 360.105,91.9571 361.423,105.634 
  362.742,129.945 364.061,165.39 365.38,211.906 366.698,268.872 368.017,335.118 369.336,408.886 370.655,487.326 371.974,567.648 373.292,647.373 374.611,724.335 
  375.93,796.675 377.249,862.935 378.567,922.626 379.886,975.751 381.205,1022.47 382.524,1063.1 383.842,1098.1 385.161,1128.09 386.48,1153.85 387.799,1175.97 
  389.117,1194.87 390.436,1211.01 391.755,1224.8 393.074,1236.56 394.393,1246.58 395.711,1255.1 397.03,1262.31 398.349,1268.4 399.668,1273.51 400.986,1277.78 
  402.305,1281.29 403.624,1284.15 404.943,1286.41 406.261,1288.15 407.58,1289.41 408.899,1290.23 410.218,1290.65 411.536,1290.69 412.855,1290.38 414.174,1289.75 
  415.493,1288.8 416.811,1287.55 418.13,1286.02 419.449,1284.22 420.768,1282.14 422.087,1279.8 423.405,1277.19 424.724,1274.32 426.043,1271.19 427.362,1267.79 
  428.68,1264.13 429.999,1260.21 431.318,1256.01 432.637,1251.55 433.955,1246.8 435.274,1241.76 436.593,1236.44 437.912,1230.81 439.23,1224.87 440.549,1218.62 
  441.868,1212.04 443.187,1205.12 444.506,1197.85 445.824,1190.22 447.143,1182.23 448.462,1173.84 449.781,1165.06 451.099,1155.86 452.418,1146.24 453.737,1136.17 
  455.056,1125.65 456.374,1114.65 457.693,1103.15 459.012,1091.15 460.331,1078.62 461.649,1065.53 462.968,1051.88 464.287,1037.64 465.606,1022.79 466.924,1007.31 
  468.243,991.173 469.562,974.36 470.881,956.848 472.2,938.615 473.518,919.637 474.837,899.894 476.156,879.363 477.475,858.023 478.793,835.852 480.112,812.84 
  481.431,789.033 482.75,764.379 484.068,738.819 485.387,712.316 486.706,684.846 488.025,656.406 489.343,627.011 490.662,596.693 491.981,565.501 493.3,533.504 
  494.619,500.788 495.937,467.456 497.256,433.63 498.575,399.449 499.894,365.073 501.212,330.675 502.531,296.449 503.85,262.608 505.169,229.649 506.487,198.25 
  507.806,169.154 509.125,143.172 510.444,121.185 511.762,104.14 513.081,93.0532 514.4,89.0079 515.719,93.1562 517.037,106.718 518.356,130.965 519.675,166.559 
  520.994,213.197 522.313,270.078 523.631,335.925 524.95,408.98 526.269,487.009 527.588,567.297 528.906,647.059 530.225,724.158 531.544,796.662 532.863,863.214 
  534.181,923.033 535.5,975.919 536.819,1022.25 538.138,1062.76 539.456,1097.78 540.775,1127.94 542.094,1153.82 543.413,1175.98 544.732,1194.91 546.05,1211.05 
  547.369,1224.8 548.688,1236.52 550.007,1246.5 551.325,1254.99 552.644,1262.19 553.963,1268.29 555.282,1273.42 556.6,1277.69 557.919,1281.21 559.238,1284.07 
  560.557,1286.34 561.875,1288.07 563.194,1289.32 564.513,1290.13 565.832,1290.54 567.15,1290.58 568.469,1290.28 569.788,1289.64 571.107,1288.7 572.426,1287.45 
  573.744,1285.92 575.063,1284.11 576.382,1282.03 577.701,1279.68 579.019,1277.06 580.338,1274.19 581.657,1271.06 582.976,1267.66 584.294,1264 585.613,1260.07 
  586.932,1255.88 588.251,1251.41 589.569,1246.65 590.888,1241.61 592.207,1236.28 593.526,1230.65 594.845,1224.7 596.163,1218.44 597.482,1211.86 598.801,1204.93 
  600.12,1197.66 601.438,1190.03 602.757,1182.02 604.076,1173.63 605.395,1164.84 606.713,1155.64 608.032,1146.01 609.351,1135.93 610.67,1125.4 611.988,1114.39 
  613.307,1102.89 614.626,1090.88 615.945,1078.33 617.263,1065.24 618.582,1051.58 619.901,1037.32 621.22,1022.46 622.539,1006.97 623.857,990.818 625.176,973.994 
  626.495,956.472 627.814,938.229 629.132,919.245 630.451,899.501 631.77,878.968 633.089,857.619 634.407,835.433 635.726,812.39 637.045,788.474 638.364,763.672 
  639.682,737.974 641.001,711.375 642.32,683.871 643.639,655.463 644.958,626.153 646.276,596 647.595,565.177 648.914,533.588 650.233,501.17 651.551,467.932 
  652.87,433.952 654.189,399.38 655.508,364.439 656.826,329.421 658.145,294.689 659.464,260.679 660.783,227.897 662.101,196.92 663.42,168.397 664.739,143.047 
  666.058,121.662 667.376,105.103 668.695,94.3042 670.014,90.3892 671.333,94.9074 672.652,109.141 673.97,133.935 675.289,169.695 676.608,216.391 677.927,273.572 
  679.245,340.178 680.564,413.749 681.883,491.688 683.202,571.511 684.52,650.854 685.839,727.465 687.158,799.26 688.477,865.067 689.795,924.479 691.114,977.332 
  692.433,1023.7 693.752,1063.92 695.071,1098.54 696.389,1128.38 697.708,1154.08 699.027,1176.08 700.346,1194.9 701.664,1210.98 702.983,1224.72 704.302,1236.45 
  705.621,1246.43 706.939,1254.89 708.258,1262.06 709.577,1268.12 710.896,1273.2 712.214,1277.44 713.533,1280.94 714.852,1283.78 716.171,1286.03 717.489,1287.76 
  718.808,1289 720.127,1289.81 721.446,1290.21 722.765,1290.23 724.083,1289.91 725.402,1289.26 726.721,1288.3 728.04,1287.04 729.358,1285.5 730.677,1283.68 
  731.996,1281.58 733.315,1279.22 734.633,1276.59 735.952,1273.7 737.271,1270.55 738.59,1267.14 739.908,1263.46 741.227,1259.51 742.546,1255.3 743.865,1250.81 
  745.184,1246.04 746.502,1240.98 747.821,1235.62 749.14,1229.97 750.459,1224.01 751.777,1217.72 753.096,1211.11 754.415,1204.16 755.734,1196.86 757.052,1189.2 
  758.371,1181.16 759.69,1172.74 761.009,1163.92 762.327,1154.68 763.646,1145.01 764.965,1134.91 766.284,1124.34 767.603,1113.29 768.921,1101.75 770.24,1089.7 
  771.559,1077.11 772.878,1063.98 774.196,1050.27 775.515,1035.97 776.834,1021.06 778.153,1005.52 779.471,989.32 780.79,972.443 782.109,954.866 783.428,936.567 
  784.746,917.523 786.065,897.712 787.384,877.112 788.703,855.7 790.021,833.478 791.34,810.433 792.659,786.521 793.978,761.71 795.297,735.977 796.615,709.31 
  797.934,681.711 799.253,653.188 800.572,623.763 801.89,593.468 803.209,562.346 804.528,530.45 805.847,497.845 807.165,464.606 808.484,430.818 809.803,396.587 
  811.122,362.113 812.44,327.601 813.759,293.328 815.078,259.669 816.397,227.103 817.716,196.204 819.034,167.648 820.353,142.208 821.672,120.759 822.991,104.274 
  824.309,93.826 825.628,90.5862 826.947,95.768 828.266,110.605 829.584,136.1 830.903,172.694 832.222,220.258 833.541,278.095 834.859,344.946 836.178,419.021 
  837.497,497.477 838.816,577.517 840.134,656.687 841.453,732.881 842.772,804.338 844.091,869.682 845.41,928.427 846.728,980.654 848.047,1026.57 849.366,1066.52 
  850.685,1100.95 852.003,1130.46 853.322,1155.75 854.641,1177.49 855.96,1196.07 857.278,1211.95 858.597,1225.5 859.916,1237.06 861.235,1246.92 862.553,1255.31 
  863.872,1262.4 865.191,1268.39 866.51,1273.42 867.829,1277.61 869.147,1281.06 870.466,1283.85 871.785,1286.06 873.104,1287.75 874.422,1288.97 875.741,1289.74 
  877.06,1290.12 878.379,1290.13 879.697,1289.78 881.016,1289.11 882.335,1288.12 883.654,1286.84 884.972,1285.28 886.291,1283.44 887.61,1281.32 888.929,1278.94 
  890.247,1276.3 891.566,1273.39 892.885,1270.22 894.204,1266.78 895.523,1263.08 896.841,1259.12 898.16,1254.88 899.479,1250.36 900.798,1245.57 902.116,1240.49 
  903.435,1235.11 904.754,1229.43 906.073,1223.44 907.391,1217.13 908.71,1210.49 910.029,1203.51 911.348,1196.19 912.666,1188.49 913.985,1180.43 915.304,1171.97 
  916.623,1163.12 917.942,1153.85 919.26,1144.15 920.579,1134 921.898,1123.39 923.217,1112.3 924.535,1100.72 925.854,1088.62 927.173,1076 928.492,1062.82 
  929.81,1049.06 931.129,1034.72 932.448,1019.76 933.767,1004.16 935.085,987.91 936.404,970.979 937.723,953.346 939.042,934.987 940.36,915.88 941.679,896.004 
  942.998,875.337 944.317,853.859 945.636,831.549 946.954,808.387 948.273,784.376 949.592,759.573 950.911,733.91 952.229,707.326 953.548,679.784 954.867,651.266 
  956.186,621.779 957.504,591.352 958.823,560.037 960.142,527.907 961.461,495.059 962.779,461.611 964.098,427.704 965.417,393.503 966.736,359.192 968.055,324.982 
  969.373,291.101 970.692,257.805 972.011,225.415 973.33,194.597 974.648,166.168 975.967,140.999 977.286,120.013 978.605,104.19 979.923,94.5618 981.242,92.2145 
  982.561,98.2882 983.88,113.977 985.198,140.484 986.517,178.234 987.836,226.827 989.155,285.377 990.473,352.52 991.792,426.412 993.111,504.73 994.43,584.675 
  995.749,663.687 997.067,739.626 998.386,810.686 999.705,875.64 1001.02,933.838 1002.34,985.206 1003.66,1030.25 1004.98,1069.55 1006.3,1103.49 1007.62,1132.72 
  1008.94,1157.8 1010.25,1179.27 1011.57,1197.61 1012.89,1213.24 1014.21,1226.57 1015.53,1237.94 1016.85,1247.62 1018.17,1255.85 1019.49,1262.83 1020.81,1268.74 
  1022.12,1273.7 1023.44,1277.82 1024.76,1281.21 1026.08,1283.96 1027.4,1286.12 1028.72,1287.75 1030.04,1288.91 1031.36,1289.64 1032.67,1289.98 1033.99,1289.95 
  1035.31,1289.57 1036.63,1288.87 1037.95,1287.86 1039.27,1286.56 1040.59,1284.96 1041.91,1283.09 1043.22,1280.94 1044.54,1278.53 1045.86,1275.86 1047.18,1272.92 
  1048.5,1269.72 1049.82,1266.26 1051.14,1262.53 1052.46,1258.54 1053.77,1254.27 1055.09,1249.73 1056.41,1244.9 1057.73,1239.78 1059.05,1234.37 1060.37,1228.65 
  1061.69,1222.63 1063.01,1216.28 1064.32,1209.6 1065.64,1202.58 1066.96,1195.21 1068.28,1187.48 1069.6,1179.37 1070.92,1170.87 1072.24,1161.97 1073.56,1152.65 
  1074.87,1142.9 1076.19,1132.7 1077.51,1122.03 1078.83,1110.89 1080.15,1099.25 1081.47,1087.09 1082.79,1074.4 1084.11,1061.15 1085.42,1047.32 1086.74,1032.91 
  1088.06,1017.87 1089.38,1002.2 1090.7,985.871 1092.02,968.86 1093.34,951.145 1094.66,932.703 1095.97,913.519 1097.29,893.566 1098.61,872.817 1099.93,851.248 
  1101.25,828.837 1102.57,805.568 1103.89,781.424 1105.21,756.395 1106.52,730.472 1107.84,703.649 1109.16,675.925 1110.48,647.3 1111.8,617.78 1113.12,587.53 
  1114.44,556.565 1115.76,524.788 1117.07,492.175 1118.39,458.766 1119.71,424.672 1121.03,390.071 1122.35,355.21 1123.67,320.401 1124.99,286.027 1126.31,252.539 
  1127.62,220.455 1128.94,190.361 1130.26,162.91 1131.58,138.827 1132.9,118.9 1134.22,103.988 1135.54,95.0772 1136.86,93.637 1138.17,101.092 1139.49,118.49 
  1140.81,146.496 1142.13,185.4 1143.45,235.109 1144.77,295.162 1146.09,363.756 1147.41,438.416 1148.73,516.708 1150.04,596.242 1151.36,674.675 1152.68,749.708 
  1154,819.476 1155.32,883.228 1156.64,940.557 1157.96,991.332 1159.28,1035.69 1160.59,1074.05 1161.91,1107.1 1163.23,1135.68 1164.55,1160.22 1165.87,1181.23 
  1167.19,1199.2 1168.51,1214.57 1169.83,1227.69 1171.14,1238.89 1172.46,1248.4 1173.78,1256.47 1175.1,1263.31 1176.42,1269.07 1177.74,1273.91 1179.06,1277.93 
  1180.38,1281.23 1181.69,1283.9 1183.01,1286 1184.33,1287.58 1185.65,1288.69 1186.97,1289.38 1188.29,1289.66 1189.61,1289.58 1190.93,1289.16 1192.24,1288.41 
  1193.56,1287.36 1194.88,1286.01 1196.2,1284.38 1197.52,1282.47 1198.84,1280.29 1200.16,1277.84 1201.48,1275.13 1202.79,1272.15 1204.11,1268.91 1205.43,1265.4 
  1206.75,1261.63 1208.07,1257.59 1209.39,1253.28 1210.71,1248.69 1212.03,1243.82 1213.34,1238.65 1214.66,1233.19 1215.98,1227.43 1217.3,1221.35 1218.62,1214.94 
  1219.94,1208.21 1221.26,1201.13 1222.58,1193.7 1223.89,1185.9 1225.21,1177.72 1226.53,1169.15 1227.85,1160.18 1229.17,1150.79 1230.49,1140.96 1231.81,1130.68 
  1233.13,1119.94 1234.44,1108.71 1235.76,1096.99 1237.08,1084.74 1238.4,1071.95 1239.72,1058.61 1241.04,1044.69 1242.36,1030.17 1243.68,1015.03 1244.99,999.244 
  1246.31,982.8 1247.63,965.669 1248.95,947.832 1250.27,929.264 1251.59,909.946 1252.91,889.853 1254.23,868.964 1255.54,847.262 1256.86,824.755 1258.18,801.405 
  1259.5,777.175 1260.82,752.038 1262.14,725.978 1263.46,698.989 1264.78,671.074 1266.1,642.251 1267.41,612.543 1268.73,581.987 1270.05,550.63 1271.37,518.527 
  1272.69,485.747 1274.01,452.367 1275.33,418.475 1276.65,384.229 1277.96,349.827 1279.28,315.491 1280.6,281.54 1281.92,248.392 1283.24,216.563 1284.56,186.668 
  1285.88,159.416 1287.2,135.62 1288.51,116.185 1289.83,102.118 1291.15,94.522 1292.47,94.5918 1293.79,103.521 1295.11,122.522 1296.43,152.356 1297.75,193.225 
  1299.06,244.772 1300.38,306.085 1301.7,375.75 1303.02,451.523 1304.34,530.495 1305.66,610.049 1306.98,687.894 1308.3,762.072 1309.61,830.951 1310.93,893.455 
  1312.25,949.441 1313.57,999.02 1314.89,1042.44 1316.21,1080.07 1317.53,1112.43 1318.85,1140.15 1320.16,1163.98 1321.48,1184.42 1322.8,1201.9 1324.12,1216.82 
  1325.44,1229.57 1326.76,1240.45 1328.08,1249.72 1329.4,1257.59 1330.71,1264.24 1332.03,1269.85 1333.35,1274.54 1334.67,1278.44 1335.99,1281.62 1337.31,1284.19 
  1338.63,1286.19 1339.95,1287.69 1341.26,1288.73 1342.58,1289.35 1343.9,1289.58 1345.22,1289.44 1346.54,1288.96 1347.86,1288.16 1349.18,1287.06 1350.5,1285.66 
  1351.81,1283.98 1353.13,1282.02 1354.45,1279.79 1355.77,1277.3 1357.09,1274.54 1358.41,1271.52 1359.73,1268.23 1361.05,1264.68 1362.36,1260.86 1363.68,1256.77 
  1365,1252.41 1366.32,1247.77 1367.64,1242.84 1368.96,1237.63 1370.28,1232.11 1371.6,1226.29 1372.91,1220.16 1374.23,1213.7 1375.55,1206.9 1376.87,1199.76 
  1378.19,1192.26 1379.51,1184.4 1380.83,1176.15 1382.15,1167.51 1383.46,1158.46 1384.78,1148.99 1386.1,1139.09 1387.42,1128.72 1388.74,1117.89 1390.06,1106.58 
  1391.38,1094.76 1392.7,1082.41 1394.02,1069.53 1395.33,1056.08 1396.65,1042.06 1397.97,1027.43 1399.29,1012.17 1400.61,996.278 1401.93,979.714 1403.25,962.46 
  1404.57,944.494 1405.88,925.793 1407.2,906.335 1408.52,886.099 1409.84,865.064 1411.16,843.209 1412.48,820.515 1413.8,796.961 1415.12,772.599 1416.43,747.43 
  1417.75,721.377 1419.07,694.386 1420.39,666.428 1421.71,637.494 1423.03,607.603 1424.35,576.792 1425.67,545.126 1426.98,512.69 1428.3,479.594 1429.62,445.972 
  1430.94,411.979 1432.26,377.796 1433.58,343.625 1434.9,309.693 1436.22,276.248 1437.53,243.563 1438.85,212.031 1440.17,182.426 1441.49,155.627 1442.81,132.553 
  1444.13,114.162 1445.45,101.456 1446.77,95.4776 1448.08,97.3091 1449.4,108.075 1450.72,128.945 1452.04,161.015 1453.36,204.204 1454.68,257.734 1456,320.423 
  1457.32,390.678 1458.63,466.502 1459.95,545.489 1461.27,624.83 1462.59,702.045 1463.91,775.362 1465.23,843.294 1466.55,904.871 1467.87,959.636 1469.18,1007.65 
  1470.5,1049.48 1471.82,1085.99 1473.14,1117.49 1474.46,1144.57 1475.78,1167.8 1477.1,1187.69 1478.42,1204.69 1479.73,1219.19 1481.05,1231.54 1482.37,1242.07 
  1483.69,1251.03 1485.01,1258.64 1486.33,1265.08 1487.65,1270.51 1488.97,1275.06 1490.28,1278.83 1491.6,1281.91 1492.92,1284.37 1494.24,1286.27 1495.56,1287.68 
  1496.88,1288.63 1498.2,1289.17 1499.52,1289.32 1500.83,1289.11 1502.15,1288.57 1503.47,1287.71 1504.79,1286.55 1506.11,1285.1 1507.43,1283.36 1508.75,1281.35 
  1510.07,1279.06 1511.38,1276.51 1512.7,1273.69 1514.02,1270.61 1515.34,1267.27 1516.66,1263.66 1517.98,1259.79 1519.3,1255.65 1520.62,1251.23 1521.94,1246.52 
  1523.25,1241.54 1524.57,1236.25 1525.89,1230.67 1527.21,1224.78 1528.53,1218.57 1529.85,1212.04 1531.17,1205.16 1532.49,1197.95 1533.8,1190.37 1535.12,1182.42 
  1536.44,1174.08 1537.76,1165.35 1539.08,1156.21 1540.4,1146.65 1541.72,1136.64 1543.04,1126.18 1544.35,1115.24 1545.67,1103.81 1546.99,1091.88 1548.31,1079.41 
  1549.63,1066.4 1550.95,1052.83 1552.27,1038.67 1553.59,1023.9 1554.9,1008.5 1556.22,992.454 1557.54,975.737 1558.86,958.326 1560.18,940.2 1561.5,921.336 
  1562.82,901.711 1564.14,881.308 1565.45,860.116 1566.77,838.102 1568.09,815.238 1569.41,791.499 1570.73,766.871 1572.05,741.342 1573.37,714.907 1574.69,687.569 
  1576,659.335 1577.32,630.22 1578.64,600.244 1579.96,569.434 1581.28,537.822 1582.6,505.461 1583.92,472.52 1585.24,439.026 1586.55,405.031 1587.87,370.678 
  1589.19,336.194 1590.51,301.891 1591.83,268.169 1593.15,235.513 1594.47,204.493 1595.79,175.767 1597.1,150.077 1598.42,128.253 1599.74,111.209 1601.06,99.9463 
  1602.38,95.5501 1603.7,99.2561 1605.02,112.43 1606.34,136.027 1607.65,170.508 1608.97,215.842 1610.29,271.504 1611.61,336.523 1612.93,408.92 1614.25,485.959 
  1615.57,565.07 1616.89,643.882 1618.2,720.217 1619.52,792.096 1620.84,858.113 1622.16,917.824 1623.48,971.085 1624.8,1017.96 1626.12,1058.73 1627.44,1093.88 
  1628.75,1124.11 1630.07,1150.2 1631.39,1172.57 1632.71,1191.72 1634.03,1208.08 1635.35,1222.07 1636.67,1234.02 1637.99,1244.21 1639.3,1252.86 1640.62,1260.18 
  1641.94,1266.38 1643.26,1271.59 1644.58,1275.93 1645.9,1279.52 1647.22,1282.44 1648.54,1284.77 1649.86,1286.55 1651.17,1287.86 1652.49,1288.71 1653.81,1289.16 
  1655.13,1289.23 1656.45,1288.94 1657.77,1288.32 1659.09,1287.38 1660.41,1286.15 1661.72,1284.63 1663.04,1282.83 1664.36,1280.75 1665.68,1278.41 1667,1275.79 
  1668.32,1272.91 1669.64,1269.77 1670.96,1266.36 1672.27,1262.69 1673.59,1258.75 1674.91,1254.54 1676.23,1250.05 1677.55,1245.28 1678.87,1240.22 1680.19,1234.87 
  1681.51,1229.21 1682.82,1223.25 1684.14,1216.96 1685.46,1210.35 1686.78,1203.39 1688.1,1196.08 1689.42,1188.42 1690.74,1180.38 1692.06,1171.95 1693.37,1163.12 
  1694.69,1153.87 1696.01,1144.2 1697.33,1134.08 1698.65,1123.51 1699.97,1112.45 1701.29,1100.9 1702.61,1088.84 1703.92,1076.25 1705.24,1063.1 1706.56,1049.39 
  1707.88,1035.08 1709.2,1020.16 1710.52,1004.61 1711.84,988.404 1713.16,971.52 1714.47,953.937 1715.79,935.632 1717.11,916.584 1718.43,896.77 1719.75,876.17 
  1721.07,854.761 1722.39,832.53 1723.71,809.495 1725.02,785.612 1726.34,760.84 1727.66,735.149 1728.98,708.524 1730.3,680.962 1731.62,652.473 1732.94,623.08 
  1734.26,592.818 1735.57,561.735 1736.89,529.892 1738.21,497.365 1739.53,464.238 1740.85,430.612 1742.17,396.6 1743.49,362.331 1744.81,328.03 1746.12,293.999 
  1747.44,260.629 1748.76,228.406 1750.08,197.913 1751.4,169.827 1752.72,144.923 1754.04,124.069 1755.36,108.23 1756.67,98.4688 1757.99,95.9399 1759.31,101.887 
  1760.63,117.448 1761.95,143.571 1763.27,180.692 1764.59,228.651 1765.91,286.689 1767.23,353.448 1768.54,427.033 1769.86,505.071 1771.18,584.604 1772.5,663.059 
  1773.82,738.347 1775.14,808.861 1776.46,873.478 1777.78,931.518 1779.09,982.999 1780.41,1028.26 1781.73,1067.72 1783.05,1101.84 1784.37,1131.14 1785.69,1156.22 
  1787.01,1177.72 1788.33,1196.14 1789.64,1211.89 1790.96,1225.33 1792.28,1236.81 1793.6,1246.61 1794.92,1254.95 1796.24,1262.03 1797.56,1268 1798.88,1272.98 
  1800.19,1277.13 1801.51,1280.54 1802.83,1283.3 1804.15,1285.48 1805.47,1287.14 1806.79,1288.32 1808.11,1289.07 1809.43,1289.42 1810.74,1289.41 1812.06,1289.04 
  1813.38,1288.34 1814.7,1287.33 1816.02,1286.02 1817.34,1284.43 1818.66,1282.55 1819.98,1280.41 1821.29,1278 1822.61,1275.32 1823.93,1272.39 1825.25,1269.18 
  1826.57,1265.72 1827.89,1261.98 1829.21,1257.98 1830.53,1253.7 1831.84,1249.15 1833.16,1244.31 1834.48,1239.19 1835.8,1233.77 1837.12,1228.04 1838.44,1222 
  1839.76,1215.64 1841.08,1208.95 1842.39,1201.92 1843.71,1194.53 1845.03,1186.78 1846.35,1178.66 1847.67,1170.14 1848.99,1161.22 1850.31,1151.88 1851.63,1142.11 
  1852.94,1131.89 1854.26,1121.21 1855.58,1110.04 1856.9,1098.38 1858.22,1086.2 1859.54,1073.48 1860.86,1060.21 1862.18,1046.36 1863.49,1031.92 1864.81,1016.86 
  1866.13,1001.17 1867.45,984.81 1868.77,967.775 1870.09,950.035 1871.41,931.566 1872.73,912.346 1874.04,892.353 1875.36,871.565 1876.68,849.964 1878,827.529 
  1879.32,804.243 1880.64,780.089 1881.96,755.053 1883.28,729.142 1884.59,702.473 1885.91,674.968 1887.23,646.545 1888.55,617.158 1889.87,586.796 1891.19,555.486 
  1892.51,523.291 1893.83,490.309 1895.15,456.674 1896.46,422.557 1897.78,388.166 1899.1,353.744 1900.42,319.568 1901.74,285.956 1903.06,253.258 1904.38,221.862 
  1905.7,192.191 1907.01,164.721 1908.33,140.316 1909.65,120.191 1910.97,105.521 1912.29,97.4293 1913.61,96.984 1914.93,105.201 1916.25,123.043 1917.56,151.417 
  1918.88,191.238 1920.2,242.024 1921.52,302.298 1922.84,370.371 1924.16,444.338 1925.48,522.078 1926.8,601.258 1928.11,679.332 1929.43,753.69 1930.75,823.01 
  1932.07,886.502 1933.39,943.611 1934.71,994.085 1936.03,1037.97 1937.35,1075.62 1938.66,1107.67 1939.98,1135.09 1941.3,1159.09 1942.62,1179.98 1943.94,1197.85 
  1945.26,1213.14 1946.58,1226.2 1947.9,1237.35 1949.21,1246.87 1950.53,1254.96 1951.85,1261.8 1953.17,1267.58 1954.49,1272.43 1955.81,1276.45 1957.13,1279.75 
  1958.45,1282.41 1959.76,1284.5 1961.08,1286.08 1962.4,1287.19 1963.72,1287.86 1965.04,1288.15 1966.36,1288.06 1967.68,1287.63 1969,1286.87 1970.31,1285.79 
  1971.63,1284.42 1972.95,1282.76 1974.27,1280.82 1975.59,1278.61 1976.91,1276.13 1978.23,1273.39 1979.55,1270.38 1980.86,1267.1 1982.18,1263.56 1983.5,1259.75 
  1984.82,1255.66 1986.14,1251.3 1987.46,1246.66 1988.78,1241.73 1990.1,1236.5 1991.41,1230.99 1992.73,1225.16 1994.05,1219.01 1995.37,1212.54 1996.69,1205.74 
  1998.01,1198.59 1999.33,1191.08 2000.65,1183.2 2001.96,1174.94 2003.28,1166.29 2004.6,1157.23 2005.92,1147.74 2007.24,1137.82 2008.56,1127.44 2009.88,1116.59 
  2011.2,1105.25 2012.51,1093.41 2013.83,1081.05 2015.15,1068.14 2016.47,1054.67 2017.79,1040.63 2019.11,1025.98 2020.43,1010.7 2021.75,994.787 2023.07,978.204 
  2024.38,960.933 2025.7,942.956 2027.02,924.247 2028.34,904.783 2029.66,884.538 2030.98,863.492 2032.3,841.625 2033.62,818.921 2034.93,795.362 2036.25,770.936 
  2037.57,745.632 2038.89,719.44 2040.21,692.353 2041.53,664.405 2042.85,635.725 2044.17,606.225 2045.48,575.84 2046.8,544.552 2048.12,512.392 2049.44,479.442 
  2050.76,445.831 2052.08,411.739 2053.4,377.394 2054.72,343.073 2056.03,309.103 2057.35,275.861 2058.67,243.771 2059.99,213.307 2061.31,184.993 2062.63,159.401 
  2063.95,137.168 2065.27,119.338 2066.58,107.292 2067.9,102.28 2069.22,105.405 2070.54,117.62 2071.86,139.729 2073.18,172.385 2074.5,216.121 2075.82,270.407 
  2077.13,333.575 2078.45,403.756 2079.77,478.908 2081.09,556.809 2082.41,635.063 2083.73,711.097 2085.05,782.851 2086.37,849.334 2087.68,909.787 2089,963.778 
  2090.32,1011.2 2091.64,1052.28 2092.96,1087.58 2094.28,1117.96 2095.6,1144.49 2096.92,1167.35 2098.23,1186.93 2099.55,1203.69 2100.87,1218.02 2102.19,1230.28 
  2103.51,1240.74 2104.83,1249.62 2106.15,1257.18 2107.47,1263.57 2108.78,1268.95 2110.1,1273.45 2111.42,1277.17 2112.74,1280.21 2114.06,1282.64 2115.38,1284.53 
  2116.7,1285.91 2118.02,1286.84 2119.33,1287.35 2120.65,1287.47 2121.97,1287.23 2123.29,1286.65 2124.61,1285.76 2125.93,1284.55 2127.25,1283.06 2128.57,1281.27 
  2129.88,1279.22 2131.2,1276.89 2132.52,1274.29 2133.84,1271.42 2135.16,1268.28 2136.48,1264.88 2137.8,1261.21 2139.12,1257.26 2140.44,1253.04 2141.75,1248.55 
  2143.07,1243.77 2144.39,1238.7 2145.71,1233.34 2147.03,1227.67 2148.35,1221.68 2149.67,1215.38 2150.99,1208.75 2152.3,1201.77 2153.62,1194.44 2154.94,1186.75 
  2156.26,1178.68 2157.58,1170.23 2158.9,1161.37 2160.22,1152.1 2161.54,1142.39 2162.85,1132.24 2164.17,1121.63 2165.49,1110.54 2166.81,1098.96 2168.13,1086.86 
  2169.45,1074.23 2170.77,1061.04 2172.09,1047.29 2173.4,1032.95 2174.72,1017.99 2176.04,1002.4 2177.36,986.157 2178.68,969.237 2180,951.618 2181.32,933.277 
  2182.64,914.192 2183.95,894.343 2185.27,873.708 2186.59,852.268 2187.91,830.005 2189.23,806.899 2190.55,782.934 2191.87,758.13 2193.19,732.524 2194.5,706.048 
  2195.82,678.654 2197.14,650.316 2198.46,621.036 2199.78,590.84 2201.1,559.776 2202.42,527.92 2203.74,495.372 2205.05,462.254 2206.37,428.715 2207.69,394.929 
  2209.01,361.094 2210.33,327.432 2211.65,294.19 2212.97,261.641 2214.29,230.128 2215.6,200.315 2216.92,173.008 2218.24,149.066 2219.56,129.398 2220.88,114.966 
  2222.2,106.782 2223.52,105.914 2224.84,113.476 2226.15,130.64 2227.47,158.422 2228.79,197.013 2230.11,246.017 2231.43,304.55 2232.75,371.237 2234.07,444.212 
  2235.39,521.12 2236.7,599.258 2238.02,676.345 2239.34,750.207 2240.66,819.179 2241.98,882.162 2243.3,938.626 2244.62,988.609 2245.94,1032.6 2247.25,1070.9 
  2248.57,1104.06 2249.89,1132.66 2251.21,1157.25 2252.53,1178.31 2253.85,1196.31 2255.17,1211.69 2256.49,1224.83 2257.8,1236.05 2259.12,1245.61 2260.44,1253.76 
  2261.76,1260.67 2263.08,1266.52 2264.4,1271.43 2265.72,1275.5 2267.04,1278.85 2268.36,1281.55 2269.67,1283.67 2270.99,1285.27 2272.31,1286.39 2273.63,1287.09 
  2274.95,1287.38 2276.27,1287.31 2277.59,1286.89 2278.91,1286.14 2280.22,1285.08 2281.54,1283.71 2282.86,1282.06 2284.18,1280.12 2285.5,1277.91 2286.82,1275.43 
  2288.14,1272.68 2289.46,1269.67 2290.77,1266.39 2292.09,1262.84 2293.41,1259.02 2294.73,1254.93 2296.05,1250.56 2297.37,1245.91 2298.69,1240.97 2300.01,1235.74 
  2301.32,1230.2 2302.64,1224.36 2303.96,1218.2 2305.28,1211.72 2306.6,1204.9 2307.92,1197.73 2309.24,1190.2 2310.56,1182.31 2311.87,1174.03 2313.19,1165.36 
  2314.51,1156.27 2315.83,1146.76 2317.15,1136.82 2318.47,1126.42 2319.79,1115.54 2321.11,1104.18 2322.42,1092.31 2323.74,1079.92 2325.06,1066.99 2326.38,1053.49 
  2327.7,1039.41 2329.02,1024.73 2330.34,1009.43 2331.66,993.479 2332.97,976.865 2334.29,959.563 2335.61,941.55 2336.93,922.807 2338.25,903.315 2339.57,883.047 
  2340.89,861.978 2342.21,840.087 2343.52,817.355 2344.84,793.768 2346.16,769.313 2347.48,743.981 2348.8,717.766 2350.12,690.666 2351.44,662.68 2352.76,633.812 
  
  "/>
<polyline clip-path="url(#clip752)" style="stroke:#e26f46; stroke-linecap:butt; stroke-linejoin:round; stroke-width:4; stroke-opacity:1; fill:none" points="
  112.177,1277.35 113.496,1285.71 114.815,1293.48 116.133,1300.71 117.452,1307.44 118.771,1313.68 120.09,1319.49 121.409,1324.88 122.727,1329.89 124.046,1334.55 
  125.365,1338.87 126.684,1342.88 128.002,1346.6 129.321,1350.06 130.64,1353.26 131.959,1356.23 133.277,1358.98 134.596,1361.53 135.915,1363.9 137.234,1366.08 
  138.552,1368.1 139.871,1369.96 141.19,1371.67 142.509,1373.25 143.827,1374.7 145.146,1376.03 146.465,1377.24 147.784,1378.35 149.103,1379.34 150.421,1380.24 
  151.74,1381.04 153.059,1381.75 154.378,1382.37 155.696,1382.9 157.015,1383.34 158.334,1383.7 159.653,1383.97 160.971,1384.15 162.29,1384.24 163.609,1384.24 
  164.928,1384.14 166.246,1383.94 167.565,1383.62 168.884,1383.2 170.203,1382.66 171.522,1381.99 172.84,1381.17 174.159,1380.18 175.478,1379.01 176.797,1377.62 
  178.115,1376 179.434,1374.09 180.753,1371.87 182.072,1369.25 183.39,1366.16 184.709,1362.59 186.028,1358.48 187.347,1353.72 188.665,1348.19 189.984,1341.72 
  191.303,1334.1 192.622,1325.09 193.94,1314.41 195.259,1301.73 196.578,1286.71 197.897,1268.96 199.216,1248.05 200.534,1223.51 201.853,1194.61 203.172,1160.77 
  204.491,1121.62 205.809,1077.02 207.128,1027.07 208.447,972.073 209.766,912.567 211.084,849.987 212.403,786.749 213.722,725.218 215.041,667.641 216.359,616.149 
  217.678,572.76 218.997,539.305 220.316,516.398 221.635,503.839 222.953,501.179 224.272,507.678 225.591,522.3 226.91,543.717 228.228,570.308 229.547,600.244 
  230.866,632.718 232.185,667.022 233.503,702.378 234.822,738.132 236.141,773.752 237.46,808.829 238.778,843.065 240.097,876.211 241.416,908.121 242.735,938.69 
  244.053,967.845 245.372,995.54 246.691,1021.76 248.01,1046.52 249.329,1069.87 250.647,1091.83 251.966,1112.46 253.285,1131.81 254.604,1149.94 255.922,1166.9 
  257.241,1182.75 258.56,1197.55 259.879,1211.37 261.197,1224.25 262.516,1236.27 263.835,1247.46 265.154,1257.89 266.472,1267.59 267.791,1276.63 269.11,1285.03 
  270.429,1292.84 271.748,1300.11 273.066,1306.87 274.385,1313.15 275.704,1318.98 277.023,1324.41 278.341,1329.44 279.66,1334.12 280.979,1338.46 282.298,1342.5 
  283.616,1346.24 284.935,1349.72 286.254,1352.94 287.573,1355.93 288.891,1358.7 290.21,1361.26 291.529,1363.64 292.848,1365.83 294.167,1367.86 295.485,1369.73 
  296.804,1371.45 298.123,1373.04 299.442,1374.5 300.76,1375.84 302.079,1377.06 303.398,1378.17 304.717,1379.18 306.035,1380.08 307.354,1380.89 308.673,1381.6 
  309.992,1382.22 311.31,1382.76 312.629,1383.2 313.948,1383.56 315.267,1383.84 316.585,1384.02 317.904,1384.12 319.223,1384.12 320.542,1384.02 321.861,1383.83 
  323.179,1383.51 324.498,1383.06 325.817,1382.49 327.136,1381.79 328.454,1380.95 329.773,1379.96 331.092,1378.81 332.411,1377.45 333.729,1375.86 335.048,1373.99 
  336.367,1371.8 337.686,1369.23 339.004,1366.22 340.323,1362.71 341.642,1358.62 342.961,1353.85 344.28,1348.3 345.598,1341.79 346.917,1334.14 348.236,1325.12 
  349.555,1314.43 350.873,1301.77 352.192,1286.78 353.511,1269.05 354.83,1248.15 356.148,1223.58 357.467,1194.83 358.786,1161.33 360.105,1122.55 361.423,1078.2 
  362.742,1028.29 364.061,973.287 365.38,914.094 366.698,852.062 368.017,788.976 369.336,727.049 370.655,669.096 371.974,617.568 373.292,574.363 374.611,540.826 
  375.93,517.749 377.249,505.379 378.567,503.028 379.886,509.524 381.205,523.673 382.524,544.268 383.842,570.084 385.161,599.88 386.48,632.404 387.799,666.644 
  389.117,701.922 390.436,737.622 391.755,773.224 393.074,808.306 394.393,842.54 395.711,875.695 397.03,907.621 398.349,938.194 399.668,967.354 400.986,995.066 
  402.305,1021.32 403.624,1046.11 404.943,1069.48 406.261,1091.45 407.58,1112.1 408.899,1131.47 410.218,1149.61 411.536,1166.59 412.855,1182.46 414.174,1197.28 
  415.493,1211.12 416.811,1224.02 418.13,1236.04 419.449,1247.25 420.768,1257.68 422.087,1267.4 423.405,1276.45 424.724,1284.86 426.043,1292.68 427.362,1299.96 
  428.68,1306.73 429.999,1313.02 431.318,1318.86 432.637,1324.29 433.955,1329.33 435.274,1334.02 436.593,1338.37 437.912,1342.41 439.23,1346.15 440.549,1349.63 
  441.868,1352.86 443.187,1355.85 444.506,1358.63 445.824,1361.2 447.143,1363.58 448.462,1365.77 449.781,1367.8 451.099,1369.68 452.418,1371.41 453.737,1372.99 
  455.056,1374.45 456.374,1375.79 457.693,1377.01 459.012,1378.13 460.331,1379.13 461.649,1380.04 462.968,1380.85 464.287,1381.57 465.606,1382.19 466.924,1382.72 
  468.243,1383.17 469.562,1383.53 470.881,1383.8 472.2,1383.99 473.518,1384.09 474.837,1384.09 476.156,1384 477.475,1383.8 478.793,1383.5 480.112,1383.08 
  481.431,1382.48 482.75,1381.72 484.068,1380.81 485.387,1379.75 486.706,1378.54 488.025,1377.16 489.343,1375.57 490.662,1373.74 491.981,1371.61 493.3,1369.12 
  494.619,1366.19 495.937,1362.75 497.256,1358.69 498.575,1353.9 499.894,1348.27 501.212,1341.67 502.531,1333.95 503.85,1325.01 505.169,1314.52 506.487,1302.03 
  507.806,1287.12 509.125,1269.33 510.444,1248.24 511.762,1223.42 513.081,1194.43 514.4,1160.86 515.719,1122.29 517.037,1078.29 518.356,1028.44 519.675,973.034 
  520.994,913.531 522.313,851.595 523.631,789.068 524.95,727.967 526.269,670.481 527.588,618.976 528.906,575.651 530.225,541.813 531.544,518.338 532.863,505.503 
  534.181,502.974 535.5,509.81 536.819,524.463 538.138,545.116 539.456,570.822 540.775,600.403 542.094,632.78 543.413,667.015 544.732,702.313 546.05,738.02 
  547.369,773.597 548.688,808.629 550.007,842.832 551.325,875.98 552.644,907.895 553.963,938.453 555.282,967.579 556.6,995.252 557.919,1021.47 559.238,1046.25 
  560.557,1069.6 561.875,1091.58 563.194,1112.23 564.513,1131.58 565.832,1149.71 567.15,1166.67 568.469,1182.53 569.788,1197.34 571.107,1211.17 572.426,1224.06 
  573.744,1236.08 575.063,1247.29 576.382,1257.72 577.701,1267.43 579.019,1276.47 580.338,1284.88 581.657,1292.7 582.976,1299.97 584.294,1306.73 585.613,1313.02 
  586.932,1318.86 588.251,1324.29 589.569,1329.33 590.888,1334.01 592.207,1338.36 593.526,1342.4 594.845,1346.15 596.163,1349.63 597.482,1352.85 598.801,1355.84 
  600.12,1358.61 601.438,1361.18 602.757,1363.55 604.076,1365.75 605.395,1367.78 606.713,1369.66 608.032,1371.39 609.351,1372.98 610.67,1374.44 611.988,1375.78 
  613.307,1377 614.626,1378.11 615.945,1379.11 617.263,1380.02 618.582,1380.83 619.901,1381.54 621.22,1382.16 622.539,1382.7 623.857,1383.14 625.176,1383.5 
  626.495,1383.77 627.814,1383.96 629.132,1384.05 630.451,1384.04 631.77,1383.94 633.089,1383.74 634.407,1383.44 635.726,1383.02 637.045,1382.48 638.364,1381.81 
  639.682,1380.99 641.001,1379.99 642.32,1378.81 643.639,1377.41 644.958,1375.78 646.276,1373.85 647.595,1371.51 648.914,1368.77 650.233,1365.64 651.551,1362.07 
  652.87,1357.98 654.189,1353.27 655.508,1347.79 656.826,1341.36 658.145,1333.75 659.464,1324.73 660.783,1314 662.101,1301.25 663.42,1286.1 664.739,1268.17 
  666.058,1247.03 667.376,1222.22 668.695,1193.23 670.014,1159.53 671.333,1120.59 672.652,1076.09 673.97,1026.13 675.289,971.196 676.608,912.147 677.927,850.232 
  679.245,787.221 680.564,725.838 681.883,668.635 683.202,617.787 684.52,575.091 685.839,541.966 687.158,519.424 688.477,507.46 689.795,505.257 691.114,511.85 
  692.433,526.159 693.752,546.978 695.071,572.985 696.389,602.739 697.708,635.052 699.027,669.156 700.346,704.315 701.664,739.896 702.983,775.374 704.302,810.325 
  705.621,844.428 706.939,877.465 708.258,909.264 709.577,939.72 710.896,968.769 712.214,996.37 713.533,1022.51 714.852,1047.2 716.171,1070.47 717.489,1092.37 
  718.808,1112.94 720.127,1132.23 721.446,1150.31 722.765,1167.22 724.083,1183.03 725.402,1197.8 726.721,1211.58 728.04,1224.43 729.358,1236.41 730.677,1247.58 
  731.996,1257.98 733.315,1267.67 734.633,1276.68 735.952,1285.07 737.271,1292.86 738.59,1300.12 739.908,1306.86 741.227,1313.13 742.546,1318.96 743.865,1324.37 
  745.184,1329.4 746.502,1334.07 747.821,1338.4 749.14,1342.43 750.459,1346.17 751.777,1349.64 753.096,1352.86 754.415,1355.84 755.734,1358.61 757.052,1361.17 
  758.371,1363.54 759.69,1365.73 761.009,1367.75 762.327,1369.62 763.646,1371.34 764.965,1372.92 766.284,1374.38 767.603,1375.71 768.921,1376.93 770.24,1378.04 
  771.559,1379.04 772.878,1379.94 774.196,1380.74 775.515,1381.45 776.834,1382.07 778.153,1382.6 779.471,1383.04 780.79,1383.39 782.109,1383.66 783.428,1383.83 
  784.746,1383.92 786.065,1383.91 787.384,1383.81 788.703,1383.6 790.021,1383.27 791.34,1382.8 792.659,1382.21 793.978,1381.49 795.297,1380.63 796.615,1379.61 
  797.934,1378.43 799.253,1377.04 800.572,1375.41 801.89,1373.51 803.209,1371.28 804.528,1368.66 805.847,1365.59 807.165,1362 808.484,1357.82 809.803,1352.95 
  811.122,1347.28 812.44,1340.65 813.759,1332.85 815.078,1323.63 816.397,1312.72 817.716,1299.8 819.034,1284.5 820.353,1266.41 821.672,1245.11 822.991,1220.11 
  824.309,1190.89 825.628,1156.89 826.947,1117.58 828.266,1072.72 829.584,1022.37 830.903,967.053 832.222,907.721 833.541,845.773 834.859,783.045 836.178,721.748 
  837.497,664.657 838.816,614.198 840.134,572.215 841.453,539.975 842.772,518.165 844.091,506.939 845.41,505.628 846.728,512.999 848.047,527.822 849.366,548.883 
  850.685,574.98 852.003,604.926 853.322,637.549 854.641,671.804 855.96,707.012 857.278,742.583 858.597,778.015 859.916,812.898 861.235,846.915 862.553,879.839 
  863.872,911.53 865.191,941.869 866.51,970.796 867.829,998.283 869.147,1024.32 870.466,1048.91 871.785,1072.08 873.104,1093.87 874.422,1114.34 875.741,1133.53 
  877.06,1151.52 878.379,1168.35 879.697,1184.08 881.016,1198.78 882.335,1212.49 883.654,1225.28 884.972,1237.2 886.291,1248.31 887.61,1258.66 888.929,1268.29 
  890.247,1277.26 891.566,1285.6 892.885,1293.36 894.204,1300.58 895.523,1307.29 896.841,1313.52 898.16,1319.32 899.479,1324.71 900.798,1329.71 902.116,1334.35 
  903.435,1338.67 904.754,1342.67 906.073,1346.39 907.391,1349.84 908.71,1353.04 910.029,1356.01 911.348,1358.76 912.666,1361.31 913.985,1363.67 915.304,1365.85 
  916.623,1367.86 917.942,1369.72 919.26,1371.43 920.579,1373 921.898,1374.45 923.217,1375.77 924.535,1376.98 925.854,1378.08 927.173,1379.07 928.492,1379.97 
  929.81,1380.76 931.129,1381.47 932.448,1382.08 933.767,1382.6 935.085,1383.03 936.404,1383.38 937.723,1383.63 939.042,1383.8 940.36,1383.88 941.679,1383.87 
  942.998,1383.76 944.317,1383.54 945.636,1383.21 946.954,1382.77 948.273,1382.19 949.592,1381.4 950.911,1380.43 952.229,1379.3 953.548,1378 954.867,1376.53 
  956.186,1374.85 957.504,1372.94 958.823,1370.73 960.142,1368.16 961.461,1365.16 962.779,1361.63 964.098,1357.46 965.417,1352.53 966.736,1346.72 968.055,1339.86 
  969.373,1331.81 970.692,1322.39 972.011,1311.42 973.33,1298.49 974.648,1283.11 975.967,1264.78 977.286,1243.04 978.605,1217.46 979.923,1187.6 981.242,1153.06 
  982.561,1113.45 983.88,1068.39 985.198,1017.53 986.517,961.442 987.836,901.627 989.155,839.756 990.473,777.689 991.792,717.466 993.111,661.309 994.43,611.617 
  995.749,570.35 997.067,538.733 998.386,517.523 999.705,506.869 1001.02,506.305 1002.34,514.758 1003.66,530.541 1004.98,552.126 1006.3,578.535 1007.62,608.585 
  1008.94,641.229 1010.25,675.564 1011.57,710.826 1012.89,746.394 1014.21,781.737 1015.53,816.489 1016.85,850.377 1018.17,883.179 1019.49,914.729 1020.81,944.912 
  1022.12,973.664 1023.44,1000.98 1024.76,1026.84 1026.08,1051.27 1027.4,1074.3 1028.72,1095.96 1030.04,1116.3 1031.36,1135.37 1032.67,1153.23 1033.99,1169.94 
  1035.31,1185.55 1036.63,1200.14 1037.95,1213.76 1039.27,1226.46 1040.59,1238.3 1041.91,1249.33 1043.22,1259.61 1044.54,1269.17 1045.86,1278.07 1047.18,1286.35 
  1048.5,1294.05 1049.82,1301.22 1051.14,1307.88 1052.46,1314.07 1053.77,1319.82 1055.09,1325.17 1056.41,1330.13 1057.73,1334.75 1059.05,1339.03 1060.37,1343.01 
  1061.69,1346.7 1063.01,1350.13 1064.32,1353.3 1065.64,1356.25 1066.96,1358.98 1068.28,1361.5 1069.6,1363.84 1070.92,1366 1072.24,1368 1073.56,1369.85 
  1074.87,1371.55 1076.19,1373.11 1077.51,1374.55 1078.83,1375.86 1080.15,1377.06 1081.47,1378.14 1082.79,1379.12 1084.11,1380.01 1085.42,1380.79 1086.74,1381.48 
  1088.06,1382.09 1089.38,1382.6 1090.7,1383.02 1092.02,1383.36 1093.34,1383.61 1094.66,1383.76 1095.97,1383.83 1097.29,1383.79 1098.61,1383.66 1099.93,1383.43 
  1101.25,1383.09 1102.57,1382.64 1103.89,1382.06 1105.21,1381.34 1106.52,1380.46 1107.84,1379.4 1109.16,1378.15 1110.48,1376.68 1111.8,1374.95 1113.12,1372.87 
  1114.44,1370.38 1115.76,1367.51 1117.07,1364.24 1118.39,1360.51 1119.71,1356.23 1121.03,1351.29 1122.35,1345.53 1123.67,1338.75 1124.99,1330.72 1126.31,1321.2 
  1127.62,1309.87 1128.94,1296.41 1130.26,1280.46 1131.58,1261.62 1132.9,1239.44 1134.22,1213.47 1135.54,1183.19 1136.86,1148.02 1138.17,1107.48 1139.49,1061.44 
  1140.81,1010.13 1142.13,954.115 1143.45,894.331 1144.77,832.065 1146.09,769.649 1147.41,709.713 1148.73,654.575 1150.04,606.249 1151.36,566.438 1152.68,536.538 
  1154,517.311 1155.32,508.296 1156.64,508.71 1157.96,517.612 1159.28,533.904 1160.59,556.326 1161.91,583.463 1163.23,613.849 1164.55,646.601 1165.87,680.93 
  1167.19,716.126 1168.51,751.582 1169.83,786.804 1171.14,821.401 1172.46,855.091 1173.78,887.67 1175.1,918.983 1176.42,948.943 1177.74,977.49 1179.06,1004.59 
  1180.38,1030.23 1181.69,1054.44 1183.01,1077.25 1184.33,1098.71 1185.65,1118.86 1186.97,1137.75 1188.29,1155.45 1189.61,1172.01 1190.93,1187.48 1192.24,1201.92 
  1193.56,1215.4 1194.88,1227.98 1196.2,1239.71 1197.52,1250.63 1198.84,1260.81 1200.16,1270.28 1201.48,1279.09 1202.79,1287.3 1204.11,1294.92 1205.43,1302.02 
  1206.75,1308.61 1208.07,1314.75 1209.39,1320.44 1210.71,1325.74 1212.03,1330.66 1213.34,1335.22 1214.66,1339.46 1215.98,1343.4 1217.3,1347.06 1218.62,1350.45 
  1219.94,1353.6 1221.26,1356.52 1222.58,1359.22 1223.89,1361.72 1225.21,1364.04 1226.53,1366.18 1227.85,1368.15 1229.17,1369.98 1230.49,1371.66 1231.81,1373.2 
  1233.13,1374.62 1234.44,1375.91 1235.76,1377.1 1237.08,1378.17 1238.4,1379.14 1239.72,1380.01 1241.04,1380.78 1242.36,1381.46 1243.68,1382.05 1244.99,1382.54 
  1246.31,1382.95 1247.63,1383.27 1248.95,1383.51 1250.27,1383.65 1251.59,1383.7 1252.91,1383.66 1254.23,1383.51 1255.54,1383.26 1256.86,1382.87 1258.18,1382.35 
  1259.5,1381.71 1260.82,1380.93 1262.14,1380.01 1263.46,1378.93 1264.78,1377.66 1266.1,1376.17 1267.41,1374.43 1268.73,1372.39 1270.05,1369.99 1271.37,1367.19 
  1272.69,1363.91 1274.01,1360.08 1275.33,1355.62 1276.65,1350.43 1277.96,1344.38 1279.28,1337.29 1280.6,1328.93 1281.92,1319.05 1283.24,1307.35 1284.56,1293.5 
  1285.88,1277.13 1287.2,1257.82 1288.51,1235.11 1289.83,1208.52 1291.15,1177.5 1292.47,1141.5 1293.79,1100.1 1295.11,1053.18 1296.43,1000.97 1297.75,944.166 
  1299.06,883.9 1300.38,821.73 1301.7,759.607 1303.02,700.01 1304.34,645.633 1305.66,598.631 1306.98,560.601 1308.3,532.576 1309.61,515.031 1310.93,507.869 
  1312.25,510.065 1313.57,520.411 1314.89,537.704 1316.21,560.749 1317.53,588.353 1318.85,619.332 1320.16,652.518 1321.48,687.052 1322.8,722.308 1324.12,757.729 
  1325.44,792.849 1326.76,827.295 1328.08,860.786 1329.4,893.133 1330.71,924.208 1332.03,953.91 1333.35,982.195 1334.67,1009.04 1335.99,1034.44 1337.31,1058.41 
  1338.63,1080.99 1339.95,1102.21 1341.26,1122.13 1342.58,1140.81 1343.9,1158.31 1345.22,1174.67 1346.54,1189.97 1347.86,1204.25 1349.18,1217.57 1350.5,1230 
  1351.81,1241.58 1353.13,1252.37 1354.45,1262.42 1355.77,1271.78 1357.09,1280.49 1358.41,1288.59 1359.73,1296.13 1361.05,1303.14 1362.36,1309.65 1363.68,1315.71 
  1365,1321.34 1366.32,1326.57 1367.64,1331.42 1368.96,1335.93 1370.28,1340.12 1371.6,1344.01 1372.91,1347.62 1374.23,1350.97 1375.55,1354.08 1376.87,1356.96 
  1378.19,1359.63 1379.51,1362.1 1380.83,1364.39 1382.15,1366.5 1383.46,1368.45 1384.78,1370.25 1386.1,1371.9 1387.42,1373.42 1388.74,1374.82 1390.06,1376.09 
  1391.38,1377.25 1392.7,1378.31 1394.02,1379.26 1395.33,1380.11 1396.65,1380.87 1397.97,1381.53 1399.29,1382.11 1400.61,1382.59 1401.93,1382.98 1403.25,1383.28 
  1404.57,1383.5 1405.88,1383.63 1407.2,1383.66 1408.52,1383.6 1409.84,1383.44 1411.16,1383.17 1412.48,1382.78 1413.8,1382.28 1415.12,1381.59 1416.43,1380.7 
  1417.75,1379.64 1419.07,1378.41 1420.39,1377.01 1421.71,1375.43 1423.03,1373.62 1424.35,1371.56 1425.67,1369.18 1426.98,1366.4 1428.3,1363.14 1429.62,1359.3 
  1430.94,1354.77 1432.26,1349.41 1433.58,1343.08 1434.9,1335.63 1436.22,1326.88 1437.53,1316.65 1438.85,1304.74 1440.17,1290.66 1441.49,1273.88 1442.81,1253.93 
  1444.13,1230.34 1445.45,1202.68 1446.77,1170.55 1448.08,1133.58 1449.4,1091.43 1450.72,1043.77 1452.04,990.355 1453.36,932.338 1454.68,871.469 1456,809.595 
  1457.32,748.665 1458.63,690.728 1459.95,637.934 1461.27,592.534 1462.59,556.269 1463.91,529.931 1465.23,513.909 1466.55,508.085 1467.87,511.834 1469.18,524.025 
  1470.5,543.019 1471.82,566.993 1473.14,595.116 1474.46,626.341 1475.78,659.705 1477.1,694.378 1478.42,729.665 1479.73,765.008 1481.05,799.963 1482.37,834.173 
  1483.69,867.408 1485.01,899.49 1486.33,930.28 1487.65,959.684 1488.97,987.65 1490.28,1014.17 1491.6,1039.26 1492.92,1062.93 1494.24,1085.22 1495.56,1106.18 
  1496.88,1125.86 1498.2,1144.29 1499.52,1161.55 1500.83,1177.69 1502.15,1192.77 1503.47,1206.85 1504.79,1219.99 1506.11,1232.25 1507.43,1243.67 1508.75,1254.32 
  1510.07,1264.23 1511.38,1273.45 1512.7,1282.04 1514.02,1290.02 1515.34,1297.45 1516.66,1304.36 1517.98,1310.78 1519.3,1316.75 1520.62,1322.3 1521.94,1327.46 
  1523.25,1332.24 1524.57,1336.69 1525.89,1340.82 1527.21,1344.66 1528.53,1348.22 1529.85,1351.52 1531.17,1354.58 1532.49,1357.42 1533.8,1360.05 1535.12,1362.48 
  1536.44,1364.73 1537.76,1366.81 1539.08,1368.73 1540.4,1370.5 1541.72,1372.13 1543.04,1373.63 1544.35,1375 1545.67,1376.26 1546.99,1377.4 1548.31,1378.43 
  1549.63,1379.36 1550.95,1380.19 1552.27,1380.93 1553.59,1381.57 1554.9,1382.12 1556.22,1382.58 1557.54,1382.96 1558.86,1383.25 1560.18,1383.44 1561.5,1383.55 
  1562.82,1383.56 1564.14,1383.47 1565.45,1383.27 1566.77,1382.96 1568.09,1382.53 1569.41,1381.99 1570.73,1381.32 1572.05,1380.5 1573.37,1379.52 1574.69,1378.36 
  1576,1376.98 1577.32,1375.36 1578.64,1373.46 1579.96,1371.24 1581.28,1368.65 1582.6,1365.65 1583.92,1362.11 1585.24,1357.99 1586.55,1353.22 1587.87,1347.67 
  1589.19,1341.18 1590.51,1333.58 1591.83,1324.6 1593.15,1314 1594.47,1301.44 1595.79,1286.57 1597.1,1269.01 1598.42,1248.31 1599.74,1224.01 1601.06,1195.59 
  1602.38,1162.5 1603.7,1124.28 1605.02,1080.6 1606.34,1031.48 1607.65,977.382 1608.97,919.146 1610.29,858.046 1611.61,795.732 1612.93,734.579 1614.25,677.289 
  1615.57,626.14 1616.89,582.959 1618.2,549.132 1619.52,525.596 1620.84,512.605 1622.16,509.404 1623.48,515.001 1624.8,528.318 1626.12,548.19 1627.44,573.367 
  1628.75,602.514 1630.07,634.327 1631.39,667.995 1632.71,702.795 1634.03,738.092 1635.35,773.353 1636.67,808.145 1637.99,842.139 1639.3,875.105 1640.62,906.872 
  1641.94,937.321 1643.26,966.384 1644.58,994.02 1645.9,1020.21 1647.22,1044.96 1648.54,1068.29 1649.86,1090.26 1651.17,1110.9 1652.49,1130.27 1653.81,1148.43 
  1655.13,1165.42 1656.45,1181.3 1657.77,1196.15 1659.09,1210 1660.41,1222.92 1661.72,1234.98 1663.04,1246.21 1664.36,1256.68 1665.68,1266.42 1667,1275.5 
  1668.32,1283.94 1669.64,1291.79 1670.96,1299.09 1672.27,1305.89 1673.59,1312.2 1674.91,1318.07 1676.23,1323.52 1677.55,1328.59 1678.87,1333.29 1680.19,1337.66 
  1681.51,1341.72 1682.82,1345.49 1684.14,1348.99 1685.46,1352.23 1686.78,1355.24 1688.1,1358.03 1689.42,1360.61 1690.74,1363 1692.06,1365.21 1693.37,1367.25 
  1694.69,1369.13 1696.01,1370.87 1697.33,1372.47 1698.65,1373.93 1699.97,1375.28 1701.29,1376.5 1702.61,1377.62 1703.92,1378.63 1705.24,1379.54 1706.56,1380.35 
  1707.88,1381.06 1709.2,1381.68 1710.52,1382.21 1711.84,1382.65 1713.16,1383.01 1714.47,1383.27 1715.79,1383.44 1717.11,1383.53 1718.43,1383.52 1719.75,1383.4 
  1721.07,1383.19 1722.39,1382.86 1723.71,1382.38 1725.02,1381.76 1726.34,1381.01 1727.66,1380.11 1728.98,1379.07 1730.3,1377.85 1731.62,1376.43 1732.94,1374.78 
  1734.26,1372.86 1735.57,1370.6 1736.89,1367.95 1738.21,1364.84 1739.53,1361.2 1740.85,1356.94 1742.17,1351.96 1743.49,1346.18 1744.81,1339.46 1746.12,1331.57 
  1747.44,1322.25 1748.76,1311.2 1750.08,1298.09 1751.4,1282.56 1752.72,1264.21 1754.04,1242.61 1755.36,1217.32 1756.67,1187.83 1757.99,1153.64 1759.31,1114.2 
  1760.63,1069.19 1761.95,1018.77 1763.27,963.529 1764.59,904.469 1765.91,843.012 1767.23,781.005 1768.54,720.667 1769.86,664.414 1771.18,614.781 1772.5,573.698 
  1773.82,542.419 1775.14,521.525 1776.46,510.917 1777.78,510.041 1779.09,517.833 1780.41,532.954 1781.73,554.135 1783.05,580.176 1784.37,609.943 1785.69,642.373 
  1787.01,676.465 1788.33,711.404 1789.64,746.66 1790.96,781.786 1792.28,816.403 1793.6,850.2 1794.92,882.932 1796.24,914.421 1797.56,944.558 1798.88,973.288 
  1800.19,1000.58 1801.51,1026.43 1802.83,1050.85 1804.15,1073.86 1805.47,1095.51 1806.79,1115.84 1808.11,1134.91 1809.43,1152.77 1810.74,1169.49 1812.06,1185.12 
  1813.38,1199.72 1814.7,1213.35 1816.02,1226.06 1817.34,1237.91 1818.66,1248.95 1819.98,1259.23 1821.29,1268.8 1822.61,1277.71 1823.93,1286.01 1825.25,1293.72 
  1826.57,1300.89 1827.89,1307.56 1829.21,1313.76 1830.53,1319.53 1831.84,1324.88 1833.16,1329.86 1834.48,1334.48 1835.8,1338.77 1837.12,1342.75 1838.44,1346.45 
  1839.76,1349.88 1841.08,1353.06 1842.39,1356.01 1843.71,1358.75 1845.03,1361.28 1846.35,1363.63 1847.67,1365.8 1848.99,1367.8 1850.31,1369.65 1851.63,1371.35 
  1852.94,1372.91 1854.26,1374.35 1855.58,1375.66 1856.9,1376.86 1858.22,1377.95 1859.54,1378.93 1860.86,1379.81 1862.18,1380.6 1863.49,1381.29 1864.81,1381.89 
  1866.13,1382.4 1867.45,1382.82 1868.77,1383.15 1870.09,1383.39 1871.41,1383.55 1872.73,1383.61 1874.04,1383.58 1875.36,1383.45 1876.68,1383.21 1878,1382.87 
  1879.32,1382.4 1880.64,1381.8 1881.96,1381.05 1883.28,1380.14 1884.59,1378.96 1885.91,1377.53 1887.23,1375.88 1888.55,1374.01 1889.87,1371.91 1891.19,1369.55 
  1892.51,1366.86 1893.83,1363.76 1895.15,1360.17 1896.46,1355.95 1897.78,1350.97 1899.1,1345.07 1900.42,1338.06 1901.74,1329.75 1903.06,1319.9 1904.38,1308.28 
  1905.7,1294.63 1907.01,1278.65 1908.33,1259.89 1909.65,1237.67 1910.97,1211.41 1912.29,1180.64 1913.61,1145.01 1914.93,1104.27 1916.25,1058.28 1917.56,1007.04 
  1918.88,950.552 1920.2,890.249 1921.52,828.336 1922.84,766.952 1924.16,708.172 1925.48,654 1926.8,606.377 1928.11,567.173 1929.43,538.06 1930.75,519.269 
  1932.07,510.392 1933.39,510.858 1934.71,519.886 1936.03,536.492 1937.35,559.481 1938.66,587.455 1939.98,618.805 1941.3,651.745 1942.62,685.725 1943.94,720.529 
  1945.26,755.593 1946.58,790.441 1947.9,824.689 1949.21,858.042 1950.53,890.298 1951.85,921.323 1953.17,951.004 1954.49,979.295 1955.81,1006.17 1957.13,1031.63 
  1958.45,1055.68 1959.76,1078.33 1961.08,1099.63 1962.4,1119.63 1963.72,1138.4 1965.04,1155.98 1966.36,1172.44 1967.68,1187.82 1969,1202.2 1970.31,1215.61 
  1971.63,1228.13 1972.95,1239.79 1974.27,1250.66 1975.59,1260.79 1976.91,1270.22 1978.23,1279 1979.55,1287.17 1980.86,1294.77 1982.18,1301.84 1983.5,1308.41 
  1984.82,1314.52 1986.14,1320.2 1987.46,1325.48 1988.78,1330.39 1990.1,1334.94 1991.41,1339.18 1992.73,1343.1 1994.05,1346.75 1995.37,1350.13 1996.69,1353.27 
  1998.01,1356.17 1999.33,1358.87 2000.65,1361.37 2001.96,1363.68 2003.28,1365.81 2004.6,1367.79 2005.92,1369.61 2007.24,1371.28 2008.56,1372.82 2009.88,1374.23 
  2011.2,1375.52 2012.51,1376.69 2013.83,1377.75 2015.15,1378.71 2016.47,1379.57 2017.79,1380.33 2019.11,1380.99 2020.43,1381.57 2021.75,1382.05 2023.07,1382.45 
  2024.38,1382.75 2025.7,1382.96 2027.02,1383.08 2028.34,1383.1 2029.66,1383.03 2030.98,1382.86 2032.3,1382.58 2033.62,1382.18 2034.93,1381.66 2036.25,1381 
  2037.57,1380.19 2038.89,1379.21 2040.21,1378.04 2041.53,1376.64 2042.85,1374.91 2044.17,1372.87 2045.48,1370.54 2046.8,1367.89 2048.12,1364.9 2049.44,1361.49 
  2050.76,1357.56 2052.08,1353.01 2053.4,1347.67 2054.72,1341.37 2056.03,1333.91 2057.35,1325.06 2058.67,1314.56 2059.99,1302.13 2061.31,1287.45 2062.63,1270.2 
  2063.95,1250 2065.27,1226.33 2066.58,1198.49 2067.9,1165.97 2069.22,1128.42 2070.54,1085.69 2071.86,1037.8 2073.18,984.986 2074.5,927.629 2075.82,867.129 
  2077.13,805.741 2078.45,745.653 2079.77,688.959 2081.09,637.667 2082.41,593.692 2083.73,558.859 2085.05,534.233 2086.37,519.625 2087.68,514.646 2089,518.662 
  2090.32,530.796 2091.64,549.922 2092.96,574.673 2094.28,603.437 2095.6,634.538 2096.92,667.514 2098.23,701.74 2099.55,736.563 2100.87,771.434 2102.19,805.914 
  2103.51,839.667 2104.83,872.46 2106.15,904.097 2107.47,934.463 2108.78,963.485 2110.1,991.115 2111.42,1017.33 2112.74,1042.11 2114.06,1065.5 2115.38,1087.52 
  2116.7,1108.23 2118.02,1127.68 2119.33,1145.91 2120.65,1162.98 2121.97,1178.96 2123.29,1193.89 2124.61,1207.83 2125.93,1220.84 2127.25,1232.98 2128.57,1244.29 
  2129.88,1254.84 2131.2,1264.66 2132.52,1273.81 2133.84,1282.32 2135.16,1290.24 2136.48,1297.61 2137.8,1304.46 2139.12,1310.84 2140.44,1316.76 2141.75,1322.27 
  2143.07,1327.39 2144.39,1332.14 2145.71,1336.55 2147.03,1340.65 2148.35,1344.46 2149.67,1347.99 2150.99,1351.27 2152.3,1354.31 2153.62,1357.13 2154.94,1359.74 
  2156.26,1362.16 2157.58,1364.4 2158.9,1366.46 2160.22,1368.37 2161.54,1370.12 2162.85,1371.73 2164.17,1373.22 2165.49,1374.57 2166.81,1375.81 2168.13,1376.93 
  2169.45,1377.95 2170.77,1378.87 2172.09,1379.68 2173.4,1380.4 2174.72,1381.03 2176.04,1381.56 2177.36,1381.99 2178.68,1382.34 2180,1382.6 2181.32,1382.77 
  2182.64,1382.84 2183.95,1382.82 2185.27,1382.69 2186.59,1382.46 2187.91,1382.12 2189.23,1381.65 2190.55,1381.05 2191.87,1380.28 2193.19,1379.3 2194.5,1378.12 
  2195.82,1376.75 2197.14,1375.2 2198.46,1373.42 2199.78,1371.4 2201.1,1369.07 2202.42,1366.38 2203.74,1363.24 2205.05,1359.56 2206.37,1355.23 2207.69,1350.13 
  2209.01,1344.11 2210.33,1337.03 2211.65,1328.71 2212.97,1318.98 2214.29,1307.65 2215.6,1294.31 2216.92,1278.48 2218.24,1259.69 2219.56,1237.5 2220.88,1211.49 
  2222.2,1181.23 2223.52,1146.35 2224.84,1106.47 2226.15,1061.24 2227.47,1010.43 2228.79,954.952 2230.11,896.165 2231.43,835.648 2232.75,775.194 2234.07,716.813 
  2235.39,662.733 2236.7,615.273 2238.02,576.095 2239.34,546.448 2240.66,527.002 2241.98,517.802 2243.3,518.27 2244.62,527.206 2245.94,542.968 2247.25,564.527 
  2248.57,590.693 2249.89,620.337 2251.21,652.46 2252.53,686.199 2253.85,720.821 2255.17,755.707 2256.49,790.363 2257.8,824.455 2259.12,857.704 2260.44,889.892 
  2261.76,920.853 2263.08,950.478 2264.4,978.716 2265.72,1005.55 2267.04,1030.97 2268.36,1054.99 2269.67,1077.64 2270.99,1098.95 2272.31,1118.97 2273.63,1137.75 
  2274.95,1155.33 2276.27,1171.79 2277.59,1187.19 2278.91,1201.57 2280.22,1215 2281.54,1227.53 2282.86,1239.22 2284.18,1250.11 2285.5,1260.25 2286.82,1269.7 
  2288.14,1278.49 2289.46,1286.68 2290.77,1294.29 2292.09,1301.37 2293.41,1307.96 2294.73,1314.09 2296.05,1319.78 2297.37,1325.07 2298.69,1329.99 2300.01,1334.56 
  2301.32,1338.8 2302.64,1342.74 2303.96,1346.4 2305.28,1349.79 2306.6,1352.94 2307.92,1355.85 2309.24,1358.55 2310.56,1361.06 2311.87,1363.37 2313.19,1365.51 
  2314.51,1367.49 2315.83,1369.32 2317.15,1371 2318.47,1372.54 2319.79,1373.96 2321.11,1375.25 2322.42,1376.42 2323.74,1377.49 2325.06,1378.45 2326.38,1379.3 
  2327.7,1380.06 2329.02,1380.73 2330.34,1381.3 2331.66,1381.78 2332.97,1382.17 2334.29,1382.47 2335.61,1382.68 2336.93,1382.8 2338.25,1382.81 2339.57,1382.72 
  2340.89,1382.54 2342.21,1382.24 2343.52,1381.83 2344.84,1381.3 2346.16,1380.63 2347.48,1379.8 2348.8,1378.8 2350.12,1377.61 2351.44,1376.21 2352.76,1374.56 
  
  "/>
<path clip-path="url(#clip750)" d="
M1921.43 248.629 L2278.07 248.629 L2278.07 93.1086 L1921.43 93.1086  Z
  " fill="#ffffff" fill-rule="evenodd" fill-opacity="1"/>
<polyline clip-path="url(#clip750)" style="stroke:#000000; stroke-linecap:butt; stroke-linejoin:round; stroke-width:4; stroke-opacity:1; fill:none" points="
  1921.43,248.629 2278.07,248.629 2278.07,93.1086 1921.43,93.1086 1921.43,248.629 
  "/>
<polyline clip-path="url(#clip750)" style="stroke:#009af9; stroke-linecap:butt; stroke-linejoin:round; stroke-width:4; stroke-opacity:1; fill:none" points="
  1946.33,144.949 2095.7,144.949 
  "/>
<path clip-path="url(#clip750)" d="M2120.59 151.997 L2120.59 136.303 L2124.85 136.303 L2124.85 151.835 Q2124.85 155.516 2126.29 157.368 Q2127.72 159.196 2130.59 159.196 Q2134.04 159.196 2136.03 156.997 Q2138.05 154.798 2138.05 151.002 L2138.05 136.303 L2142.31 136.303 L2142.31 162.229 L2138.05 162.229 L2138.05 158.247 Q2136.5 160.608 2134.44 161.766 Q2132.4 162.9 2129.69 162.9 Q2125.22 162.9 2122.91 160.122 Q2120.59 157.344 2120.59 151.997 M2131.31 135.678 L2131.31 135.678 Z" fill="#000000" fill-rule="evenodd" fill-opacity="1" /><path clip-path="url(#clip750)" d="M2152.49 158.293 L2160.13 158.293 L2160.13 131.928 L2151.82 133.595 L2151.82 129.335 L2160.09 127.669 L2164.76 127.669 L2164.76 158.293 L2172.4 158.293 L2172.4 162.229 L2152.49 162.229 L2152.49 158.293 Z" fill="#000000" fill-rule="evenodd" fill-opacity="1" /><path clip-path="url(#clip750)" d="M2191.47 126.257 Q2188.37 131.581 2186.87 136.789 Q2185.36 141.997 2185.36 147.344 Q2185.36 152.692 2186.87 157.946 Q2188.4 163.178 2191.47 168.479 L2187.77 168.479 Q2184.3 163.039 2182.56 157.784 Q2180.85 152.53 2180.85 147.344 Q2180.85 142.182 2182.56 136.951 Q2184.27 131.72 2187.77 126.257 L2191.47 126.257 Z" fill="#000000" fill-rule="evenodd" fill-opacity="1" /><path clip-path="url(#clip750)" d="M2203.95 128.942 L2203.95 136.303 L2212.72 136.303 L2212.72 139.613 L2203.95 139.613 L2203.95 153.687 Q2203.95 156.858 2204.81 157.761 Q2205.69 158.664 2208.35 158.664 L2212.72 158.664 L2212.72 162.229 L2208.35 162.229 Q2203.42 162.229 2201.54 160.4 Q2199.67 158.548 2199.67 153.687 L2199.67 139.613 L2196.54 139.613 L2196.54 136.303 L2199.67 136.303 L2199.67 128.942 L2203.95 128.942 Z" fill="#000000" fill-rule="evenodd" fill-opacity="1" /><path clip-path="url(#clip750)" d="M2217.65 126.257 L2221.36 126.257 Q2224.83 131.72 2226.54 136.951 Q2228.28 142.182 2228.28 147.344 Q2228.28 152.53 2226.54 157.784 Q2224.83 163.039 2221.36 168.479 L2217.65 168.479 Q2220.73 163.178 2222.24 157.946 Q2223.77 152.692 2223.77 147.344 Q2223.77 141.997 2222.24 136.789 Q2220.73 131.581 2217.65 126.257 Z" fill="#000000" fill-rule="evenodd" fill-opacity="1" /><polyline clip-path="url(#clip750)" style="stroke:#e26f46; stroke-linecap:butt; stroke-linejoin:round; stroke-width:4; stroke-opacity:1; fill:none" points="
  1946.33,196.789 2095.7,196.789 
  "/>
<path clip-path="url(#clip750)" d="M2120.59 203.837 L2120.59 188.143 L2124.85 188.143 L2124.85 203.675 Q2124.85 207.356 2126.29 209.208 Q2127.72 211.036 2130.59 211.036 Q2134.04 211.036 2136.03 208.837 Q2138.05 206.638 2138.05 202.842 L2138.05 188.143 L2142.31 188.143 L2142.31 214.069 L2138.05 214.069 L2138.05 210.087 Q2136.5 212.448 2134.44 213.606 Q2132.4 214.74 2129.69 214.74 Q2125.22 214.74 2122.91 211.962 Q2120.59 209.184 2120.59 203.837 M2131.31 187.518 L2131.31 187.518 Z" fill="#000000" fill-rule="evenodd" fill-opacity="1" /><path clip-path="url(#clip750)" d="M2155.71 210.133 L2172.03 210.133 L2172.03 214.069 L2150.09 214.069 L2150.09 210.133 Q2152.75 207.379 2157.33 202.749 Q2161.94 198.096 2163.12 196.754 Q2165.36 194.231 2166.24 192.495 Q2167.15 190.735 2167.15 189.046 Q2167.15 186.291 2165.2 184.555 Q2163.28 182.819 2160.18 182.819 Q2157.98 182.819 2155.53 183.583 Q2153.09 184.347 2150.32 185.897 L2150.32 181.175 Q2153.14 180.041 2155.59 179.462 Q2158.05 178.884 2160.09 178.884 Q2165.46 178.884 2168.65 181.569 Q2171.84 184.254 2171.84 188.745 Q2171.84 190.874 2171.03 192.796 Q2170.25 194.694 2168.14 197.286 Q2167.56 197.958 2164.46 201.175 Q2161.36 204.37 2155.71 210.133 Z" fill="#000000" fill-rule="evenodd" fill-opacity="1" /><path clip-path="url(#clip750)" d="M2191.47 178.097 Q2188.37 183.421 2186.87 188.629 Q2185.36 193.837 2185.36 199.184 Q2185.36 204.532 2186.87 209.786 Q2188.4 215.018 2191.47 220.319 L2187.77 220.319 Q2184.3 214.879 2182.56 209.624 Q2180.85 204.37 2180.85 199.184 Q2180.85 194.022 2182.56 188.791 Q2184.27 183.56 2187.77 178.097 L2191.47 178.097 Z" fill="#000000" fill-rule="evenodd" fill-opacity="1" /><path clip-path="url(#clip750)" d="M2203.95 180.782 L2203.95 188.143 L2212.72 188.143 L2212.72 191.453 L2203.95 191.453 L2203.95 205.527 Q2203.95 208.698 2204.81 209.601 Q2205.69 210.504 2208.35 210.504 L2212.72 210.504 L2212.72 214.069 L2208.35 214.069 Q2203.42 214.069 2201.54 212.24 Q2199.67 210.388 2199.67 205.527 L2199.67 191.453 L2196.54 191.453 L2196.54 188.143 L2199.67 188.143 L2199.67 180.782 L2203.95 180.782 Z" fill="#000000" fill-rule="evenodd" fill-opacity="1" /><path clip-path="url(#clip750)" d="M2217.65 178.097 L2221.36 178.097 Q2224.83 183.56 2226.54 188.791 Q2228.28 194.022 2228.28 199.184 Q2228.28 204.37 2226.54 209.624 Q2224.83 214.879 2221.36 220.319 L2217.65 220.319 Q2220.73 215.018 2222.24 209.786 Q2223.77 204.532 2223.77 199.184 Q2223.77 193.837 2222.24 188.629 Q2220.73 183.421 2217.65 178.097 Z" fill="#000000" fill-rule="evenodd" fill-opacity="1" /></svg>
