<?xml version="1.0" encoding="utf-8"?>
<svg xmlns="http://www.w3.org/2000/svg" xmlns:xlink="http://www.w3.org/1999/xlink" width="600" height="400" viewBox="0 0 2400 1600">
<defs>
  <clipPath id="clip810">
    <rect x="0" y="0" width="2400" height="1600"/>
  </clipPath>
</defs>
<path clip-path="url(#clip810)" d="M0 1600 L2400 1600 L2400 0 L0 0  Z" fill="#ffffff" fill-rule="evenodd" fill-opacity="1"/>
<defs>
  <clipPath id="clip811">
    <rect x="480" y="0" width="1681" height="1600"/>
  </clipPath>
</defs>
<path clip-path="url(#clip810)" d="M156.598 1423.18 L2352.76 1423.18 L2352.76 47.2441 L156.598 47.2441  Z" fill="#ffffff" fill-rule="evenodd" fill-opacity="1"/>
<defs>
  <clipPath id="clip812">
    <rect x="156" y="47" width="2197" height="1377"/>
  </clipPath>
</defs>
<polyline clip-path="url(#clip812)" style="stroke:#000000; stroke-linecap:round; stroke-linejoin:round; stroke-width:2; stroke-opacity:0.1; fill:none" points="156.598,1423.18 156.598,47.2441 "/>
<polyline clip-path="url(#clip812)" style="stroke:#000000; stroke-linecap:round; stroke-linejoin:round; stroke-width:2; stroke-opacity:0.1; fill:none" points="595.83,1423.18 595.83,47.2441 "/>
<polyline clip-path="url(#clip812)" style="stroke:#000000; stroke-linecap:round; stroke-linejoin:round; stroke-width:2; stroke-opacity:0.1; fill:none" points="1035.06,1423.18 1035.06,47.2441 "/>
<polyline clip-path="url(#clip812)" style="stroke:#000000; stroke-linecap:round; stroke-linejoin:round; stroke-width:2; stroke-opacity:0.1; fill:none" points="1474.29,1423.18 1474.29,47.2441 "/>
<polyline clip-path="url(#clip812)" style="stroke:#000000; stroke-linecap:round; stroke-linejoin:round; stroke-width:2; stroke-opacity:0.1; fill:none" points="1913.52,1423.18 1913.52,47.2441 "/>
<polyline clip-path="url(#clip812)" style="stroke:#000000; stroke-linecap:round; stroke-linejoin:round; stroke-width:2; stroke-opacity:0.1; fill:none" points="2352.76,1423.18 2352.76,47.2441 "/>
<polyline clip-path="url(#clip810)" style="stroke:#000000; stroke-linecap:round; stroke-linejoin:round; stroke-width:4; stroke-opacity:1; fill:none" points="156.598,1423.18 2352.76,1423.18 "/>
<polyline clip-path="url(#clip810)" style="stroke:#000000; stroke-linecap:round; stroke-linejoin:round; stroke-width:4; stroke-opacity:1; fill:none" points="156.598,1423.18 156.598,1404.28 "/>
<polyline clip-path="url(#clip810)" style="stroke:#000000; stroke-linecap:round; stroke-linejoin:round; stroke-width:4; stroke-opacity:1; fill:none" points="595.83,1423.18 595.83,1404.28 "/>
<polyline clip-path="url(#clip810)" style="stroke:#000000; stroke-linecap:round; stroke-linejoin:round; stroke-width:4; stroke-opacity:1; fill:none" points="1035.06,1423.18 1035.06,1404.28 "/>
<polyline clip-path="url(#clip810)" style="stroke:#000000; stroke-linecap:round; stroke-linejoin:round; stroke-width:4; stroke-opacity:1; fill:none" points="1474.29,1423.18 1474.29,1404.28 "/>
<polyline clip-path="url(#clip810)" style="stroke:#000000; stroke-linecap:round; stroke-linejoin:round; stroke-width:4; stroke-opacity:1; fill:none" points="1913.52,1423.18 1913.52,1404.28 "/>
<polyline clip-path="url(#clip810)" style="stroke:#000000; stroke-linecap:round; stroke-linejoin:round; stroke-width:4; stroke-opacity:1; fill:none" points="2352.76,1423.18 2352.76,1404.28 "/>
<path clip-path="url(#clip810)" d="M156.598 1454.1 Q152.987 1454.1 151.158 1457.66 Q149.353 1461.2 149.353 1468.33 Q149.353 1475.44 151.158 1479.01 Q152.987 1482.55 156.598 1482.55 Q160.232 1482.55 162.038 1479.01 Q163.867 1475.44 163.867 1468.33 Q163.867 1461.2 162.038 1457.66 Q160.232 1454.1 156.598 1454.1 M156.598 1450.39 Q162.408 1450.39 165.464 1455 Q168.543 1459.58 168.543 1468.33 Q168.543 1477.06 165.464 1481.67 Q162.408 1486.25 156.598 1486.25 Q150.788 1486.25 147.709 1481.67 Q144.654 1477.06 144.654 1468.33 Q144.654 1459.58 147.709 1455 Q150.788 1450.39 156.598 1450.39 Z" fill="#000000" fill-rule="nonzero" fill-opacity="1" /><path clip-path="url(#clip810)" d="M570.517 1481.64 L578.156 1481.64 L578.156 1455.28 L569.846 1456.95 L569.846 1452.69 L578.11 1451.02 L582.786 1451.02 L582.786 1481.64 L590.425 1481.64 L590.425 1485.58 L570.517 1485.58 L570.517 1481.64 Z" fill="#000000" fill-rule="nonzero" fill-opacity="1" /><path clip-path="url(#clip810)" d="M609.869 1454.1 Q606.258 1454.1 604.429 1457.66 Q602.624 1461.2 602.624 1468.33 Q602.624 1475.44 604.429 1479.01 Q606.258 1482.55 609.869 1482.55 Q613.503 1482.55 615.309 1479.01 Q617.138 1475.44 617.138 1468.33 Q617.138 1461.2 615.309 1457.66 Q613.503 1454.1 609.869 1454.1 M609.869 1450.39 Q615.679 1450.39 618.735 1455 Q621.813 1459.58 621.813 1468.33 Q621.813 1477.06 618.735 1481.67 Q615.679 1486.25 609.869 1486.25 Q604.059 1486.25 600.98 1481.67 Q597.925 1477.06 597.925 1468.33 Q597.925 1459.58 600.98 1455 Q604.059 1450.39 609.869 1450.39 Z" fill="#000000" fill-rule="nonzero" fill-opacity="1" /><path clip-path="url(#clip810)" d="M1013.83 1481.64 L1030.15 1481.64 L1030.15 1485.58 L1008.21 1485.58 L1008.21 1481.64 Q1010.87 1478.89 1015.45 1474.26 Q1020.06 1469.61 1021.24 1468.27 Q1023.49 1465.74 1024.37 1464.01 Q1025.27 1462.25 1025.27 1460.56 Q1025.27 1457.8 1023.33 1456.07 Q1021.4 1454.33 1018.3 1454.33 Q1016.1 1454.33 1013.65 1455.09 Q1011.22 1455.86 1008.44 1457.41 L1008.44 1452.69 Q1011.27 1451.55 1013.72 1450.97 Q1016.17 1450.39 1018.21 1450.39 Q1023.58 1450.39 1026.77 1453.08 Q1029.97 1455.77 1029.97 1460.26 Q1029.97 1462.39 1029.16 1464.31 Q1028.37 1466.2 1026.27 1468.8 Q1025.69 1469.47 1022.58 1472.69 Q1019.48 1475.88 1013.83 1481.64 Z" fill="#000000" fill-rule="nonzero" fill-opacity="1" /><path clip-path="url(#clip810)" d="M1049.97 1454.1 Q1046.36 1454.1 1044.53 1457.66 Q1042.72 1461.2 1042.72 1468.33 Q1042.72 1475.44 1044.53 1479.01 Q1046.36 1482.55 1049.97 1482.55 Q1053.6 1482.55 1055.41 1479.01 Q1057.24 1475.44 1057.24 1468.33 Q1057.24 1461.2 1055.41 1457.66 Q1053.6 1454.1 1049.97 1454.1 M1049.97 1450.39 Q1055.78 1450.39 1058.83 1455 Q1061.91 1459.58 1061.91 1468.33 Q1061.91 1477.06 1058.83 1481.67 Q1055.78 1486.25 1049.97 1486.25 Q1044.16 1486.25 1041.08 1481.67 Q1038.02 1477.06 1038.02 1468.33 Q1038.02 1459.58 1041.08 1455 Q1044.16 1450.39 1049.97 1450.39 Z" fill="#000000" fill-rule="nonzero" fill-opacity="1" /><path clip-path="url(#clip810)" d="M1463.14 1466.95 Q1466.49 1467.66 1468.37 1469.93 Q1470.27 1472.2 1470.27 1475.53 Q1470.27 1480.65 1466.75 1483.45 Q1463.23 1486.25 1456.75 1486.25 Q1454.57 1486.25 1452.26 1485.81 Q1449.96 1485.39 1447.51 1484.54 L1447.51 1480.02 Q1449.46 1481.16 1451.77 1481.74 Q1454.08 1482.32 1456.61 1482.32 Q1461.01 1482.32 1463.3 1480.58 Q1465.61 1478.84 1465.61 1475.53 Q1465.61 1472.48 1463.46 1470.77 Q1461.33 1469.03 1457.51 1469.03 L1453.48 1469.03 L1453.48 1465.19 L1457.7 1465.19 Q1461.14 1465.19 1462.97 1463.82 Q1464.8 1462.43 1464.8 1459.84 Q1464.8 1457.18 1462.9 1455.77 Q1461.03 1454.33 1457.51 1454.33 Q1455.59 1454.33 1453.39 1454.75 Q1451.19 1455.16 1448.55 1456.04 L1448.55 1451.88 Q1451.21 1451.14 1453.53 1450.77 Q1455.87 1450.39 1457.93 1450.39 Q1463.25 1450.39 1466.35 1452.83 Q1469.45 1455.23 1469.45 1459.35 Q1469.45 1462.22 1467.81 1464.21 Q1466.17 1466.18 1463.14 1466.95 Z" fill="#000000" fill-rule="nonzero" fill-opacity="1" /><path clip-path="url(#clip810)" d="M1489.13 1454.1 Q1485.52 1454.1 1483.69 1457.66 Q1481.89 1461.2 1481.89 1468.33 Q1481.89 1475.44 1483.69 1479.01 Q1485.52 1482.55 1489.13 1482.55 Q1492.76 1482.55 1494.57 1479.01 Q1496.4 1475.44 1496.4 1468.33 Q1496.4 1461.2 1494.57 1457.66 Q1492.76 1454.1 1489.13 1454.1 M1489.13 1450.39 Q1494.94 1450.39 1498 1455 Q1501.08 1459.58 1501.08 1468.33 Q1501.08 1477.06 1498 1481.67 Q1494.94 1486.25 1489.13 1486.25 Q1483.32 1486.25 1480.24 1481.67 Q1477.19 1477.06 1477.19 1468.33 Q1477.19 1459.58 1480.24 1455 Q1483.32 1450.39 1489.13 1450.39 Z" fill="#000000" fill-rule="nonzero" fill-opacity="1" /><path clip-path="url(#clip810)" d="M1901.7 1455.09 L1889.89 1473.54 L1901.7 1473.54 L1901.7 1455.09 M1900.47 1451.02 L1906.35 1451.02 L1906.35 1473.54 L1911.28 1473.54 L1911.28 1477.43 L1906.35 1477.43 L1906.35 1485.58 L1901.7 1485.58 L1901.7 1477.43 L1886.09 1477.43 L1886.09 1472.92 L1900.47 1451.02 Z" fill="#000000" fill-rule="nonzero" fill-opacity="1" /><path clip-path="url(#clip810)" d="M1929.01 1454.1 Q1925.4 1454.1 1923.57 1457.66 Q1921.77 1461.2 1921.77 1468.33 Q1921.77 1475.44 1923.57 1479.01 Q1925.4 1482.55 1929.01 1482.55 Q1932.64 1482.55 1934.45 1479.01 Q1936.28 1475.44 1936.28 1468.33 Q1936.28 1461.2 1934.45 1457.66 Q1932.64 1454.1 1929.01 1454.1 M1929.01 1450.39 Q1934.82 1450.39 1937.88 1455 Q1940.95 1459.58 1940.95 1468.33 Q1940.95 1477.06 1937.88 1481.67 Q1934.82 1486.25 1929.01 1486.25 Q1923.2 1486.25 1920.12 1481.67 Q1917.07 1477.06 1917.07 1468.33 Q1917.07 1459.58 1920.12 1455 Q1923.2 1450.39 1929.01 1450.39 Z" fill="#000000" fill-rule="nonzero" fill-opacity="1" /><path clip-path="url(#clip810)" d="M2327.46 1451.02 L2345.81 1451.02 L2345.81 1454.96 L2331.74 1454.96 L2331.74 1463.43 Q2332.76 1463.08 2333.77 1462.92 Q2334.79 1462.73 2335.81 1462.73 Q2341.6 1462.73 2344.98 1465.9 Q2348.36 1469.08 2348.36 1474.49 Q2348.36 1480.07 2344.89 1483.17 Q2341.41 1486.25 2335.09 1486.25 Q2332.92 1486.25 2330.65 1485.88 Q2328.4 1485.51 2326 1484.77 L2326 1480.07 Q2328.08 1481.2 2330.3 1481.76 Q2332.52 1482.32 2335 1482.32 Q2339.01 1482.32 2341.34 1480.21 Q2343.68 1478.1 2343.68 1474.49 Q2343.68 1470.88 2341.34 1468.77 Q2339.01 1466.67 2335 1466.67 Q2333.13 1466.67 2331.25 1467.08 Q2329.4 1467.5 2327.46 1468.38 L2327.46 1451.02 Z" fill="#000000" fill-rule="nonzero" fill-opacity="1" /><path clip-path="url(#clip810)" d="M2367.57 1454.1 Q2363.96 1454.1 2362.13 1457.66 Q2360.33 1461.2 2360.33 1468.33 Q2360.33 1475.44 2362.13 1479.01 Q2363.96 1482.55 2367.57 1482.55 Q2371.2 1482.55 2373.01 1479.01 Q2374.84 1475.44 2374.84 1468.33 Q2374.84 1461.2 2373.01 1457.66 Q2371.2 1454.1 2367.57 1454.1 M2367.57 1450.39 Q2373.38 1450.39 2376.44 1455 Q2379.52 1459.58 2379.52 1468.33 Q2379.52 1477.06 2376.44 1481.67 Q2373.38 1486.25 2367.57 1486.25 Q2361.76 1486.25 2358.68 1481.67 Q2355.63 1477.06 2355.63 1468.33 Q2355.63 1459.58 2358.68 1455 Q2361.76 1450.39 2367.57 1450.39 Z" fill="#000000" fill-rule="nonzero" fill-opacity="1" /><path clip-path="url(#clip810)" d="M1253.74 1522.27 L1253.74 1532.4 L1265.8 1532.4 L1265.8 1536.95 L1253.74 1536.95 L1253.74 1556.3 Q1253.74 1560.66 1254.92 1561.9 Q1256.13 1563.14 1259.79 1563.14 L1265.8 1563.14 L1265.8 1568.04 L1259.79 1568.04 Q1253.01 1568.04 1250.43 1565.53 Q1247.85 1562.98 1247.85 1556.3 L1247.85 1536.95 L1243.55 1536.95 L1243.55 1532.4 L1247.85 1532.4 L1247.85 1522.27 L1253.74 1522.27 Z" fill="#000000" fill-rule="nonzero" fill-opacity="1" /><polyline clip-path="url(#clip812)" style="stroke:#000000; stroke-linecap:round; stroke-linejoin:round; stroke-width:2; stroke-opacity:0.1; fill:none" points="156.598,1422.53 2352.76,1422.53 "/>
<polyline clip-path="url(#clip812)" style="stroke:#000000; stroke-linecap:round; stroke-linejoin:round; stroke-width:2; stroke-opacity:0.1; fill:none" points="156.598,1125.56 2352.76,1125.56 "/>
<polyline clip-path="url(#clip812)" style="stroke:#000000; stroke-linecap:round; stroke-linejoin:round; stroke-width:2; stroke-opacity:0.1; fill:none" points="156.598,828.598 2352.76,828.598 "/>
<polyline clip-path="url(#clip812)" style="stroke:#000000; stroke-linecap:round; stroke-linejoin:round; stroke-width:2; stroke-opacity:0.1; fill:none" points="156.598,531.633 2352.76,531.633 "/>
<polyline clip-path="url(#clip812)" style="stroke:#000000; stroke-linecap:round; stroke-linejoin:round; stroke-width:2; stroke-opacity:0.1; fill:none" points="156.598,234.668 2352.76,234.668 "/>
<polyline clip-path="url(#clip810)" style="stroke:#000000; stroke-linecap:round; stroke-linejoin:round; stroke-width:4; stroke-opacity:1; fill:none" points="156.598,1423.18 156.598,47.2441 "/>
<polyline clip-path="url(#clip810)" style="stroke:#000000; stroke-linecap:round; stroke-linejoin:round; stroke-width:4; stroke-opacity:1; fill:none" points="156.598,1422.53 175.496,1422.53 "/>
<polyline clip-path="url(#clip810)" style="stroke:#000000; stroke-linecap:round; stroke-linejoin:round; stroke-width:4; stroke-opacity:1; fill:none" points="156.598,1125.56 175.496,1125.56 "/>
<polyline clip-path="url(#clip810)" style="stroke:#000000; stroke-linecap:round; stroke-linejoin:round; stroke-width:4; stroke-opacity:1; fill:none" points="156.598,828.598 175.496,828.598 "/>
<polyline clip-path="url(#clip810)" style="stroke:#000000; stroke-linecap:round; stroke-linejoin:round; stroke-width:4; stroke-opacity:1; fill:none" points="156.598,531.633 175.496,531.633 "/>
<polyline clip-path="url(#clip810)" style="stroke:#000000; stroke-linecap:round; stroke-linejoin:round; stroke-width:4; stroke-opacity:1; fill:none" points="156.598,234.668 175.496,234.668 "/>
<path clip-path="url(#clip810)" d="M64.0708 1408.33 Q60.4597 1408.33 58.631 1411.89 Q56.8254 1415.43 56.8254 1422.56 Q56.8254 1429.67 58.631 1433.23 Q60.4597 1436.78 64.0708 1436.78 Q67.705 1436.78 69.5105 1433.23 Q71.3392 1429.67 71.3392 1422.56 Q71.3392 1415.43 69.5105 1411.89 Q67.705 1408.33 64.0708 1408.33 M64.0708 1404.62 Q69.8809 1404.62 72.9365 1409.23 Q76.0151 1413.81 76.0151 1422.56 Q76.0151 1431.29 72.9365 1435.9 Q69.8809 1440.48 64.0708 1440.48 Q58.2606 1440.48 55.1819 1435.9 Q52.1264 1431.29 52.1264 1422.56 Q52.1264 1413.81 55.1819 1409.23 Q58.2606 1404.62 64.0708 1404.62 Z" fill="#000000" fill-rule="nonzero" fill-opacity="1" /><path clip-path="url(#clip810)" d="M84.2327 1433.93 L89.1169 1433.93 L89.1169 1439.81 L84.2327 1439.81 L84.2327 1433.93 Z" fill="#000000" fill-rule="nonzero" fill-opacity="1" /><path clip-path="url(#clip810)" d="M113.469 1421.17 Q116.825 1421.89 118.7 1424.16 Q120.598 1426.43 120.598 1429.76 Q120.598 1434.88 117.08 1437.68 Q113.561 1440.48 107.08 1440.48 Q104.904 1440.48 102.589 1440.04 Q100.297 1439.62 97.8437 1438.77 L97.8437 1434.25 Q99.7882 1435.39 102.103 1435.97 Q104.418 1436.54 106.941 1436.54 Q111.339 1436.54 113.631 1434.81 Q115.945 1433.07 115.945 1429.76 Q115.945 1426.71 113.793 1424.99 Q111.663 1423.26 107.844 1423.26 L103.816 1423.26 L103.816 1419.41 L108.029 1419.41 Q111.478 1419.41 113.307 1418.05 Q115.135 1416.66 115.135 1414.07 Q115.135 1411.41 113.237 1409.99 Q111.362 1408.56 107.844 1408.56 Q105.922 1408.56 103.723 1408.97 Q101.524 1409.39 98.8854 1410.27 L98.8854 1406.1 Q101.547 1405.36 103.862 1404.99 Q106.2 1404.62 108.26 1404.62 Q113.584 1404.62 116.686 1407.05 Q119.788 1409.46 119.788 1413.58 Q119.788 1416.45 118.145 1418.44 Q116.501 1420.41 113.469 1421.17 Z" fill="#000000" fill-rule="nonzero" fill-opacity="1" /><path clip-path="url(#clip810)" d="M62.9365 1111.36 Q59.3254 1111.36 57.4967 1114.93 Q55.6912 1118.47 55.6912 1125.6 Q55.6912 1132.7 57.4967 1136.27 Q59.3254 1139.81 62.9365 1139.81 Q66.5707 1139.81 68.3763 1136.27 Q70.205 1132.7 70.205 1125.6 Q70.205 1118.47 68.3763 1114.93 Q66.5707 1111.36 62.9365 1111.36 M62.9365 1107.66 Q68.7467 1107.66 71.8022 1112.26 Q74.8809 1116.85 74.8809 1125.6 Q74.8809 1134.32 71.8022 1138.93 Q68.7467 1143.51 62.9365 1143.51 Q57.1264 1143.51 54.0477 1138.93 Q50.9921 1134.32 50.9921 1125.6 Q50.9921 1116.85 54.0477 1112.26 Q57.1264 1107.66 62.9365 1107.66 Z" fill="#000000" fill-rule="nonzero" fill-opacity="1" /><path clip-path="url(#clip810)" d="M83.0984 1136.96 L87.9827 1136.96 L87.9827 1142.84 L83.0984 1142.84 L83.0984 1136.96 Z" fill="#000000" fill-rule="nonzero" fill-opacity="1" /><path clip-path="url(#clip810)" d="M111.015 1112.36 L99.2095 1130.81 L111.015 1130.81 L111.015 1112.36 M109.788 1108.28 L115.668 1108.28 L115.668 1130.81 L120.598 1130.81 L120.598 1134.69 L115.668 1134.69 L115.668 1142.84 L111.015 1142.84 L111.015 1134.69 L95.4132 1134.69 L95.4132 1130.18 L109.788 1108.28 Z" fill="#000000" fill-rule="nonzero" fill-opacity="1" /><path clip-path="url(#clip810)" d="M64.418 814.397 Q60.8069 814.397 58.9782 817.962 Q57.1726 821.503 57.1726 828.633 Q57.1726 835.739 58.9782 839.304 Q60.8069 842.846 64.418 842.846 Q68.0522 842.846 69.8578 839.304 Q71.6865 835.739 71.6865 828.633 Q71.6865 821.503 69.8578 817.962 Q68.0522 814.397 64.418 814.397 M64.418 810.693 Q70.2281 810.693 73.2837 815.3 Q76.3624 819.883 76.3624 828.633 Q76.3624 837.36 73.2837 841.966 Q70.2281 846.549 64.418 846.549 Q58.6078 846.549 55.5291 841.966 Q52.4736 837.36 52.4736 828.633 Q52.4736 819.883 55.5291 815.3 Q58.6078 810.693 64.418 810.693 Z" fill="#000000" fill-rule="nonzero" fill-opacity="1" /><path clip-path="url(#clip810)" d="M84.5799 839.999 L89.4641 839.999 L89.4641 845.878 L84.5799 845.878 L84.5799 839.999 Z" fill="#000000" fill-rule="nonzero" fill-opacity="1" /><path clip-path="url(#clip810)" d="M99.6956 811.318 L118.052 811.318 L118.052 815.253 L103.978 815.253 L103.978 823.725 Q104.996 823.378 106.015 823.216 Q107.033 823.031 108.052 823.031 Q113.839 823.031 117.219 826.202 Q120.598 829.374 120.598 834.79 Q120.598 840.369 117.126 843.471 Q113.654 846.549 107.334 846.549 Q105.159 846.549 102.89 846.179 Q100.645 845.809 98.2372 845.068 L98.2372 840.369 Q100.321 841.503 102.543 842.059 Q104.765 842.614 107.242 842.614 Q111.246 842.614 113.584 840.508 Q115.922 838.401 115.922 834.79 Q115.922 831.179 113.584 829.073 Q111.246 826.966 107.242 826.966 Q105.367 826.966 103.492 827.383 Q101.64 827.799 99.6956 828.679 L99.6956 811.318 Z" fill="#000000" fill-rule="nonzero" fill-opacity="1" /><path clip-path="url(#clip810)" d="M63.2606 517.432 Q59.6495 517.432 57.8208 520.997 Q56.0152 524.538 56.0152 531.668 Q56.0152 538.774 57.8208 542.339 Q59.6495 545.881 63.2606 545.881 Q66.8948 545.881 68.7004 542.339 Q70.5291 538.774 70.5291 531.668 Q70.5291 524.538 68.7004 520.997 Q66.8948 517.432 63.2606 517.432 M63.2606 513.728 Q69.0707 513.728 72.1263 518.335 Q75.205 522.918 75.205 531.668 Q75.205 540.395 72.1263 545.001 Q69.0707 549.584 63.2606 549.584 Q57.4504 549.584 54.3717 545.001 Q51.3162 540.395 51.3162 531.668 Q51.3162 522.918 54.3717 518.335 Q57.4504 513.728 63.2606 513.728 Z" fill="#000000" fill-rule="nonzero" fill-opacity="1" /><path clip-path="url(#clip810)" d="M83.4225 543.034 L88.3067 543.034 L88.3067 548.913 L83.4225 548.913 L83.4225 543.034 Z" fill="#000000" fill-rule="nonzero" fill-opacity="1" /><path clip-path="url(#clip810)" d="M109.071 529.77 Q105.922 529.77 104.071 531.922 Q102.242 534.075 102.242 537.825 Q102.242 541.552 104.071 543.728 Q105.922 545.881 109.071 545.881 Q112.219 545.881 114.047 543.728 Q115.899 541.552 115.899 537.825 Q115.899 534.075 114.047 531.922 Q112.219 529.77 109.071 529.77 M118.353 515.117 L118.353 519.376 Q116.594 518.543 114.788 518.103 Q113.006 517.663 111.246 517.663 Q106.617 517.663 104.163 520.788 Q101.733 523.913 101.385 530.233 Q102.751 528.219 104.811 527.154 Q106.871 526.066 109.348 526.066 Q114.557 526.066 117.566 529.237 Q120.598 532.385 120.598 537.825 Q120.598 543.149 117.45 546.367 Q114.302 549.584 109.071 549.584 Q103.075 549.584 99.9039 545.001 Q96.7326 540.395 96.7326 531.668 Q96.7326 523.473 100.621 518.612 Q104.51 513.728 111.061 513.728 Q112.82 513.728 114.603 514.075 Q116.408 514.423 118.353 515.117 Z" fill="#000000" fill-rule="nonzero" fill-opacity="1" /><path clip-path="url(#clip810)" d="M64.3254 220.467 Q60.7143 220.467 58.8856 224.032 Q57.0801 227.573 57.0801 234.703 Q57.0801 241.809 58.8856 245.374 Q60.7143 248.916 64.3254 248.916 Q67.9596 248.916 69.7652 245.374 Q71.5939 241.809 71.5939 234.703 Q71.5939 227.573 69.7652 224.032 Q67.9596 220.467 64.3254 220.467 M64.3254 216.763 Q70.1355 216.763 73.1911 221.37 Q76.2698 225.953 76.2698 234.703 Q76.2698 243.43 73.1911 248.036 Q70.1355 252.619 64.3254 252.619 Q58.5152 252.619 55.4365 248.036 Q52.381 243.43 52.381 234.703 Q52.381 225.953 55.4365 221.37 Q58.5152 216.763 64.3254 216.763 Z" fill="#000000" fill-rule="nonzero" fill-opacity="1" /><path clip-path="url(#clip810)" d="M84.4873 246.069 L89.3715 246.069 L89.3715 251.948 L84.4873 251.948 L84.4873 246.069 Z" fill="#000000" fill-rule="nonzero" fill-opacity="1" /><path clip-path="url(#clip810)" d="M98.3761 217.388 L120.598 217.388 L120.598 219.379 L108.052 251.948 L103.168 251.948 L114.973 221.323 L98.3761 221.323 L98.3761 217.388 Z" fill="#000000" fill-rule="nonzero" fill-opacity="1" /><polyline clip-path="url(#clip812)" style="stroke:#009af9; stroke-linecap:round; stroke-linejoin:round; stroke-width:4; stroke-opacity:1; fill:none" points="156.598,828.598 158.797,865.272 160.995,900.91 163.193,935.419 165.392,968.725 167.59,1000.76 169.788,1031.49 171.987,1060.87 174.185,1088.88 176.383,1115.5 178.582,1140.73 180.78,1164.57 182.979,1187.03 185.177,1208.13 187.375,1227.88 189.574,1246.31 191.772,1263.44 193.97,1279.3 196.169,1293.91 198.367,1307.32 200.565,1319.54 202.764,1330.61 204.962,1340.56 207.16,1349.41 209.359,1357.2 211.557,1363.95 213.755,1369.69 215.954,1374.45 218.152,1378.24 220.351,1381.09 222.549,1383.02 224.747,1384.05 226.946,1384.2 229.144,1383.48 231.342,1381.91 233.541,1379.51 235.739,1376.28 237.937,1372.24 240.136,1367.39 242.334,1361.75 244.532,1355.33 246.731,1348.12 248.929,1340.15 251.128,1331.4 253.326,1321.9 255.524,1311.63 257.723,1300.61 259.921,1288.83 262.119,1276.3 264.318,1263.02 266.516,1249 268.714,1234.23 270.913,1218.72 273.111,1202.46 275.309,1185.46 277.508,1167.73 279.706,1149.26 281.905,1130.06 284.103,1110.14 286.301,1089.49 288.5,1068.13 290.698,1046.07 292.896,1023.3 295.095,999.852 297.293,975.729 299.491,950.949 301.69,925.529 303.888,899.488 306.086,872.851 308.285,845.643 310.483,817.894 312.682,789.638 314.88,760.913 317.078,731.76 319.277,702.226 321.475,672.362 323.673,642.225 325.872,611.876 328.07,581.383 330.268,550.82 332.467,520.267 334.665,489.81 336.863,459.543 339.062,429.565 341.26,399.983 343.458,370.912 345.657,342.471 347.855,314.786 350.054,287.991 352.252,262.222 354.45,237.623 356.649,214.339 358.847,192.52 361.045,172.317 363.244,153.88 365.442,137.361 367.64,122.906 369.839,110.659 372.037,100.754 374.235,93.3179 376.434,88.4661 378.632,86.2983 380.831,86.8983 383.029,90.3313 385.227,96.6412 387.426,105.85 389.624,117.956 391.822,132.932 394.021,150.727 396.219,171.262 398.417,194.433 400.616,220.11 402.814,248.141 405.012,278.352 407.211,310.551 409.409,344.529 411.608,380.066 413.806,416.935 416.004,454.9 418.203,493.727 420.401,533.181 422.599,573.035 424.798,613.066 426.996,653.064 429.194,692.83 431.393,732.182 433.591,770.954 435.789,808.995 437.988,846.17 440.186,882.363 442.385,917.474 444.583,951.418 446.781,984.127 448.98,1015.55 451.178,1045.64 453.376,1074.36 455.575,1101.71 457.773,1127.67 459.971,1152.24 462.17,1175.43 464.368,1197.24 466.566,1217.69 468.765,1236.81 470.963,1254.62 473.162,1271.14 475.36,1286.4 477.558,1300.44 479.757,1313.28 481.955,1324.95 484.153,1335.48 486.352,1344.9 488.55,1353.25 490.748,1360.54 492.947,1366.81 495.145,1372.08 497.343,1376.37 499.542,1379.71 501.74,1382.12 503.938,1383.62 506.137,1384.23 508.335,1383.96 510.534,1382.84 512.732,1380.87 514.93,1378.07 517.129,1374.46 519.327,1370.03 521.525,1364.81 523.724,1358.79 525.922,1352 528.12,1344.43 530.319,1336.08 532.517,1326.98 534.715,1317.11 536.914,1306.48 539.112,1295.1 541.311,1282.96 543.509,1270.08 545.707,1256.45 547.906,1242.07 550.104,1226.94 552.302,1211.07 554.501,1194.47 556.699,1177.12 558.897,1159.04 561.096,1140.22 563.294,1120.67 565.492,1100.41 567.691,1079.42 569.889,1057.72 572.088,1035.32 574.286,1012.23 576.484,988.458 578.683,964.02 580.881,938.933 583.079,913.215 585.278,886.888 587.476,859.976 589.674,832.508 591.873,804.514 594.071,776.03 596.269,747.096 598.468,717.755 600.666,688.057 602.865,658.054 605.063,627.806 607.261,597.377 609.46,566.839 611.658,536.268 613.856,505.746 616.055,475.361 618.253,445.21 620.451,415.398 622.65,386.038 624.848,357.246 627.046,329.148 629.245,301.871 631.443,275.551 633.641,250.326 635.84,226.339 638.038,203.738 640.237,182.673 642.435,163.295 644.633,145.755 646.832,130.203 649.03,116.785 651.228,105.64 653.427,96.8993 655.625,90.6847 657.823,87.1036 660.022,86.2486 662.22,88.1944 664.418,92.996 666.617,100.687 668.815,111.277 671.014,124.754 673.212,141.077 675.41,160.182 677.609,181.979 679.807,206.354 682.005,233.166 684.204,262.254 686.402,293.433 688.6,326.503 690.799,361.25 692.997,397.448 695.195,434.867 697.394,473.271 699.592,512.423 701.791,552.093 703.989,592.056 706.187,632.094 708.386,672.004 710.584,711.595 712.782,750.692 714.981,789.134 717.179,826.779 719.377,863.501 721.576,899.192 723.774,933.759 725.972,967.125 728.171,999.228 730.369,1030.02 732.568,1059.47 734.766,1087.54 736.964,1114.23 739.163,1139.53 741.361,1163.44 743.559,1185.97 745.758,1207.13 747.956,1226.95 750.154,1245.44 752.353,1262.63 754.551,1278.55 756.749,1293.23 758.948,1306.69 761.146,1318.97 763.344,1330.1 765.543,1340.1 767.741,1349.01 769.94,1356.85 772.138,1363.65 774.336,1369.44 776.535,1374.24 778.733,1378.08 780.931,1380.97 783.13,1382.95 785.328,1384.02 787.526,1384.21 789.725,1383.54 791.923,1382.01 794.121,1379.65 796.32,1376.46 798.518,1372.45 800.717,1367.65 802.915,1362.05 805.113,1355.66 807.312,1348.5 809.51,1340.56 811.708,1331.85 813.907,1322.38 816.105,1312.15 818.303,1301.16 820.502,1289.42 822.7,1276.93 824.898,1263.69 827.097,1249.71 829.295,1234.97 831.494,1219.49 833.692,1203.27 835.89,1186.31 838.089,1168.62 840.287,1150.18 842.485,1131.02 844.684,1111.13 846.882,1090.52 849.08,1069.19 851.279,1047.16 853.477,1024.43 855.675,1001.02 857.874,976.925 860.072,952.177 862.271,926.787 864.469,900.777 866.667,874.169 868.866,846.989 871.064,819.266 873.262,791.033 875.461,762.324 877.659,733.18 879.857,703.65 882.056,673.789 884.254,643.653 886.452,613.308 888.651,582.821 890.849,552.266 893.048,521.72 895.246,491.27 897.444,461.007 899.643,431.028 901.841,401.438 904.039,372.35 906.238,343.883 908.436,316.163 910.634,289.323 912.833,263.501 915.031,238.84 917.229,215.489 919.428,193.596 921.626,173.315 923.824,154.796 926.023,138.189 928.221,123.641 930.42,111.294 932.618,101.28 934.816,93.7254 937.015,88.7427 939.213,86.4322 941.411,86.8786 943.61,90.1492 945.808,96.2918 948.006,105.332 950.205,117.274 952.403,132.093 954.601,149.739 956.8,170.132 958.998,193.166 961.197,218.713 963.395,246.622 965.593,276.72 967.792,308.817 969.99,342.706 972.188,378.167 974.387,414.97 976.585,452.882 978.783,491.668 980.982,531.092 983.18,570.927 985.378,610.95 987.577,650.952 989.775,690.734 991.974,730.112 994.172,768.917 996.37,806.999 998.569,844.223 1000.77,880.47 1002.97,915.64 1005.16,949.648 1007.36,982.424 1009.56,1013.91 1011.76,1044.07 1013.96,1072.87 1016.16,1100.29 1018.35,1126.33 1020.55,1150.97 1022.75,1174.22 1024.95,1196.11 1027.15,1216.63 1029.35,1235.82 1031.54,1253.7 1033.74,1270.29 1035.94,1285.62 1038.14,1299.72 1040.34,1312.62 1042.54,1324.35 1044.73,1334.94 1046.93,1344.42 1049.13,1352.82 1051.33,1360.17 1053.53,1366.49 1055.73,1371.81 1057.92,1376.15 1060.12,1379.54 1062.32,1382 1064.52,1383.55 1066.72,1384.21 1068.92,1383.99 1071.11,1382.91 1073.31,1380.99 1075.51,1378.23 1077.71,1374.66 1079.91,1370.27 1082.11,1365.09 1084.3,1359.12 1086.5,1352.36 1088.7,1344.83 1090.9,1336.53 1093.1,1327.46 1095.3,1317.64 1097.49,1307.05 1099.69,1295.71 1101.89,1283.61 1104.09,1270.77 1106.29,1257.17 1108.49,1242.84 1110.68,1227.75 1112.88,1211.92 1115.08,1195.35 1117.28,1178.05 1119.48,1160 1121.68,1141.22 1123.87,1121.72 1126.07,1101.49 1128.27,1080.54 1130.47,1058.88 1132.67,1036.52 1134.87,1013.46 1137.07,989.726 1139.26,965.324 1141.46,940.271 1143.66,914.586 1145.86,888.291 1148.06,861.411 1150.26,833.972 1152.45,806.005 1154.65,777.545 1156.85,748.63 1159.05,719.306 1161.25,689.622 1163.45,659.631 1165.64,629.395 1167.84,598.976 1170.04,568.446 1172.24,537.88 1174.44,507.362 1176.64,476.979 1178.83,446.827 1181.03,417.008 1183.23,387.633 1185.43,358.817 1187.63,330.682 1189.83,303.359 1192.02,276.982 1194.22,251.692 1196.42,227.633 1198.62,204.953 1200.82,183.803 1203.02,164.334 1205.21,146.695 1207.41,131.037 1209.61,117.504 1211.81,106.234 1214.01,97.3595 1216.21,91.0006 1218.4,87.2667 1220.6,86.2523 1222.8,88.035 1225,92.673 1227.2,100.203 1229.4,110.636 1231.59,123.959 1233.79,140.133 1235.99,159.095 1238.19,180.754 1240.39,204.997 1242.59,231.683 1244.78,260.652 1246.98,291.723 1249.18,324.696 1251.38,359.358 1253.58,395.485 1255.78,432.846 1257.97,471.203 1260.17,510.323 1262.37,549.972 1264.57,589.925 1266.77,629.964 1268.97,669.885 1271.16,709.497 1273.36,748.622 1275.56,787.102 1277.76,824.792 1279.96,861.566 1282.16,897.314 1284.35,931.941 1286.55,965.371 1288.75,997.542 1290.95,1028.4 1293.15,1057.92 1295.35,1086.07 1297.55,1112.83 1299.74,1138.2 1301.94,1162.18 1304.14,1184.79 1306.34,1206.02 1308.54,1225.91 1310.74,1244.47 1312.93,1261.73 1315.13,1277.72 1317.33,1292.46 1319.53,1305.98 1321.73,1318.33 1323.93,1329.51 1326.12,1339.57 1328.32,1348.54 1330.52,1356.43 1332.72,1363.29 1334.92,1369.13 1337.12,1373.99 1339.31,1377.87 1341.51,1380.82 1343.71,1382.84 1345.91,1383.97 1348.11,1384.2 1350.31,1383.58 1352.5,1382.09 1354.7,1379.77 1356.9,1376.63 1359.1,1372.67 1361.3,1367.91 1363.5,1362.35 1365.69,1356 1367.89,1348.88 1370.09,1340.98 1372.29,1332.31 1374.49,1322.88 1376.69,1312.7 1378.88,1301.75 1381.08,1290.05 1383.28,1277.6 1385.48,1264.4 1387.68,1250.45 1389.88,1235.76 1392.07,1220.32 1394.27,1204.14 1396.47,1187.22 1398.67,1169.56 1400.87,1151.17 1403.07,1132.05 1405.26,1112.2 1407.46,1091.62 1409.66,1070.34 1411.86,1048.34 1414.06,1025.65 1416.26,1002.27 1418.45,978.215 1420.65,953.502 1422.85,928.147 1425.05,902.17 1427.25,875.593 1429.45,848.444 1431.64,820.75 1433.84,792.544 1436.04,763.864 1438.24,734.751 1440.44,705.253 1442.64,675.419 1444.83,645.307 1447.03,614.977 1449.23,584.498 1451.43,553.941 1453.63,523.385 1455.83,492.917 1458.03,462.629 1460.22,432.62 1462.42,402.996 1464.62,373.869 1466.82,345.36 1469.02,317.594 1471.22,290.703 1473.41,264.825 1475.61,240.102 1477.81,216.679 1480.01,194.707 1482.21,174.335 1484.41,155.714 1486.6,138.996 1488.8,124.327 1491,111.849 1493.2,101.7 1495.4,94.0051 1497.6,88.8819 1499.79,86.4327 1501.99,86.7439 1504.19,89.8833 1506.39,95.8967 1508.59,104.807 1510.79,116.613 1512.98,131.292 1515.18,148.792 1517.38,169.039 1519.58,191.934 1521.78,217.35 1523.98,245.139 1526.17,275.132 1528.37,307.137 1530.57,340.948 1532.77,376.346 1534.97,413.101 1537.17,450.977 1539.36,489.738 1541.56,529.147 1543.76,568.975 1545.96,608.999 1548.16,649.009 1550.36,688.807 1552.55,728.209 1554.75,767.048 1556.95,805.171 1559.15,842.444 1561.35,878.747 1563.55,913.975 1565.74,948.042 1567.94,980.879 1570.14,1012.43 1572.34,1042.66 1574.54,1071.52 1576.74,1099.01 1578.93,1125.11 1581.13,1149.82 1583.33,1173.14 1585.53,1195.09 1587.73,1215.68 1589.93,1234.93 1592.12,1252.87 1594.32,1269.52 1596.52,1284.91 1598.72,1299.07 1600.92,1312.02 1603.12,1323.81 1605.31,1334.46 1607.51,1343.99 1609.71,1352.44 1611.91,1359.84 1614.11,1366.21 1616.31,1371.58 1618.5,1375.97 1620.7,1379.4 1622.9,1381.91 1625.1,1383.5 1627.3,1384.2 1629.5,1384.02 1631.7,1382.98 1633.89,1381.1 1636.09,1378.38 1638.29,1374.85 1640.49,1370.5 1642.69,1365.36 1644.89,1359.43 1647.08,1352.71 1649.28,1345.21 1651.48,1336.95 1653.68,1327.92 1655.88,1318.13 1658.08,1307.58 1660.27,1296.27 1662.47,1284.21 1664.67,1271.4 1666.87,1257.85 1669.07,1243.54 1671.27,1228.49 1673.46,1212.7 1675.66,1196.17 1677.86,1178.9 1680.06,1160.89 1682.26,1142.14 1684.46,1122.67 1686.65,1102.48 1688.85,1081.56 1691.05,1059.94 1693.25,1037.61 1695.45,1014.59 1697.65,990.883 1699.84,966.513 1702.04,941.491 1704.24,915.836 1706.44,889.57 1708.64,862.717 1710.84,835.303 1713.03,807.359 1715.23,778.921 1717.43,750.029 1719.63,720.726 1721.83,691.061 1724.03,661.087 1726.22,630.864 1728.42,600.454 1730.62,569.929 1732.82,539.362 1735.02,508.838 1737.22,478.444 1739.41,448.276 1741.61,418.437 1743.81,389.035 1746.01,360.188 1748.21,332.016 1750.41,304.651 1752.6,278.225 1754.8,252.88 1757,228.758 1759.2,206.008 1761.4,184.78 1763.6,165.224 1765.79,147.492 1767.99,131.732 1770.19,118.09 1772.39,106.706 1774.59,97.7103 1776.79,91.2269 1778.98,87.3655 1781.18,86.2215 1783.38,87.8731 1785.58,92.3779 1787.78,99.7707 1789.98,110.063 1792.18,123.244 1794.37,139.275 1796.57,158.096 1798.77,179.62 1800.97,203.733 1803.17,230.3 1805.37,259.162 1807.56,290.138 1809.76,323.031 1811.96,357.626 1814.16,393.7 1816.36,431.02 1818.56,469.348 1820.75,508.448 1822.95,548.087 1825.15,588.037 1827.35,628.082 1829.55,668.016 1831.75,707.647 1833.94,746.801 1836.14,785.317 1838.34,823.051 1840.54,859.875 1842.74,895.678 1844.94,930.364 1847.13,963.854 1849.33,996.084 1851.53,1027.01 1853.73,1056.59 1855.93,1084.8 1858.13,1111.63 1860.32,1137.06 1862.52,1161.11 1864.72,1183.78 1866.92,1205.08 1869.12,1225.03 1871.32,1243.65 1873.51,1260.97 1875.71,1277.02 1877.91,1291.81 1880.11,1305.4 1882.31,1317.79 1884.51,1329.03 1886.7,1339.14 1888.9,1348.16 1891.1,1356.1 1893.3,1363.01 1895.5,1368.9 1897.7,1373.8 1899.89,1377.73 1902.09,1380.72 1904.29,1382.78 1906.49,1383.95 1908.69,1384.23 1910.89,1383.64 1913.08,1382.19 1915.28,1379.91 1917.48,1376.81 1919.68,1372.88 1921.88,1368.16 1924.08,1362.64 1926.27,1356.33 1928.47,1349.24 1930.67,1341.38 1932.87,1332.75 1935.07,1323.35 1937.27,1313.2 1939.46,1302.29 1941.66,1290.62 1943.86,1278.21 1946.06,1265.04 1948.26,1251.13 1950.46,1236.47 1952.66,1221.06 1954.85,1204.92 1957.05,1188.03 1959.25,1170.41 1961.45,1152.05 1963.65,1132.96 1965.85,1113.14 1968.04,1092.6 1970.24,1071.35 1972.44,1049.39 1974.64,1026.73 1976.84,1003.38 1979.04,979.353 1981.23,954.67 1983.43,929.344 1985.63,903.395 1987.83,876.845 1990.03,849.721 1992.23,822.049 1994.42,793.865 1996.62,765.203 1998.82,736.108 2001.02,706.625 2003.22,676.805 2005.42,646.704 2007.61,616.384 2009.81,585.91 2012.01,555.356 2014.21,524.8 2016.41,494.327 2018.61,464.029 2020.8,434.005 2023,404.361 2025.2,375.209 2027.4,346.668 2029.6,318.864 2031.8,291.929 2033.99,266 2036.19,241.219 2038.39,217.733 2040.59,195.69 2042.79,175.24 2044.99,156.535 2047.18,139.726 2049.38,124.958 2051.58,112.375 2053.78,102.112 2055.98,94.2988 2058.18,89.0503 2060.37,86.4706 2062.57,86.6473 2064.77,89.6499 2066.97,95.5267 2069.17,104.302 2071.37,115.975 2073.56,130.522 2075.76,147.895 2077.96,168.02 2080.16,190.795 2082.36,216.098 2084.56,243.78 2086.75,273.672 2088.95,305.584 2091.15,339.312 2093.35,374.636 2095.55,411.328 2097.75,449.154 2099.94,487.876 2102.14,527.26 2104.34,567.074 2106.54,607.095 2108.74,647.113 2110.94,686.926 2113.14,726.352 2115.33,765.221 2117.53,803.38 2119.73,840.694 2121.93,877.044 2124.13,912.325 2126.33,946.451 2128.52,979.349 2130.72,1010.96 2132.92,1041.25 2135.12,1070.18 2137.32,1097.74 2139.52,1123.9 2141.71,1148.68 2143.91,1172.07 2146.11,1194.08 2148.31,1214.74 2150.51,1234.05 2152.71,1252.05 2154.9,1268.76 2157.1,1284.21 2159.3,1298.43 2161.5,1311.44 2163.7,1323.28 2165.9,1333.98 2168.09,1343.57 2170.29,1352.07 2172.49,1359.52 2174.69,1365.94 2176.89,1371.35 2179.09,1375.79 2181.28,1379.27 2183.48,1381.82 2185.68,1383.45 2187.88,1384.19 2190.08,1384.06 2192.28,1383.06 2194.47,1381.21 2196.67,1378.54 2198.87,1375.04 2201.07,1370.74 2203.27,1365.63 2205.47,1359.73 2207.66,1353.05 2209.86,1345.6 2212.06,1337.37 2214.26,1328.37 2216.46,1318.62 2218.66,1308.1 2220.85,1296.83 2223.05,1284.81 2225.25,1272.04 2227.45,1258.52 2229.65,1244.25 2231.85,1229.23 2234.04,1213.48 2236.24,1196.98 2238.44,1179.74 2240.64,1161.77 2242.84,1143.06 2245.04,1123.62 2247.23,1103.46 2249.43,1082.58 2251.63,1060.99 2253.83,1038.69 2256.03,1015.7 2258.23,992.032 2260.42,967.692 2262.62,942.701 2264.82,917.076 2267.02,890.838 2269.22,864.011 2271.42,836.623 2273.62,808.702 2275.81,780.284 2278.01,751.409 2280.21,722.121 2282.41,692.469 2284.61,662.507 2286.81,632.294 2289,601.892 2291.2,571.372 2293.4,540.809 2295.6,510.284 2297.8,479.884 2300,449.706 2302.19,419.851 2304.39,390.428 2306.59,361.552 2308.79,333.347 2310.99,305.94 2313.19,279.466 2315.38,254.065 2317.58,229.882 2319.78,207.064 2321.98,185.762 2324.18,166.125 2326.38,148.305 2328.57,132.451 2330.77,118.706 2332.97,107.212 2335.17,98.1001 2337.37,91.492 2339.57,87.4986 2341.76,86.2162 2343.96,87.7245 2346.16,92.0839 2348.36,99.3333 2350.56,109.487 2352.76,122.533 "/>
<polyline clip-path="url(#clip812)" style="stroke:#e26f46; stroke-linecap:round; stroke-linejoin:round; stroke-width:4; stroke-opacity:1; fill:none" points="156.598,86.1857 158.797,87.5681 160.995,91.6596 163.193,98.3645 165.392,107.572 167.59,119.16 169.788,132.995 171.987,148.936 174.185,166.838 176.383,186.552 178.582,207.925 180.78,230.806 182.979,255.045 185.177,280.496 187.375,307.013 189.574,334.458 191.772,362.697 193.97,391.602 196.169,421.05 198.367,450.927 200.565,481.123 202.764,511.537 204.962,542.074 207.16,572.645 209.359,603.168 211.557,633.567 213.755,663.773 215.954,693.723 218.152,723.358 220.351,752.625 222.549,781.476 224.747,809.87 226.946,837.766 229.144,865.131 231.342,891.934 233.541,918.147 235.739,943.747 237.937,968.712 240.136,993.024 242.334,1016.67 244.532,1039.63 246.731,1061.9 248.929,1083.46 251.128,1104.31 253.326,1124.44 255.524,1143.85 257.723,1162.53 259.921,1180.47 262.119,1197.68 264.318,1214.15 266.516,1229.87 268.714,1244.85 270.913,1259.09 273.111,1272.58 275.309,1285.32 277.508,1297.32 279.706,1308.55 281.905,1319.04 284.103,1328.76 286.301,1337.73 288.5,1345.92 290.698,1353.35 292.896,1360 295.095,1365.86 297.293,1370.93 299.491,1375.21 301.69,1378.67 303.888,1381.31 306.086,1383.12 308.285,1384.08 310.483,1384.18 312.682,1383.4 314.88,1381.73 317.078,1379.14 319.277,1375.62 321.475,1371.14 323.673,1365.68 325.872,1359.22 328.07,1351.73 330.268,1343.18 332.467,1333.55 334.665,1322.81 336.863,1310.92 339.062,1297.86 341.26,1283.59 343.458,1268.09 345.657,1251.33 347.855,1233.28 350.054,1213.91 352.252,1193.2 354.45,1171.13 356.649,1147.69 358.847,1122.85 361.045,1096.63 363.244,1069.02 365.442,1040.04 367.64,1009.7 369.839,978.035 372.037,945.089 374.235,910.92 376.434,875.597 378.632,839.21 380.831,801.862 383.029,763.673 385.227,724.779 387.426,685.335 389.624,645.51 391.822,605.491 394.021,565.478 396.219,525.683 398.417,486.329 400.616,447.647 402.814,409.871 405.012,373.236 407.211,337.976 409.409,304.319 411.608,272.482 413.806,242.67 416.004,215.072 418.203,189.858 420.401,167.177 422.599,147.153 424.798,129.886 426.996,115.448 429.194,103.888 431.393,95.2283 433.591,89.4655 435.789,86.5735 437.988,86.5035 440.186,89.1864 442.385,94.5348 444.583,102.445 446.781,112.802 448.98,125.475 451.178,140.33 453.376,157.223 455.575,176.005 457.773,196.526 459.971,218.635 462.17,242.181 464.368,267.014 466.566,292.99 468.765,319.965 470.963,347.804 473.162,376.375 475.36,405.553 477.558,435.219 479.757,465.261 481.955,495.573 484.153,526.057 486.352,556.62 488.55,587.178 490.748,617.652 492.947,647.967 495.145,678.059 497.343,707.866 499.542,737.332 501.74,766.407 503.938,795.046 506.137,823.208 508.335,850.855 510.534,877.956 512.732,904.482 514.93,930.406 517.129,955.706 519.327,980.363 521.525,1004.36 523.724,1027.68 525.922,1050.31 528.12,1072.24 530.319,1093.47 532.517,1113.98 534.715,1133.77 536.914,1152.83 539.112,1171.16 541.311,1188.75 543.509,1205.61 545.707,1221.72 547.906,1237.09 550.104,1251.72 552.302,1265.6 554.501,1278.74 556.699,1291.12 558.897,1302.76 561.096,1313.64 563.294,1323.76 565.492,1333.12 567.691,1341.72 569.889,1349.55 572.088,1356.61 574.286,1362.89 576.484,1368.37 578.683,1373.07 580.881,1376.96 583.079,1380.03 585.278,1382.28 587.476,1383.68 589.674,1384.24 591.873,1383.92 594.071,1382.72 596.269,1380.62 598.468,1377.59 600.666,1373.62 602.865,1368.68 605.063,1362.75 607.261,1355.8 609.46,1347.81 611.658,1338.75 613.856,1328.59 616.055,1317.31 618.253,1304.86 620.451,1291.23 622.65,1276.37 624.848,1260.27 627.046,1242.89 629.245,1224.21 631.443,1204.2 633.641,1182.85 635.84,1160.12 638.038,1136.02 640.237,1110.53 642.435,1083.65 644.633,1055.38 646.832,1025.75 649.03,994.773 651.228,962.492 653.427,928.955 655.625,894.226 657.823,858.385 660.022,821.527 662.22,783.762 664.418,745.221 666.617,706.048 668.815,666.404 671.014,626.468 673.212,586.433 675.41,546.503 677.609,506.896 679.807,467.838 682.005,429.56 684.204,392.298 686.402,356.289 688.6,321.764 690.799,288.947 692.997,258.05 695.195,229.271 697.394,202.79 699.592,178.766 701.791,157.336 703.989,138.612 706.187,122.682 708.386,109.607 710.584,99.4221 712.782,92.1387 714.981,87.7427 717.179,86.1971 719.377,87.4436 721.576,91.4042 723.774,97.9836 725.972,107.072 728.171,118.546 730.369,132.273 732.568,148.113 734.766,165.92 736.964,185.546 739.163,206.84 741.361,229.65 743.559,253.827 745.758,279.222 747.956,305.69 750.154,333.093 752.353,361.296 754.551,390.171 756.749,419.596 758.948,449.455 761.146,479.638 763.344,510.044 765.543,540.577 767.741,571.148 769.94,601.676 772.138,632.083 774.336,662.301 776.535,692.264 778.733,721.916 780.931,751.202 783.13,780.076 785.328,808.493 787.526,836.414 789.725,863.806 791.923,890.637 794.121,916.88 796.32,942.51 798.518,967.507 800.717,991.852 802.915,1015.53 805.113,1038.52 807.312,1060.82 809.51,1082.42 811.708,1103.31 813.907,1123.48 816.105,1142.92 818.303,1161.63 820.502,1179.61 822.7,1196.85 824.898,1213.36 827.097,1229.12 829.295,1244.14 831.494,1258.41 833.692,1271.94 835.89,1284.72 838.089,1296.75 840.287,1308.02 842.485,1318.55 844.684,1328.31 846.882,1337.31 849.08,1345.54 851.279,1353 853.477,1359.69 855.675,1365.59 857.874,1370.71 860.072,1375.02 862.271,1378.52 864.469,1381.2 866.667,1383.05 868.866,1384.06 871.064,1384.2 873.262,1383.47 875.461,1381.84 877.659,1379.29 879.857,1375.82 882.056,1371.38 884.254,1365.97 886.452,1359.54 888.651,1352.09 890.849,1343.58 893.048,1333.99 895.246,1323.29 897.444,1311.45 899.643,1298.44 901.841,1284.23 904.039,1268.8 906.238,1252.11 908.436,1234.13 910.634,1214.84 912.833,1194.21 915.031,1172.22 917.229,1148.85 919.428,1124.1 921.626,1097.95 923.824,1070.41 926.023,1041.49 928.221,1011.21 930.42,979.612 932.618,946.729 934.816,912.624 937.015,877.368 939.213,841.047 941.411,803.764 943.61,765.636 945.808,726.797 948.006,687.398 950.205,647.605 952.403,607.602 954.601,567.588 956.8,527.778 958.998,488.397 961.197,449.676 963.395,411.847 965.593,375.147 967.792,339.81 969.99,306.063 972.188,274.126 974.387,244.204 976.585,216.486 978.783,191.144 980.982,168.327 983.18,148.16 985.378,130.744 987.577,116.155 989.775,104.442 991.974,95.6278 994.172,89.712 996.37,86.6687 998.569,86.4504 1000.77,88.9888 1002.97,94.1978 1005.16,101.975 1007.36,112.204 1009.56,124.758 1011.76,139.5 1013.96,156.288 1016.16,174.974 1018.35,195.407 1020.55,217.435 1022.75,240.908 1024.95,265.676 1027.15,291.593 1029.35,318.518 1031.54,346.313 1033.74,374.847 1035.94,403.995 1038.14,433.638 1040.34,463.662 1042.54,493.962 1044.73,524.439 1046.93,555.001 1049.13,585.561 1051.33,616.041 1053.53,646.366 1055.73,676.471 1057.92,706.294 1060.12,735.779 1062.32,764.875 1064.52,793.538 1066.72,821.725 1068.92,849.4 1071.11,876.531 1073.31,903.087 1075.51,929.043 1077.71,954.377 1079.91,979.068 1082.11,1003.1 1084.3,1026.46 1086.5,1049.12 1088.7,1071.09 1090.9,1092.36 1093.1,1112.9 1095.3,1132.73 1097.49,1151.83 1099.69,1170.2 1101.89,1187.83 1104.09,1204.72 1106.29,1220.88 1108.49,1236.29 1110.68,1250.96 1112.88,1264.88 1115.08,1278.05 1117.28,1290.48 1119.48,1302.15 1121.68,1313.07 1123.87,1323.23 1126.07,1332.64 1128.27,1341.27 1130.47,1349.15 1132.67,1356.24 1134.87,1362.56 1137.07,1368.09 1139.26,1372.83 1141.46,1376.76 1143.66,1379.87 1145.86,1382.16 1148.06,1383.62 1150.26,1384.22 1152.45,1383.95 1154.65,1382.79 1156.85,1380.74 1159.05,1377.76 1161.25,1373.83 1163.45,1368.94 1165.64,1363.06 1167.84,1356.16 1170.04,1348.22 1172.24,1339.21 1174.44,1329.11 1176.64,1317.88 1178.83,1305.5 1181.03,1291.93 1183.23,1277.15 1185.43,1261.12 1187.63,1243.82 1189.83,1225.22 1192.02,1205.29 1194.22,1184.01 1196.42,1161.37 1198.62,1137.34 1200.82,1111.92 1203.02,1085.11 1205.21,1056.92 1207.41,1027.35 1209.61,996.448 1211.81,964.238 1214.01,930.771 1216.21,896.112 1218.4,860.338 1220.6,823.541 1222.8,785.83 1225,747.332 1227.2,708.19 1229.4,668.566 1231.59,628.638 1233.79,588.6 1235.99,548.655 1238.19,509.02 1240.39,469.922 1242.59,431.594 1244.78,394.27 1246.98,358.187 1249.18,323.577 1251.38,290.663 1253.58,259.658 1255.78,230.761 1257.97,204.152 1260.17,179.992 1262.37,158.419 1264.57,139.546 1266.77,123.465 1268.97,110.236 1271.16,99.8984 1273.36,92.4631 1275.56,87.9173 1277.76,86.2246 1279.96,87.3271 1282.16,91.1473 1284.35,97.5904 1286.55,106.547 1288.75,117.897 1290.95,131.508 1293.15,147.24 1295.35,164.948 1297.55,184.482 1299.74,205.691 1301.94,228.424 1304.14,252.53 1306.34,277.862 1308.54,304.276 1310.74,331.631 1312.93,359.794 1315.13,388.635 1317.33,418.032 1319.53,447.869 1321.73,478.037 1323.93,508.432 1326.12,538.959 1328.32,569.53 1330.52,600.06 1332.72,630.474 1334.92,660.702 1337.12,690.679 1339.31,720.348 1341.51,749.654 1343.71,778.549 1345.91,806.99 1348.11,834.938 1350.31,862.358 1352.5,889.219 1354.7,915.493 1356.9,941.155 1359.1,966.185 1361.3,990.564 1363.5,1014.28 1365.69,1037.31 1367.89,1059.65 1370.09,1081.28 1372.29,1102.2 1374.49,1122.41 1376.69,1141.89 1378.88,1160.64 1381.08,1178.66 1383.28,1195.94 1385.48,1212.48 1387.68,1228.29 1389.88,1243.34 1392.07,1257.66 1394.27,1271.22 1396.47,1284.04 1398.67,1296.11 1400.87,1307.43 1403.07,1317.99 1405.26,1327.79 1407.46,1336.83 1409.66,1345.1 1411.86,1352.61 1414.06,1359.34 1416.26,1365.28 1418.45,1370.43 1420.65,1374.79 1422.85,1378.33 1425.05,1381.06 1427.25,1382.95 1429.45,1384 1431.64,1384.19 1433.84,1383.51 1436.04,1381.93 1438.24,1379.43 1440.44,1376.01 1442.64,1371.62 1444.83,1366.27 1447.03,1359.91 1449.23,1352.52 1451.43,1344.08 1453.63,1334.56 1455.83,1323.93 1458.03,1312.16 1460.22,1299.22 1462.42,1285.08 1464.62,1269.71 1466.82,1253.08 1469.02,1235.16 1471.22,1215.93 1473.41,1195.36 1475.61,1173.43 1477.81,1150.12 1480.01,1125.44 1482.21,1099.36 1484.41,1071.89 1486.6,1043.04 1488.8,1012.84 1491,981.31 1493.2,948.496 1495.4,914.453 1497.6,879.251 1499.79,842.973 1501.99,805.722 1504.19,767.615 1506.39,728.788 1508.59,689.395 1510.79,649.604 1512.98,609.596 1515.18,569.572 1517.38,529.741 1519.58,490.327 1521.78,451.559 1523.98,413.673 1526.17,376.906 1528.37,341.492 1530.57,307.659 1532.77,275.626 1534.97,245.599 1537.17,217.768 1539.36,192.304 1541.56,169.357 1543.76,149.054 1545.96,131.498 1548.16,116.767 1550.36,104.911 1552.55,95.9568 1554.75,89.9033 1556.95,86.7266 1559.15,86.3797 1561.35,88.7943 1563.55,93.8836 1565.74,101.544 1567.94,111.66 1570.14,124.105 1572.34,138.746 1574.54,155.439 1576.74,174.037 1578.93,194.39 1581.13,216.345 1583.33,239.752 1585.53,264.461 1587.73,290.327 1589.93,317.207 1592.12,344.965 1594.32,373.467 1596.52,402.589 1598.72,432.21 1600.92,462.219 1603.12,492.508 1605.31,522.978 1607.51,553.537 1609.71,584.098 1611.91,614.583 1614.11,644.917 1616.31,675.033 1618.5,704.871 1620.7,734.373 1622.9,763.489 1625.1,792.173 1627.3,820.384 1629.5,848.085 1631.7,875.242 1633.89,901.826 1636.09,927.811 1638.29,953.175 1640.49,977.897 1642.69,1001.96 1644.89,1025.35 1647.08,1048.05 1649.28,1070.06 1651.48,1091.35 1653.68,1111.93 1655.88,1131.79 1658.08,1150.93 1660.27,1169.33 1662.47,1187 1664.67,1203.93 1666.87,1220.12 1669.07,1235.57 1671.27,1250.27 1673.46,1264.23 1675.66,1277.44 1677.86,1289.9 1680.06,1301.61 1682.26,1312.56 1684.46,1322.76 1686.65,1332.2 1688.85,1340.88 1691.05,1348.79 1693.25,1355.92 1695.45,1362.27 1697.65,1367.84 1699.84,1372.62 1702.04,1376.59 1704.24,1379.74 1706.44,1382.07 1708.64,1383.57 1710.84,1384.21 1713.03,1383.98 1715.23,1382.87 1717.43,1380.86 1719.63,1377.92 1721.83,1374.04 1724.03,1369.2 1726.22,1363.36 1728.42,1356.52 1730.62,1348.63 1732.82,1339.68 1735.02,1329.63 1737.22,1318.46 1739.41,1306.14 1741.61,1292.63 1743.81,1277.91 1746.01,1261.94 1748.21,1244.7 1750.41,1226.16 1752.6,1206.29 1754.8,1185.07 1757,1162.49 1759.2,1138.53 1761.4,1113.18 1763.6,1086.43 1765.79,1058.31 1767.99,1028.81 1770.19,997.973 1772.39,965.825 1774.59,932.418 1776.79,897.814 1778.98,862.088 1781.18,825.333 1783.38,787.658 1785.58,749.189 1787.78,710.072 1789.98,670.466 1792.18,630.547 1794.37,590.506 1796.57,550.546 1798.77,510.885 1800.97,471.749 1803.17,433.371 1805.37,395.988 1807.56,359.836 1809.76,325.147 1811.96,292.144 1814.16,261.042 1816.36,232.038 1818.56,205.315 1820.75,181.032 1822.95,159.331 1825.15,140.326 1827.35,124.109 1829.55,110.743 1831.75,100.268 1833.94,92.6968 1836.14,88.0184 1838.34,86.1973 1840.54,87.1761 1842.74,90.8778 1844.94,97.2072 1847.13,106.054 1849.33,117.298 1851.53,130.807 1853.73,146.445 1855.93,164.065 1858.13,183.518 1860.32,204.654 1862.52,227.32 1864.72,251.367 1866.92,276.646 1869.12,303.013 1871.32,330.329 1873.51,358.458 1875.71,387.271 1877.91,416.646 1880.11,446.466 1882.31,476.622 1884.51,507.01 1886.7,537.534 1888.9,568.105 1891.1,598.64 1893.3,629.062 1895.5,659.301 1897.7,689.292 1899.89,718.977 1902.09,748.301 1904.29,777.217 1906.49,805.681 1908.69,833.654 1910.89,861.1 1913.08,887.987 1915.28,914.289 1917.48,939.981 1919.68,965.042 1921.88,989.452 1924.08,1013.2 1926.27,1036.26 1928.47,1058.63 1930.67,1080.3 1932.87,1101.26 1935.07,1121.49 1937.27,1141.01 1939.46,1159.79 1941.66,1177.85 1943.86,1195.16 1946.06,1211.74 1948.26,1227.58 1950.46,1242.67 1952.66,1257.02 1954.85,1270.62 1957.05,1283.47 1959.25,1295.58 1961.45,1306.93 1963.65,1317.52 1965.85,1327.36 1968.04,1336.44 1970.24,1344.75 1972.44,1352.29 1974.64,1359.05 1976.84,1365.03 1979.04,1370.22 1981.23,1374.62 1983.43,1378.2 1985.63,1380.96 1987.83,1382.9 1990.03,1383.99 1992.23,1384.22 1994.42,1383.57 1996.62,1382.03 1998.82,1379.58 2001.02,1376.2 2003.22,1371.86 2005.42,1366.54 2007.61,1360.23 2009.81,1352.89 2012.01,1344.5 2014.21,1335.03 2016.41,1324.45 2018.61,1312.73 2020.8,1299.85 2023,1285.76 2025.2,1270.45 2027.4,1253.88 2029.6,1236.03 2031.8,1216.86 2033.99,1196.35 2036.19,1174.49 2038.39,1151.25 2040.59,1126.62 2042.79,1100.61 2044.99,1073.21 2047.18,1044.42 2049.38,1014.28 2051.58,982.815 2053.78,950.061 2055.98,916.076 2058.18,880.928 2060.37,844.702 2062.57,807.496 2064.77,769.428 2066.97,730.631 2069.17,691.26 2071.37,651.482 2073.56,611.481 2075.76,571.453 2077.96,531.609 2080.16,492.171 2082.36,453.367 2084.56,415.435 2086.75,378.609 2088.95,343.125 2091.15,309.211 2093.35,277.087 2095.55,246.961 2097.75,219.022 2099.94,193.443 2102.14,170.374 2104.34,149.945 2106.54,132.258 2108.74,117.391 2110.94,105.398 2113.14,96.3044 2115.33,90.1118 2117.53,86.7972 2119.73,86.3149 2121.93,88.5984 2124.13,93.562 2126.33,101.104 2128.52,111.107 2130.72,123.446 2132.92,137.986 2135.12,154.585 2137.32,173.096 2139.52,193.369 2141.71,215.252 2143.91,238.594 2146.11,263.245 2148.31,289.06 2150.51,315.896 2152.71,343.615 2154.9,372.085 2157.1,401.181 2159.3,430.782 2161.5,460.775 2163.7,491.054 2165.9,521.519 2168.09,552.076 2170.29,582.64 2172.49,613.131 2174.69,643.474 2176.89,673.603 2179.09,703.455 2181.28,732.975 2183.48,762.111 2185.68,790.818 2187.88,819.053 2190.08,846.779 2192.28,873.963 2194.47,900.576 2196.67,926.59 2198.87,951.985 2201.07,976.738 2203.27,1000.83 2205.47,1024.25 2207.66,1046.99 2209.86,1069.03 2212.06,1090.36 2214.26,1110.98 2216.46,1130.87 2218.66,1150.04 2220.85,1168.48 2223.05,1186.18 2225.25,1203.15 2227.45,1219.37 2229.65,1234.85 2231.85,1249.59 2234.04,1263.59 2236.24,1276.83 2238.44,1289.33 2240.64,1301.07 2242.84,1312.07 2245.04,1322.3 2247.23,1331.78 2249.43,1340.49 2251.63,1348.43 2253.83,1355.61 2256.03,1362 2258.23,1367.6 2260.42,1372.42 2262.62,1376.43 2264.82,1379.62 2267.02,1381.99 2269.22,1383.52 2271.42,1384.21 2273.62,1384.02 2275.81,1382.95 2278.01,1380.98 2280.21,1378.09 2282.41,1374.25 2284.61,1369.45 2286.81,1363.66 2289,1356.86 2291.2,1349.02 2293.4,1340.12 2295.6,1330.12 2297.8,1319.01 2300,1306.74 2302.19,1293.29 2304.39,1278.62 2306.59,1262.72 2308.79,1245.54 2310.99,1227.07 2313.19,1207.27 2315.38,1186.12 2317.58,1163.6 2319.78,1139.71 2321.98,1114.42 2324.18,1087.75 2326.38,1059.68 2328.57,1030.25 2330.77,999.476 2332.97,967.391 2335.17,934.044 2337.37,899.499 2339.57,863.83 2341.76,827.129 2343.96,789.503 2346.16,751.076 2348.36,711.989 2350.56,672.403 2352.76,632.495 "/>
<path clip-path="url(#clip810)" d="M229.803 248.629 L674.487 248.629 L674.487 93.1086 L229.803 93.1086  Z" fill="#ffffff" fill-rule="evenodd" fill-opacity="1"/>
<polyline clip-path="url(#clip810)" style="stroke:#000000; stroke-linecap:round; stroke-linejoin:round; stroke-width:4; stroke-opacity:1; fill:none" points="229.803,248.629 674.487,248.629 674.487,93.1086 229.803,93.1086 229.803,248.629 "/>
<polyline clip-path="url(#clip810)" style="stroke:#009af9; stroke-linecap:round; stroke-linejoin:round; stroke-width:4; stroke-opacity:1; fill:none" points="254.205,144.949 400.616,144.949 "/>
<path clip-path="url(#clip810)" d="M425.018 127.669 L429.693 127.669 L429.693 141.835 L446.684 141.835 L446.684 127.669 L451.36 127.669 L451.36 162.229 L446.684 162.229 L446.684 145.77 L429.693 145.77 L429.693 162.229 L425.018 162.229 L425.018 127.669 Z" fill="#000000" fill-rule="nonzero" fill-opacity="1" /><path clip-path="url(#clip810)" d="M482.656 148.201 L482.656 150.284 L463.073 150.284 Q463.351 154.682 465.712 156.997 Q468.096 159.289 472.332 159.289 Q474.786 159.289 477.077 158.687 Q479.392 158.085 481.661 156.881 L481.661 160.909 Q479.369 161.881 476.962 162.391 Q474.554 162.9 472.077 162.9 Q465.874 162.9 462.24 159.289 Q458.628 155.678 458.628 149.52 Q458.628 143.155 462.054 139.428 Q465.503 135.678 471.337 135.678 Q476.568 135.678 479.601 139.057 Q482.656 142.414 482.656 148.201 M478.397 146.951 Q478.351 143.456 476.429 141.372 Q474.531 139.289 471.383 139.289 Q467.818 139.289 465.665 141.303 Q463.536 143.317 463.212 146.974 L478.397 146.951 Z" fill="#000000" fill-rule="nonzero" fill-opacity="1" /><path clip-path="url(#clip810)" d="M504.67 140.284 Q503.952 139.868 503.096 139.682 Q502.262 139.474 501.244 139.474 Q497.633 139.474 495.688 141.835 Q493.767 144.173 493.767 148.571 L493.767 162.229 L489.485 162.229 L489.485 136.303 L493.767 136.303 L493.767 140.331 Q495.11 137.969 497.262 136.835 Q499.415 135.678 502.494 135.678 Q502.934 135.678 503.466 135.747 Q503.999 135.794 504.647 135.909 L504.67 140.284 Z" fill="#000000" fill-rule="nonzero" fill-opacity="1" /><path clip-path="url(#clip810)" d="M527.748 149.289 Q527.748 144.59 525.804 141.928 Q523.883 139.243 520.503 139.243 Q517.123 139.243 515.179 141.928 Q513.258 144.59 513.258 149.289 Q513.258 153.988 515.179 156.673 Q517.123 159.335 520.503 159.335 Q523.883 159.335 525.804 156.673 Q527.748 153.988 527.748 149.289 M513.258 140.238 Q514.6 137.923 516.637 136.812 Q518.698 135.678 521.545 135.678 Q526.267 135.678 529.207 139.428 Q532.17 143.178 532.17 149.289 Q532.17 155.4 529.207 159.15 Q526.267 162.9 521.545 162.9 Q518.698 162.9 516.637 161.789 Q514.6 160.655 513.258 158.34 L513.258 162.229 L508.975 162.229 L508.975 126.21 L513.258 126.21 L513.258 140.238 Z" fill="#000000" fill-rule="nonzero" fill-opacity="1" /><path clip-path="url(#clip810)" d="M539.23 136.303 L543.489 136.303 L543.489 162.229 L539.23 162.229 L539.23 136.303 M539.23 126.21 L543.489 126.21 L543.489 131.604 L539.23 131.604 L539.23 126.21 Z" fill="#000000" fill-rule="nonzero" fill-opacity="1" /><path clip-path="url(#clip810)" d="M549.346 136.303 L553.859 136.303 L561.961 158.062 L570.063 136.303 L574.577 136.303 L564.855 162.229 L559.068 162.229 L549.346 136.303 Z" fill="#000000" fill-rule="nonzero" fill-opacity="1" /><path clip-path="url(#clip810)" d="M590.503 139.289 Q587.077 139.289 585.086 141.974 Q583.095 144.636 583.095 149.289 Q583.095 153.942 585.063 156.627 Q587.054 159.289 590.503 159.289 Q593.905 159.289 595.896 156.604 Q597.887 153.918 597.887 149.289 Q597.887 144.682 595.896 141.997 Q593.905 139.289 590.503 139.289 M590.503 135.678 Q596.058 135.678 599.23 139.289 Q602.401 142.9 602.401 149.289 Q602.401 155.655 599.23 159.289 Q596.058 162.9 590.503 162.9 Q584.924 162.9 581.753 159.289 Q578.605 155.655 578.605 149.289 Q578.605 142.9 581.753 139.289 Q584.924 135.678 590.503 135.678 Z" fill="#000000" fill-rule="nonzero" fill-opacity="1" /><path clip-path="url(#clip810)" d="M624.484 140.284 Q623.766 139.868 622.91 139.682 Q622.077 139.474 621.058 139.474 Q617.447 139.474 615.503 141.835 Q613.581 144.173 613.581 148.571 L613.581 162.229 L609.299 162.229 L609.299 136.303 L613.581 136.303 L613.581 140.331 Q614.924 137.969 617.077 136.835 Q619.229 135.678 622.308 135.678 Q622.748 135.678 623.28 135.747 Q623.813 135.794 624.461 135.909 L624.484 140.284 Z" fill="#000000" fill-rule="nonzero" fill-opacity="1" /><path clip-path="url(#clip810)" d="M650.086 148.201 L650.086 150.284 L630.503 150.284 Q630.78 154.682 633.141 156.997 Q635.526 159.289 639.762 159.289 Q642.215 159.289 644.507 158.687 Q646.822 158.085 649.09 156.881 L649.09 160.909 Q646.799 161.881 644.391 162.391 Q641.984 162.9 639.507 162.9 Q633.303 162.9 629.669 159.289 Q626.058 155.678 626.058 149.52 Q626.058 143.155 629.484 139.428 Q632.933 135.678 638.766 135.678 Q643.998 135.678 647.03 139.057 Q650.086 142.414 650.086 148.201 M645.827 146.951 Q645.78 143.456 643.859 141.372 Q641.961 139.289 638.813 139.289 Q635.248 139.289 633.095 141.303 Q630.965 143.317 630.641 146.974 L645.827 146.951 Z" fill="#000000" fill-rule="nonzero" fill-opacity="1" /><polyline clip-path="url(#clip810)" style="stroke:#e26f46; stroke-linecap:round; stroke-linejoin:round; stroke-width:4; stroke-opacity:1; fill:none" points="254.205,196.789 400.616,196.789 "/>
<path clip-path="url(#clip810)" d="M452.888 182.171 L452.888 187.101 Q450.527 184.902 447.841 183.814 Q445.179 182.726 442.17 182.726 Q436.244 182.726 433.096 186.36 Q429.948 189.972 429.948 196.823 Q429.948 203.652 433.096 207.286 Q436.244 210.897 442.17 210.897 Q445.179 210.897 447.841 209.809 Q450.527 208.721 452.888 206.522 L452.888 211.407 Q450.434 213.073 447.679 213.907 Q444.948 214.74 441.892 214.74 Q434.045 214.74 429.531 209.948 Q425.018 205.133 425.018 196.823 Q425.018 188.49 429.531 183.698 Q434.045 178.884 441.892 178.884 Q444.994 178.884 447.726 179.717 Q450.48 180.527 452.888 182.171 Z" fill="#000000" fill-rule="nonzero" fill-opacity="1" /><path clip-path="url(#clip810)" d="M471.707 201.036 Q466.545 201.036 464.554 202.217 Q462.564 203.397 462.564 206.245 Q462.564 208.513 464.045 209.856 Q465.55 211.175 468.119 211.175 Q471.661 211.175 473.79 208.675 Q475.943 206.152 475.943 201.985 L475.943 201.036 L471.707 201.036 M480.202 199.277 L480.202 214.069 L475.943 214.069 L475.943 210.133 Q474.485 212.495 472.309 213.629 Q470.133 214.74 466.985 214.74 Q463.003 214.74 460.642 212.518 Q458.304 210.272 458.304 206.522 Q458.304 202.147 461.221 199.925 Q464.161 197.703 469.971 197.703 L475.943 197.703 L475.943 197.286 Q475.943 194.347 473.999 192.749 Q472.077 191.129 468.582 191.129 Q466.36 191.129 464.253 191.661 Q462.147 192.194 460.203 193.259 L460.203 189.323 Q462.54 188.421 464.74 187.981 Q466.939 187.518 469.022 187.518 Q474.647 187.518 477.425 190.434 Q480.202 193.351 480.202 199.277 Z" fill="#000000" fill-rule="nonzero" fill-opacity="1" /><path clip-path="url(#clip810)" d="M503.999 192.124 Q503.281 191.708 502.424 191.522 Q501.591 191.314 500.573 191.314 Q496.962 191.314 495.017 193.675 Q493.096 196.013 493.096 200.411 L493.096 214.069 L488.813 214.069 L488.813 188.143 L493.096 188.143 L493.096 192.171 Q494.438 189.809 496.591 188.675 Q498.744 187.518 501.823 187.518 Q502.262 187.518 502.795 187.587 Q503.327 187.634 503.975 187.749 L503.999 192.124 Z" fill="#000000" fill-rule="nonzero" fill-opacity="1" /><path clip-path="url(#clip810)" d="M529.184 198.421 L529.184 214.069 L524.924 214.069 L524.924 198.559 Q524.924 194.879 523.489 193.05 Q522.054 191.222 519.184 191.222 Q515.735 191.222 513.744 193.421 Q511.753 195.62 511.753 199.416 L511.753 214.069 L507.471 214.069 L507.471 188.143 L511.753 188.143 L511.753 192.171 Q513.281 189.833 515.341 188.675 Q517.424 187.518 520.133 187.518 Q524.6 187.518 526.892 190.296 Q529.184 193.05 529.184 198.421 Z" fill="#000000" fill-rule="nonzero" fill-opacity="1" /><path clip-path="url(#clip810)" d="M537.679 188.143 L541.938 188.143 L541.938 214.069 L537.679 214.069 L537.679 188.143 M537.679 178.05 L541.938 178.05 L541.938 183.444 L537.679 183.444 L537.679 178.05 Z" fill="#000000" fill-rule="nonzero" fill-opacity="1" /><path clip-path="url(#clip810)" d="M547.795 188.143 L552.308 188.143 L560.41 209.902 L568.512 188.143 L573.026 188.143 L563.304 214.069 L557.517 214.069 L547.795 188.143 Z" fill="#000000" fill-rule="nonzero" fill-opacity="1" /><path clip-path="url(#clip810)" d="M588.952 191.129 Q585.526 191.129 583.535 193.814 Q581.544 196.476 581.544 201.129 Q581.544 205.782 583.512 208.467 Q585.503 211.129 588.952 211.129 Q592.355 211.129 594.345 208.444 Q596.336 205.758 596.336 201.129 Q596.336 196.522 594.345 193.837 Q592.355 191.129 588.952 191.129 M588.952 187.518 Q594.507 187.518 597.679 191.129 Q600.85 194.74 600.85 201.129 Q600.85 207.495 597.679 211.129 Q594.507 214.74 588.952 214.74 Q583.373 214.74 580.202 211.129 Q577.054 207.495 577.054 201.129 Q577.054 194.74 580.202 191.129 Q583.373 187.518 588.952 187.518 Z" fill="#000000" fill-rule="nonzero" fill-opacity="1" /><path clip-path="url(#clip810)" d="M622.933 192.124 Q622.216 191.708 621.359 191.522 Q620.526 191.314 619.507 191.314 Q615.896 191.314 613.952 193.675 Q612.03 196.013 612.03 200.411 L612.03 214.069 L607.748 214.069 L607.748 188.143 L612.03 188.143 L612.03 192.171 Q613.373 189.809 615.526 188.675 Q617.679 187.518 620.757 187.518 Q621.197 187.518 621.729 187.587 Q622.262 187.634 622.91 187.749 L622.933 192.124 Z" fill="#000000" fill-rule="nonzero" fill-opacity="1" /><path clip-path="url(#clip810)" d="M648.535 200.041 L648.535 202.124 L628.952 202.124 Q629.229 206.522 631.59 208.837 Q633.975 211.129 638.211 211.129 Q640.664 211.129 642.956 210.527 Q645.271 209.925 647.539 208.721 L647.539 212.749 Q645.248 213.721 642.84 214.231 Q640.433 214.74 637.956 214.74 Q631.753 214.74 628.118 211.129 Q624.507 207.518 624.507 201.36 Q624.507 194.995 627.933 191.268 Q631.382 187.518 637.215 187.518 Q642.447 187.518 645.479 190.897 Q648.535 194.254 648.535 200.041 M644.276 198.791 Q644.229 195.296 642.308 193.212 Q640.41 191.129 637.262 191.129 Q633.697 191.129 631.544 193.143 Q629.415 195.157 629.09 198.814 L644.276 198.791 Z" fill="#000000" fill-rule="nonzero" fill-opacity="1" /></svg>
