<?xml version="1.0" encoding="utf-8"?>
<svg xmlns="http://www.w3.org/2000/svg" xmlns:xlink="http://www.w3.org/1999/xlink" width="600" height="400" viewBox="0 0 2400 1600">
<defs>
  <clipPath id="clip580">
    <rect x="0" y="0" width="2400" height="1600"/>
  </clipPath>
</defs>
<path clip-path="url(#clip580)" d="M0 1600 L2400 1600 L2400 0 L0 0  Z" fill="#ffffff" fill-rule="evenodd" fill-opacity="1"/>
<defs>
  <clipPath id="clip581">
    <rect x="480" y="0" width="1681" height="1600"/>
  </clipPath>
</defs>
<path clip-path="url(#clip580)" d="M219.866 1423.18 L2352.76 1423.18 L2352.76 47.2441 L219.866 47.2441  Z" fill="#ffffff" fill-rule="evenodd" fill-opacity="1"/>
<defs>
  <clipPath id="clip582">
    <rect x="219" y="47" width="2134" height="1377"/>
  </clipPath>
</defs>
<polyline clip-path="url(#clip582)" style="stroke:#000000; stroke-linecap:round; stroke-linejoin:round; stroke-width:2; stroke-opacity:0.1; fill:none" points="432.492,1423.18 432.492,47.2441 "/>
<polyline clip-path="url(#clip582)" style="stroke:#000000; stroke-linecap:round; stroke-linejoin:round; stroke-width:2; stroke-opacity:0.1; fill:none" points="723.815,1423.18 723.815,47.2441 "/>
<polyline clip-path="url(#clip582)" style="stroke:#000000; stroke-linecap:round; stroke-linejoin:round; stroke-width:2; stroke-opacity:0.1; fill:none" points="1015.14,1423.18 1015.14,47.2441 "/>
<polyline clip-path="url(#clip582)" style="stroke:#000000; stroke-linecap:round; stroke-linejoin:round; stroke-width:2; stroke-opacity:0.1; fill:none" points="1306.46,1423.18 1306.46,47.2441 "/>
<polyline clip-path="url(#clip582)" style="stroke:#000000; stroke-linecap:round; stroke-linejoin:round; stroke-width:2; stroke-opacity:0.1; fill:none" points="1597.78,1423.18 1597.78,47.2441 "/>
<polyline clip-path="url(#clip582)" style="stroke:#000000; stroke-linecap:round; stroke-linejoin:round; stroke-width:2; stroke-opacity:0.1; fill:none" points="1889.11,1423.18 1889.11,47.2441 "/>
<polyline clip-path="url(#clip582)" style="stroke:#000000; stroke-linecap:round; stroke-linejoin:round; stroke-width:2; stroke-opacity:0.1; fill:none" points="2180.43,1423.18 2180.43,47.2441 "/>
<polyline clip-path="url(#clip580)" style="stroke:#000000; stroke-linecap:round; stroke-linejoin:round; stroke-width:4; stroke-opacity:1; fill:none" points="219.866,1423.18 2352.76,1423.18 "/>
<polyline clip-path="url(#clip580)" style="stroke:#000000; stroke-linecap:round; stroke-linejoin:round; stroke-width:4; stroke-opacity:1; fill:none" points="432.492,1423.18 432.492,1404.28 "/>
<polyline clip-path="url(#clip580)" style="stroke:#000000; stroke-linecap:round; stroke-linejoin:round; stroke-width:4; stroke-opacity:1; fill:none" points="723.815,1423.18 723.815,1404.28 "/>
<polyline clip-path="url(#clip580)" style="stroke:#000000; stroke-linecap:round; stroke-linejoin:round; stroke-width:4; stroke-opacity:1; fill:none" points="1015.14,1423.18 1015.14,1404.28 "/>
<polyline clip-path="url(#clip580)" style="stroke:#000000; stroke-linecap:round; stroke-linejoin:round; stroke-width:4; stroke-opacity:1; fill:none" points="1306.46,1423.18 1306.46,1404.28 "/>
<polyline clip-path="url(#clip580)" style="stroke:#000000; stroke-linecap:round; stroke-linejoin:round; stroke-width:4; stroke-opacity:1; fill:none" points="1597.78,1423.18 1597.78,1404.28 "/>
<polyline clip-path="url(#clip580)" style="stroke:#000000; stroke-linecap:round; stroke-linejoin:round; stroke-width:4; stroke-opacity:1; fill:none" points="1889.11,1423.18 1889.11,1404.28 "/>
<polyline clip-path="url(#clip580)" style="stroke:#000000; stroke-linecap:round; stroke-linejoin:round; stroke-width:4; stroke-opacity:1; fill:none" points="2180.43,1423.18 2180.43,1404.28 "/>
<path clip-path="url(#clip580)" d="M410.201 1454.1 Q406.59 1454.1 404.761 1457.66 Q402.956 1461.2 402.956 1468.33 Q402.956 1475.44 404.761 1479.01 Q406.59 1482.55 410.201 1482.55 Q413.835 1482.55 415.641 1479.01 Q417.469 1475.44 417.469 1468.33 Q417.469 1461.2 415.641 1457.66 Q413.835 1454.1 410.201 1454.1 M410.201 1450.39 Q416.011 1450.39 419.067 1455 Q422.145 1459.58 422.145 1468.33 Q422.145 1477.06 419.067 1481.67 Q416.011 1486.25 410.201 1486.25 Q404.391 1486.25 401.312 1481.67 Q398.256 1477.06 398.256 1468.33 Q398.256 1459.58 401.312 1455 Q404.391 1450.39 410.201 1450.39 Z" fill="#000000" fill-rule="nonzero" fill-opacity="1" /><path clip-path="url(#clip580)" d="M430.363 1479.7 L435.247 1479.7 L435.247 1485.58 L430.363 1485.58 L430.363 1479.7 Z" fill="#000000" fill-rule="nonzero" fill-opacity="1" /><path clip-path="url(#clip580)" d="M459.599 1466.95 Q462.955 1467.66 464.83 1469.93 Q466.728 1472.2 466.728 1475.53 Q466.728 1480.65 463.21 1483.45 Q459.691 1486.25 453.21 1486.25 Q451.034 1486.25 448.719 1485.81 Q446.428 1485.39 443.974 1484.54 L443.974 1480.02 Q445.918 1481.16 448.233 1481.74 Q450.548 1482.32 453.071 1482.32 Q457.469 1482.32 459.761 1480.58 Q462.076 1478.84 462.076 1475.53 Q462.076 1472.48 459.923 1470.77 Q457.793 1469.03 453.974 1469.03 L449.946 1469.03 L449.946 1465.19 L454.159 1465.19 Q457.608 1465.19 459.437 1463.82 Q461.265 1462.43 461.265 1459.84 Q461.265 1457.18 459.367 1455.77 Q457.492 1454.33 453.974 1454.33 Q452.052 1454.33 449.853 1454.75 Q447.654 1455.16 445.015 1456.04 L445.015 1451.88 Q447.678 1451.14 449.992 1450.77 Q452.33 1450.39 454.39 1450.39 Q459.714 1450.39 462.816 1452.83 Q465.918 1455.23 465.918 1459.35 Q465.918 1462.22 464.275 1464.21 Q462.631 1466.18 459.599 1466.95 Z" fill="#000000" fill-rule="nonzero" fill-opacity="1" /><path clip-path="url(#clip580)" d="M700.956 1454.1 Q697.345 1454.1 695.517 1457.66 Q693.711 1461.2 693.711 1468.33 Q693.711 1475.44 695.517 1479.01 Q697.345 1482.55 700.956 1482.55 Q704.591 1482.55 706.396 1479.01 Q708.225 1475.44 708.225 1468.33 Q708.225 1461.2 706.396 1457.66 Q704.591 1454.1 700.956 1454.1 M700.956 1450.39 Q706.767 1450.39 709.822 1455 Q712.901 1459.58 712.901 1468.33 Q712.901 1477.06 709.822 1481.67 Q706.767 1486.25 700.956 1486.25 Q695.146 1486.25 692.068 1481.67 Q689.012 1477.06 689.012 1468.33 Q689.012 1459.58 692.068 1455 Q695.146 1450.39 700.956 1450.39 Z" fill="#000000" fill-rule="nonzero" fill-opacity="1" /><path clip-path="url(#clip580)" d="M721.118 1479.7 L726.003 1479.7 L726.003 1485.58 L721.118 1485.58 L721.118 1479.7 Z" fill="#000000" fill-rule="nonzero" fill-opacity="1" /><path clip-path="url(#clip580)" d="M749.035 1455.09 L737.229 1473.54 L749.035 1473.54 L749.035 1455.09 M747.808 1451.02 L753.688 1451.02 L753.688 1473.54 L758.618 1473.54 L758.618 1477.43 L753.688 1477.43 L753.688 1485.58 L749.035 1485.58 L749.035 1477.43 L733.433 1477.43 L733.433 1472.92 L747.808 1451.02 Z" fill="#000000" fill-rule="nonzero" fill-opacity="1" /><path clip-path="url(#clip580)" d="M993.02 1454.1 Q989.409 1454.1 987.58 1457.66 Q985.775 1461.2 985.775 1468.33 Q985.775 1475.44 987.58 1479.01 Q989.409 1482.55 993.02 1482.55 Q996.654 1482.55 998.46 1479.01 Q1000.29 1475.44 1000.29 1468.33 Q1000.29 1461.2 998.46 1457.66 Q996.654 1454.1 993.02 1454.1 M993.02 1450.39 Q998.83 1450.39 1001.89 1455 Q1004.96 1459.58 1004.96 1468.33 Q1004.96 1477.06 1001.89 1481.67 Q998.83 1486.25 993.02 1486.25 Q987.21 1486.25 984.131 1481.67 Q981.076 1477.06 981.076 1468.33 Q981.076 1459.58 984.131 1455 Q987.21 1450.39 993.02 1450.39 Z" fill="#000000" fill-rule="nonzero" fill-opacity="1" /><path clip-path="url(#clip580)" d="M1013.18 1479.7 L1018.07 1479.7 L1018.07 1485.58 L1013.18 1485.58 L1013.18 1479.7 Z" fill="#000000" fill-rule="nonzero" fill-opacity="1" /><path clip-path="url(#clip580)" d="M1028.3 1451.02 L1046.65 1451.02 L1046.65 1454.96 L1032.58 1454.96 L1032.58 1463.43 Q1033.6 1463.08 1034.62 1462.92 Q1035.64 1462.73 1036.65 1462.73 Q1042.44 1462.73 1045.82 1465.9 Q1049.2 1469.08 1049.2 1474.49 Q1049.2 1480.07 1045.73 1483.17 Q1042.26 1486.25 1035.94 1486.25 Q1033.76 1486.25 1031.49 1485.88 Q1029.25 1485.51 1026.84 1484.77 L1026.84 1480.07 Q1028.92 1481.2 1031.14 1481.76 Q1033.37 1482.32 1035.84 1482.32 Q1039.85 1482.32 1042.19 1480.21 Q1044.52 1478.1 1044.52 1474.49 Q1044.52 1470.88 1042.19 1468.77 Q1039.85 1466.67 1035.84 1466.67 Q1033.97 1466.67 1032.09 1467.08 Q1030.24 1467.5 1028.3 1468.38 L1028.3 1451.02 Z" fill="#000000" fill-rule="nonzero" fill-opacity="1" /><path clip-path="url(#clip580)" d="M1283.76 1454.1 Q1280.15 1454.1 1278.32 1457.66 Q1276.52 1461.2 1276.52 1468.33 Q1276.52 1475.44 1278.32 1479.01 Q1280.15 1482.55 1283.76 1482.55 Q1287.4 1482.55 1289.2 1479.01 Q1291.03 1475.44 1291.03 1468.33 Q1291.03 1461.2 1289.2 1457.66 Q1287.4 1454.1 1283.76 1454.1 M1283.76 1450.39 Q1289.57 1450.39 1292.63 1455 Q1295.71 1459.58 1295.71 1468.33 Q1295.71 1477.06 1292.63 1481.67 Q1289.57 1486.25 1283.76 1486.25 Q1277.95 1486.25 1274.88 1481.67 Q1271.82 1477.06 1271.82 1468.33 Q1271.82 1459.58 1274.88 1455 Q1277.95 1450.39 1283.76 1450.39 Z" fill="#000000" fill-rule="nonzero" fill-opacity="1" /><path clip-path="url(#clip580)" d="M1303.93 1479.7 L1308.81 1479.7 L1308.81 1485.58 L1303.93 1485.58 L1303.93 1479.7 Z" fill="#000000" fill-rule="nonzero" fill-opacity="1" /><path clip-path="url(#clip580)" d="M1329.57 1466.44 Q1326.43 1466.44 1324.57 1468.59 Q1322.75 1470.74 1322.75 1474.49 Q1322.75 1478.22 1324.57 1480.39 Q1326.43 1482.55 1329.57 1482.55 Q1332.72 1482.55 1334.55 1480.39 Q1336.4 1478.22 1336.4 1474.49 Q1336.4 1470.74 1334.55 1468.59 Q1332.72 1466.44 1329.57 1466.44 M1338.86 1451.78 L1338.86 1456.04 Q1337.1 1455.21 1335.29 1454.77 Q1333.51 1454.33 1331.75 1454.33 Q1327.12 1454.33 1324.67 1457.45 Q1322.24 1460.58 1321.89 1466.9 Q1323.25 1464.89 1325.31 1463.82 Q1327.37 1462.73 1329.85 1462.73 Q1335.06 1462.73 1338.07 1465.9 Q1341.1 1469.05 1341.1 1474.49 Q1341.1 1479.82 1337.95 1483.03 Q1334.81 1486.25 1329.57 1486.25 Q1323.58 1486.25 1320.41 1481.67 Q1317.24 1477.06 1317.24 1468.33 Q1317.24 1460.14 1321.12 1455.28 Q1325.01 1450.39 1331.56 1450.39 Q1333.32 1450.39 1335.11 1450.74 Q1336.91 1451.09 1338.86 1451.78 Z" fill="#000000" fill-rule="nonzero" fill-opacity="1" /><path clip-path="url(#clip580)" d="M1575.62 1454.1 Q1572.01 1454.1 1570.18 1457.66 Q1568.37 1461.2 1568.37 1468.33 Q1568.37 1475.44 1570.18 1479.01 Q1572.01 1482.55 1575.62 1482.55 Q1579.25 1482.55 1581.06 1479.01 Q1582.89 1475.44 1582.89 1468.33 Q1582.89 1461.2 1581.06 1457.66 Q1579.25 1454.1 1575.62 1454.1 M1575.62 1450.39 Q1581.43 1450.39 1584.48 1455 Q1587.56 1459.58 1587.56 1468.33 Q1587.56 1477.06 1584.48 1481.67 Q1581.43 1486.25 1575.62 1486.25 Q1569.81 1486.25 1566.73 1481.67 Q1563.67 1477.06 1563.67 1468.33 Q1563.67 1459.58 1566.73 1455 Q1569.81 1450.39 1575.62 1450.39 Z" fill="#000000" fill-rule="nonzero" fill-opacity="1" /><path clip-path="url(#clip580)" d="M1595.78 1479.7 L1600.67 1479.7 L1600.67 1485.58 L1595.78 1485.58 L1595.78 1479.7 Z" fill="#000000" fill-rule="nonzero" fill-opacity="1" /><path clip-path="url(#clip580)" d="M1609.67 1451.02 L1631.89 1451.02 L1631.89 1453.01 L1619.35 1485.58 L1614.46 1485.58 L1626.27 1454.96 L1609.67 1454.96 L1609.67 1451.02 Z" fill="#000000" fill-rule="nonzero" fill-opacity="1" /><path clip-path="url(#clip580)" d="M1866.54 1454.1 Q1862.93 1454.1 1861.1 1457.66 Q1859.29 1461.2 1859.29 1468.33 Q1859.29 1475.44 1861.1 1479.01 Q1862.93 1482.55 1866.54 1482.55 Q1870.17 1482.55 1871.98 1479.01 Q1873.81 1475.44 1873.81 1468.33 Q1873.81 1461.2 1871.98 1457.66 Q1870.17 1454.1 1866.54 1454.1 M1866.54 1450.39 Q1872.35 1450.39 1875.4 1455 Q1878.48 1459.58 1878.48 1468.33 Q1878.48 1477.06 1875.4 1481.67 Q1872.35 1486.25 1866.54 1486.25 Q1860.73 1486.25 1857.65 1481.67 Q1854.59 1477.06 1854.59 1468.33 Q1854.59 1459.58 1857.65 1455 Q1860.73 1450.39 1866.54 1450.39 Z" fill="#000000" fill-rule="nonzero" fill-opacity="1" /><path clip-path="url(#clip580)" d="M1886.7 1479.7 L1891.58 1479.7 L1891.58 1485.58 L1886.7 1485.58 L1886.7 1479.7 Z" fill="#000000" fill-rule="nonzero" fill-opacity="1" /><path clip-path="url(#clip580)" d="M1911.77 1469.17 Q1908.43 1469.17 1906.51 1470.95 Q1904.62 1472.73 1904.62 1475.86 Q1904.62 1478.98 1906.51 1480.77 Q1908.43 1482.55 1911.77 1482.55 Q1915.1 1482.55 1917.02 1480.77 Q1918.94 1478.96 1918.94 1475.86 Q1918.94 1472.73 1917.02 1470.95 Q1915.12 1469.17 1911.77 1469.17 M1907.09 1467.18 Q1904.08 1466.44 1902.39 1464.38 Q1900.73 1462.32 1900.73 1459.35 Q1900.73 1455.21 1903.67 1452.8 Q1906.63 1450.39 1911.77 1450.39 Q1916.93 1450.39 1919.87 1452.8 Q1922.81 1455.21 1922.81 1459.35 Q1922.81 1462.32 1921.12 1464.38 Q1919.45 1466.44 1916.47 1467.18 Q1919.85 1467.96 1921.72 1470.26 Q1923.62 1472.55 1923.62 1475.86 Q1923.62 1480.88 1920.54 1483.57 Q1917.49 1486.25 1911.77 1486.25 Q1906.05 1486.25 1902.97 1483.57 Q1899.92 1480.88 1899.92 1475.86 Q1899.92 1472.55 1901.81 1470.26 Q1903.71 1467.96 1907.09 1467.18 M1905.38 1459.79 Q1905.38 1462.48 1907.05 1463.98 Q1908.74 1465.49 1911.77 1465.49 Q1914.78 1465.49 1916.47 1463.98 Q1918.18 1462.48 1918.18 1459.79 Q1918.18 1457.11 1916.47 1455.6 Q1914.78 1454.1 1911.77 1454.1 Q1908.74 1454.1 1907.05 1455.6 Q1905.38 1457.11 1905.38 1459.79 Z" fill="#000000" fill-rule="nonzero" fill-opacity="1" /><path clip-path="url(#clip580)" d="M2157.91 1454.1 Q2154.29 1454.1 2152.47 1457.66 Q2150.66 1461.2 2150.66 1468.33 Q2150.66 1475.44 2152.47 1479.01 Q2154.29 1482.55 2157.91 1482.55 Q2161.54 1482.55 2163.35 1479.01 Q2165.17 1475.44 2165.17 1468.33 Q2165.17 1461.2 2163.35 1457.66 Q2161.54 1454.1 2157.91 1454.1 M2157.91 1450.39 Q2163.72 1450.39 2166.77 1455 Q2169.85 1459.58 2169.85 1468.33 Q2169.85 1477.06 2166.77 1481.67 Q2163.72 1486.25 2157.91 1486.25 Q2152.1 1486.25 2149.02 1481.67 Q2145.96 1477.06 2145.96 1468.33 Q2145.96 1459.58 2149.02 1455 Q2152.1 1450.39 2157.91 1450.39 Z" fill="#000000" fill-rule="nonzero" fill-opacity="1" /><path clip-path="url(#clip580)" d="M2178.07 1479.7 L2182.95 1479.7 L2182.95 1485.58 L2178.07 1485.58 L2178.07 1479.7 Z" fill="#000000" fill-rule="nonzero" fill-opacity="1" /><path clip-path="url(#clip580)" d="M2193.28 1484.86 L2193.28 1480.6 Q2195.04 1481.44 2196.84 1481.88 Q2198.65 1482.32 2200.38 1482.32 Q2205.01 1482.32 2207.44 1479.21 Q2209.9 1476.09 2210.24 1469.75 Q2208.9 1471.74 2206.84 1472.8 Q2204.78 1473.87 2202.28 1473.87 Q2197.1 1473.87 2194.06 1470.74 Q2191.05 1467.59 2191.05 1462.15 Q2191.05 1456.83 2194.2 1453.61 Q2197.35 1450.39 2202.58 1450.39 Q2208.58 1450.39 2211.72 1455 Q2214.9 1459.58 2214.9 1468.33 Q2214.9 1476.51 2211.01 1481.39 Q2207.14 1486.25 2200.59 1486.25 Q2198.83 1486.25 2197.03 1485.9 Q2195.22 1485.56 2193.28 1484.86 M2202.58 1470.21 Q2205.73 1470.21 2207.56 1468.06 Q2209.41 1465.9 2209.41 1462.15 Q2209.41 1458.43 2207.56 1456.27 Q2205.73 1454.1 2202.58 1454.1 Q2199.43 1454.1 2197.58 1456.27 Q2195.75 1458.43 2195.75 1462.15 Q2195.75 1465.9 2197.58 1468.06 Q2199.43 1470.21 2202.58 1470.21 Z" fill="#000000" fill-rule="nonzero" fill-opacity="1" /><path clip-path="url(#clip580)" d="M1131.58 1520.52 L1138.01 1520.52 L1138.01 1540 L1161.37 1540 L1161.37 1520.52 L1167.8 1520.52 L1167.8 1568.04 L1161.37 1568.04 L1161.37 1545.41 L1138.01 1545.41 L1138.01 1568.04 L1131.58 1568.04 L1131.58 1520.52 Z" fill="#000000" fill-rule="nonzero" fill-opacity="1" /><path clip-path="url(#clip580)" d="M1210.83 1548.76 L1210.83 1551.62 L1183.9 1551.62 Q1184.28 1557.67 1187.53 1560.85 Q1190.81 1564 1196.63 1564 Q1200.01 1564 1203.16 1563.17 Q1206.34 1562.35 1209.46 1560.69 L1209.46 1566.23 Q1206.31 1567.57 1203 1568.27 Q1199.69 1568.97 1196.28 1568.97 Q1187.75 1568.97 1182.76 1564 Q1177.79 1559.04 1177.79 1550.57 Q1177.79 1541.82 1182.5 1536.69 Q1187.24 1531.54 1195.27 1531.54 Q1202.46 1531.54 1206.63 1536.18 Q1210.83 1540.8 1210.83 1548.76 M1204.97 1547.04 Q1204.91 1542.23 1202.27 1539.37 Q1199.66 1536.5 1195.33 1536.5 Q1190.43 1536.5 1187.47 1539.27 Q1184.54 1542.04 1184.09 1547.07 L1204.97 1547.04 Z" fill="#000000" fill-rule="nonzero" fill-opacity="1" /><path clip-path="url(#clip580)" d="M1241.1 1537.87 Q1240.11 1537.3 1238.93 1537.04 Q1237.79 1536.76 1236.39 1536.76 Q1231.42 1536.76 1228.75 1540 Q1226.11 1543.22 1226.11 1549.27 L1226.11 1568.04 L1220.22 1568.04 L1220.22 1532.4 L1226.11 1532.4 L1226.11 1537.93 Q1227.95 1534.69 1230.91 1533.13 Q1233.87 1531.54 1238.11 1531.54 Q1238.71 1531.54 1239.44 1531.63 Q1240.18 1531.7 1241.07 1531.85 L1241.1 1537.87 Z" fill="#000000" fill-rule="nonzero" fill-opacity="1" /><path clip-path="url(#clip580)" d="M1272.83 1550.25 Q1272.83 1543.79 1270.16 1540.13 Q1267.52 1536.44 1262.87 1536.44 Q1258.22 1536.44 1255.55 1540.13 Q1252.91 1543.79 1252.91 1550.25 Q1252.91 1556.71 1255.55 1560.4 Q1258.22 1564.07 1262.87 1564.07 Q1267.52 1564.07 1270.16 1560.4 Q1272.83 1556.71 1272.83 1550.25 M1252.91 1537.81 Q1254.75 1534.62 1257.55 1533.1 Q1260.39 1531.54 1264.3 1531.54 Q1270.79 1531.54 1274.84 1536.69 Q1278.91 1541.85 1278.91 1550.25 Q1278.91 1558.65 1274.84 1563.81 Q1270.79 1568.97 1264.3 1568.97 Q1260.39 1568.97 1257.55 1567.44 Q1254.75 1565.88 1252.91 1562.7 L1252.91 1568.04 L1247.02 1568.04 L1247.02 1518.52 L1252.91 1518.52 L1252.91 1537.81 Z" fill="#000000" fill-rule="nonzero" fill-opacity="1" /><path clip-path="url(#clip580)" d="M1288.62 1532.4 L1294.48 1532.4 L1294.48 1568.04 L1288.62 1568.04 L1288.62 1532.4 M1288.62 1518.52 L1294.48 1518.52 L1294.48 1525.93 L1288.62 1525.93 L1288.62 1518.52 Z" fill="#000000" fill-rule="nonzero" fill-opacity="1" /><path clip-path="url(#clip580)" d="M1302.53 1532.4 L1308.73 1532.4 L1319.87 1562.31 L1331.01 1532.4 L1337.22 1532.4 L1323.85 1568.04 L1315.9 1568.04 L1302.53 1532.4 Z" fill="#000000" fill-rule="nonzero" fill-opacity="1" /><path clip-path="url(#clip580)" d="M1359.12 1536.5 Q1354.41 1536.5 1351.67 1540.19 Q1348.93 1543.85 1348.93 1550.25 Q1348.93 1556.65 1351.64 1560.34 Q1354.38 1564 1359.12 1564 Q1363.8 1564 1366.53 1560.31 Q1369.27 1556.62 1369.27 1550.25 Q1369.27 1543.92 1366.53 1540.23 Q1363.8 1536.5 1359.12 1536.5 M1359.12 1531.54 Q1366.76 1531.54 1371.12 1536.5 Q1375.48 1541.47 1375.48 1550.25 Q1375.48 1559 1371.12 1564 Q1366.76 1568.97 1359.12 1568.97 Q1351.45 1568.97 1347.09 1564 Q1342.76 1559 1342.76 1550.25 Q1342.76 1541.47 1347.09 1536.5 Q1351.45 1531.54 1359.12 1531.54 Z" fill="#000000" fill-rule="nonzero" fill-opacity="1" /><path clip-path="url(#clip580)" d="M1405.84 1537.87 Q1404.86 1537.3 1403.68 1537.04 Q1402.53 1536.76 1401.13 1536.76 Q1396.17 1536.76 1393.49 1540 Q1390.85 1543.22 1390.85 1549.27 L1390.85 1568.04 L1384.96 1568.04 L1384.96 1532.4 L1390.85 1532.4 L1390.85 1537.93 Q1392.7 1534.69 1395.66 1533.13 Q1398.62 1531.54 1402.85 1531.54 Q1403.46 1531.54 1404.19 1531.63 Q1404.92 1531.7 1405.81 1531.85 L1405.84 1537.87 Z" fill="#000000" fill-rule="nonzero" fill-opacity="1" /><path clip-path="url(#clip580)" d="M1441.05 1548.76 L1441.05 1551.62 L1414.12 1551.62 Q1414.5 1557.67 1417.75 1560.85 Q1421.03 1564 1426.85 1564 Q1430.22 1564 1433.37 1563.17 Q1436.56 1562.35 1439.68 1560.69 L1439.68 1566.23 Q1436.53 1567.57 1433.22 1568.27 Q1429.91 1568.97 1426.5 1568.97 Q1417.97 1568.97 1412.97 1564 Q1408.01 1559.04 1408.01 1550.57 Q1408.01 1541.82 1412.72 1536.69 Q1417.46 1531.54 1425.48 1531.54 Q1432.67 1531.54 1436.84 1536.18 Q1441.05 1540.8 1441.05 1548.76 M1435.19 1547.04 Q1435.13 1542.23 1432.48 1539.37 Q1429.87 1536.5 1425.55 1536.5 Q1420.64 1536.5 1417.68 1539.27 Q1414.76 1542.04 1414.31 1547.07 L1435.19 1547.04 Z" fill="#000000" fill-rule="nonzero" fill-opacity="1" /><polyline clip-path="url(#clip582)" style="stroke:#000000; stroke-linecap:round; stroke-linejoin:round; stroke-width:2; stroke-opacity:0.1; fill:none" points="219.866,1384.24 2352.76,1384.24 "/>
<polyline clip-path="url(#clip582)" style="stroke:#000000; stroke-linecap:round; stroke-linejoin:round; stroke-width:2; stroke-opacity:0.1; fill:none" points="219.866,1087.01 2352.76,1087.01 "/>
<polyline clip-path="url(#clip582)" style="stroke:#000000; stroke-linecap:round; stroke-linejoin:round; stroke-width:2; stroke-opacity:0.1; fill:none" points="219.866,789.773 2352.76,789.773 "/>
<polyline clip-path="url(#clip582)" style="stroke:#000000; stroke-linecap:round; stroke-linejoin:round; stroke-width:2; stroke-opacity:0.1; fill:none" points="219.866,492.54 2352.76,492.54 "/>
<polyline clip-path="url(#clip582)" style="stroke:#000000; stroke-linecap:round; stroke-linejoin:round; stroke-width:2; stroke-opacity:0.1; fill:none" points="219.866,195.308 2352.76,195.308 "/>
<polyline clip-path="url(#clip580)" style="stroke:#000000; stroke-linecap:round; stroke-linejoin:round; stroke-width:4; stroke-opacity:1; fill:none" points="219.866,1423.18 219.866,47.2441 "/>
<polyline clip-path="url(#clip580)" style="stroke:#000000; stroke-linecap:round; stroke-linejoin:round; stroke-width:4; stroke-opacity:1; fill:none" points="219.866,1384.24 238.764,1384.24 "/>
<polyline clip-path="url(#clip580)" style="stroke:#000000; stroke-linecap:round; stroke-linejoin:round; stroke-width:4; stroke-opacity:1; fill:none" points="219.866,1087.01 238.764,1087.01 "/>
<polyline clip-path="url(#clip580)" style="stroke:#000000; stroke-linecap:round; stroke-linejoin:round; stroke-width:4; stroke-opacity:1; fill:none" points="219.866,789.773 238.764,789.773 "/>
<polyline clip-path="url(#clip580)" style="stroke:#000000; stroke-linecap:round; stroke-linejoin:round; stroke-width:4; stroke-opacity:1; fill:none" points="219.866,492.54 238.764,492.54 "/>
<polyline clip-path="url(#clip580)" style="stroke:#000000; stroke-linecap:round; stroke-linejoin:round; stroke-width:4; stroke-opacity:1; fill:none" points="219.866,195.308 238.764,195.308 "/>
<path clip-path="url(#clip580)" d="M126.691 1370.04 Q123.08 1370.04 121.251 1373.6 Q119.445 1377.14 119.445 1384.27 Q119.445 1391.38 121.251 1394.94 Q123.08 1398.49 126.691 1398.49 Q130.325 1398.49 132.13 1394.94 Q133.959 1391.38 133.959 1384.27 Q133.959 1377.14 132.13 1373.6 Q130.325 1370.04 126.691 1370.04 M126.691 1366.33 Q132.501 1366.33 135.556 1370.94 Q138.635 1375.52 138.635 1384.27 Q138.635 1393 135.556 1397.61 Q132.501 1402.19 126.691 1402.19 Q120.88 1402.19 117.802 1397.61 Q114.746 1393 114.746 1384.27 Q114.746 1375.52 117.802 1370.94 Q120.88 1366.33 126.691 1366.33 Z" fill="#000000" fill-rule="nonzero" fill-opacity="1" /><path clip-path="url(#clip580)" d="M146.853 1395.64 L151.737 1395.64 L151.737 1401.52 L146.853 1401.52 L146.853 1395.64 Z" fill="#000000" fill-rule="nonzero" fill-opacity="1" /><path clip-path="url(#clip580)" d="M171.922 1370.04 Q168.311 1370.04 166.482 1373.6 Q164.677 1377.14 164.677 1384.27 Q164.677 1391.38 166.482 1394.94 Q168.311 1398.49 171.922 1398.49 Q175.556 1398.49 177.362 1394.94 Q179.19 1391.38 179.19 1384.27 Q179.19 1377.14 177.362 1373.6 Q175.556 1370.04 171.922 1370.04 M171.922 1366.33 Q177.732 1366.33 180.788 1370.94 Q183.866 1375.52 183.866 1384.27 Q183.866 1393 180.788 1397.61 Q177.732 1402.19 171.922 1402.19 Q166.112 1402.19 163.033 1397.61 Q159.978 1393 159.978 1384.27 Q159.978 1375.52 163.033 1370.94 Q166.112 1366.33 171.922 1366.33 Z" fill="#000000" fill-rule="nonzero" fill-opacity="1" /><path clip-path="url(#clip580)" d="M128.288 1072.8 Q124.677 1072.8 122.848 1076.37 Q121.043 1079.91 121.043 1087.04 Q121.043 1094.15 122.848 1097.71 Q124.677 1101.25 128.288 1101.25 Q131.922 1101.25 133.728 1097.71 Q135.556 1094.15 135.556 1087.04 Q135.556 1079.91 133.728 1076.37 Q131.922 1072.8 128.288 1072.8 M128.288 1069.1 Q134.098 1069.1 137.154 1073.71 Q140.232 1078.29 140.232 1087.04 Q140.232 1095.77 137.154 1100.37 Q134.098 1104.96 128.288 1104.96 Q122.478 1104.96 119.399 1100.37 Q116.343 1095.77 116.343 1087.04 Q116.343 1078.29 119.399 1073.71 Q122.478 1069.1 128.288 1069.1 Z" fill="#000000" fill-rule="nonzero" fill-opacity="1" /><path clip-path="url(#clip580)" d="M148.45 1098.41 L153.334 1098.41 L153.334 1104.29 L148.45 1104.29 L148.45 1098.41 Z" fill="#000000" fill-rule="nonzero" fill-opacity="1" /><path clip-path="url(#clip580)" d="M167.547 1100.35 L183.866 1100.35 L183.866 1104.29 L161.922 1104.29 L161.922 1100.35 Q164.584 1097.6 169.167 1092.97 Q173.774 1088.31 174.954 1086.97 Q177.2 1084.45 178.079 1082.71 Q178.982 1080.95 178.982 1079.26 Q178.982 1076.51 177.038 1074.77 Q175.116 1073.04 172.014 1073.04 Q169.815 1073.04 167.362 1073.8 Q164.931 1074.56 162.153 1076.11 L162.153 1071.39 Q164.977 1070.26 167.431 1069.68 Q169.885 1069.1 171.922 1069.1 Q177.292 1069.1 180.487 1071.79 Q183.681 1074.47 183.681 1078.96 Q183.681 1081.09 182.871 1083.01 Q182.084 1084.91 179.977 1087.5 Q179.399 1088.17 176.297 1091.39 Q173.195 1094.59 167.547 1100.35 Z" fill="#000000" fill-rule="nonzero" fill-opacity="1" /><path clip-path="url(#clip580)" d="M126.205 775.572 Q122.593 775.572 120.765 779.136 Q118.959 782.678 118.959 789.808 Q118.959 796.914 120.765 800.479 Q122.593 804.021 126.205 804.021 Q129.839 804.021 131.644 800.479 Q133.473 796.914 133.473 789.808 Q133.473 782.678 131.644 779.136 Q129.839 775.572 126.205 775.572 M126.205 771.868 Q132.015 771.868 135.07 776.474 Q138.149 781.058 138.149 789.808 Q138.149 798.534 135.07 803.141 Q132.015 807.724 126.205 807.724 Q120.394 807.724 117.316 803.141 Q114.26 798.534 114.26 789.808 Q114.26 781.058 117.316 776.474 Q120.394 771.868 126.205 771.868 Z" fill="#000000" fill-rule="nonzero" fill-opacity="1" /><path clip-path="url(#clip580)" d="M146.366 801.173 L151.251 801.173 L151.251 807.053 L146.366 807.053 L146.366 801.173 Z" fill="#000000" fill-rule="nonzero" fill-opacity="1" /><path clip-path="url(#clip580)" d="M174.283 776.567 L162.477 795.016 L174.283 795.016 L174.283 776.567 M173.056 772.493 L178.936 772.493 L178.936 795.016 L183.866 795.016 L183.866 798.905 L178.936 798.905 L178.936 807.053 L174.283 807.053 L174.283 798.905 L158.681 798.905 L158.681 794.391 L173.056 772.493 Z" fill="#000000" fill-rule="nonzero" fill-opacity="1" /><path clip-path="url(#clip580)" d="M126.529 478.339 Q122.918 478.339 121.089 481.904 Q119.283 485.445 119.283 492.575 Q119.283 499.681 121.089 503.246 Q122.918 506.788 126.529 506.788 Q130.163 506.788 131.968 503.246 Q133.797 499.681 133.797 492.575 Q133.797 485.445 131.968 481.904 Q130.163 478.339 126.529 478.339 M126.529 474.635 Q132.339 474.635 135.394 479.242 Q138.473 483.825 138.473 492.575 Q138.473 501.302 135.394 505.908 Q132.339 510.492 126.529 510.492 Q120.718 510.492 117.64 505.908 Q114.584 501.302 114.584 492.575 Q114.584 483.825 117.64 479.242 Q120.718 474.635 126.529 474.635 Z" fill="#000000" fill-rule="nonzero" fill-opacity="1" /><path clip-path="url(#clip580)" d="M146.691 503.941 L151.575 503.941 L151.575 509.82 L146.691 509.82 L146.691 503.941 Z" fill="#000000" fill-rule="nonzero" fill-opacity="1" /><path clip-path="url(#clip580)" d="M172.339 490.677 Q169.19 490.677 167.339 492.83 Q165.51 494.982 165.51 498.732 Q165.51 502.459 167.339 504.635 Q169.19 506.788 172.339 506.788 Q175.487 506.788 177.315 504.635 Q179.167 502.459 179.167 498.732 Q179.167 494.982 177.315 492.83 Q175.487 490.677 172.339 490.677 M181.621 476.024 L181.621 480.283 Q179.862 479.45 178.056 479.01 Q176.274 478.57 174.514 478.57 Q169.885 478.57 167.431 481.695 Q165.001 484.82 164.653 491.14 Q166.019 489.126 168.079 488.061 Q170.139 486.973 172.616 486.973 Q177.825 486.973 180.834 490.144 Q183.866 493.293 183.866 498.732 Q183.866 504.056 180.718 507.274 Q177.57 510.492 172.339 510.492 Q166.343 510.492 163.172 505.908 Q160.001 501.302 160.001 492.575 Q160.001 484.381 163.89 479.519 Q167.778 474.635 174.329 474.635 Q176.089 474.635 177.871 474.982 Q179.676 475.33 181.621 476.024 Z" fill="#000000" fill-rule="nonzero" fill-opacity="1" /><path clip-path="url(#clip580)" d="M126.783 181.106 Q123.172 181.106 121.343 184.671 Q119.538 188.213 119.538 195.342 Q119.538 202.449 121.343 206.014 Q123.172 209.555 126.783 209.555 Q130.417 209.555 132.223 206.014 Q134.052 202.449 134.052 195.342 Q134.052 188.213 132.223 184.671 Q130.417 181.106 126.783 181.106 M126.783 177.403 Q132.593 177.403 135.649 182.009 Q138.728 186.592 138.728 195.342 Q138.728 204.069 135.649 208.676 Q132.593 213.259 126.783 213.259 Q120.973 213.259 117.894 208.676 Q114.839 204.069 114.839 195.342 Q114.839 186.592 117.894 182.009 Q120.973 177.403 126.783 177.403 Z" fill="#000000" fill-rule="nonzero" fill-opacity="1" /><path clip-path="url(#clip580)" d="M146.945 206.708 L151.829 206.708 L151.829 212.588 L146.945 212.588 L146.945 206.708 Z" fill="#000000" fill-rule="nonzero" fill-opacity="1" /><path clip-path="url(#clip580)" d="M172.014 196.176 Q168.681 196.176 166.76 197.958 Q164.862 199.74 164.862 202.865 Q164.862 205.99 166.76 207.773 Q168.681 209.555 172.014 209.555 Q175.348 209.555 177.269 207.773 Q179.19 205.967 179.19 202.865 Q179.19 199.74 177.269 197.958 Q175.371 196.176 172.014 196.176 M167.339 194.185 Q164.329 193.444 162.64 191.384 Q160.973 189.324 160.973 186.361 Q160.973 182.217 163.913 179.81 Q166.876 177.403 172.014 177.403 Q177.176 177.403 180.116 179.81 Q183.056 182.217 183.056 186.361 Q183.056 189.324 181.366 191.384 Q179.7 193.444 176.714 194.185 Q180.093 194.972 181.968 197.264 Q183.866 199.555 183.866 202.865 Q183.866 207.888 180.788 210.574 Q177.732 213.259 172.014 213.259 Q166.297 213.259 163.218 210.574 Q160.163 207.888 160.163 202.865 Q160.163 199.555 162.061 197.264 Q163.959 194.972 167.339 194.185 M165.626 186.801 Q165.626 189.486 167.292 190.99 Q168.982 192.495 172.014 192.495 Q175.024 192.495 176.714 190.99 Q178.426 189.486 178.426 186.801 Q178.426 184.115 176.714 182.611 Q175.024 181.106 172.014 181.106 Q168.982 181.106 167.292 182.611 Q165.626 184.115 165.626 186.801 Z" fill="#000000" fill-rule="nonzero" fill-opacity="1" /><path clip-path="url(#clip580)" d="M20.1444 850.559 L26.9239 850.559 Q23.9002 853.805 22.4043 857.497 Q20.9083 861.157 20.9083 865.295 Q20.9083 873.443 25.9054 877.772 Q30.8707 882.101 40.2919 882.101 Q49.6813 882.101 54.6784 877.772 Q59.6436 873.443 59.6436 865.295 Q59.6436 861.157 58.1477 857.497 Q56.6518 853.805 53.6281 850.559 L60.3439 850.559 Q62.6355 853.932 63.7814 857.72 Q64.9272 861.476 64.9272 865.677 Q64.9272 876.467 58.3387 882.674 Q51.7183 888.88 40.2919 888.88 Q28.8336 888.88 22.2451 882.674 Q15.6248 876.467 15.6248 865.677 Q15.6248 861.412 16.7706 857.656 Q17.8846 853.869 20.1444 850.559 Z" fill="#000000" fill-rule="nonzero" fill-opacity="1" /><path clip-path="url(#clip580)" d="M46.0847 824.682 Q46.0847 831.78 47.7079 834.517 Q49.3312 837.254 53.2461 837.254 Q56.3653 837.254 58.2114 835.217 Q60.0256 833.148 60.0256 829.615 Q60.0256 824.746 56.5881 821.817 Q53.1188 818.857 47.3897 818.857 L46.0847 818.857 L46.0847 824.682 M43.6657 813.001 L64.0042 813.001 L64.0042 818.857 L58.5933 818.857 Q61.8398 820.863 63.3994 823.854 Q64.9272 826.846 64.9272 831.175 Q64.9272 836.65 61.8716 839.896 Q58.7843 843.111 53.6281 843.111 Q47.6125 843.111 44.5569 839.1 Q41.5014 835.058 41.5014 827.069 L41.5014 818.857 L40.9285 818.857 Q36.8862 818.857 34.6901 821.531 Q32.4621 824.173 32.4621 828.979 Q32.4621 832.034 33.1941 834.931 Q33.9262 837.827 35.3903 840.501 L29.9795 840.501 Q28.7381 837.286 28.1334 834.262 Q27.4968 831.239 27.4968 828.374 Q27.4968 820.64 31.5072 816.82 Q35.5176 813.001 43.6657 813.001 Z" fill="#000000" fill-rule="nonzero" fill-opacity="1" /><path clip-path="url(#clip580)" d="M33.8307 780.281 Q33.2578 781.268 33.0032 782.446 Q32.7167 783.591 32.7167 784.992 Q32.7167 789.957 35.9632 792.631 Q39.1779 795.272 45.2253 795.272 L64.0042 795.272 L64.0042 801.161 L28.3562 801.161 L28.3562 795.272 L33.8944 795.272 Q30.6479 793.426 29.0883 790.466 Q27.4968 787.506 27.4968 783.273 Q27.4968 782.668 27.5923 781.936 Q27.656 781.204 27.8151 780.313 L33.8307 780.281 Z" fill="#000000" fill-rule="nonzero" fill-opacity="1" /><path clip-path="url(#clip580)" d="M42.4881 745.652 L64.0042 745.652 L64.0042 751.508 L42.679 751.508 Q37.6183 751.508 35.1038 753.482 Q32.5894 755.455 32.5894 759.402 Q32.5894 764.144 35.6131 766.881 Q38.6368 769.619 43.8567 769.619 L64.0042 769.619 L64.0042 775.507 L28.3562 775.507 L28.3562 769.619 L33.8944 769.619 Q30.6797 767.518 29.0883 764.685 Q27.4968 761.821 27.4968 758.097 Q27.4968 751.954 31.3163 748.803 Q35.1038 745.652 42.4881 745.652 Z" fill="#000000" fill-rule="nonzero" fill-opacity="1" /><path clip-path="url(#clip580)" d="M28.3562 733.971 L28.3562 728.114 L64.0042 728.114 L64.0042 733.971 L28.3562 733.971 M14.479 733.971 L14.479 728.114 L21.895 728.114 L21.895 733.971 L14.479 733.971 Z" fill="#000000" fill-rule="nonzero" fill-opacity="1" /><path clip-path="url(#clip580)" d="M28.3562 720.062 L28.3562 713.855 L58.275 702.715 L28.3562 691.575 L28.3562 685.368 L64.0042 698.736 L64.0042 706.694 L28.3562 720.062 Z" fill="#000000" fill-rule="nonzero" fill-opacity="1" /><path clip-path="url(#clip580)" d="M32.4621 663.47 Q32.4621 668.181 36.1542 670.918 Q39.8145 673.656 46.212 673.656 Q52.6095 673.656 56.3017 670.95 Q59.9619 668.213 59.9619 663.47 Q59.9619 658.792 56.2698 656.054 Q52.5777 653.317 46.212 653.317 Q39.8781 653.317 36.186 656.054 Q32.4621 658.792 32.4621 663.47 M27.4968 663.47 Q27.4968 655.832 32.4621 651.471 Q37.4273 647.111 46.212 647.111 Q54.9649 647.111 59.9619 651.471 Q64.9272 655.832 64.9272 663.47 Q64.9272 671.141 59.9619 675.502 Q54.9649 679.83 46.212 679.83 Q37.4273 679.83 32.4621 675.502 Q27.4968 671.141 27.4968 663.47 Z" fill="#000000" fill-rule="nonzero" fill-opacity="1" /><path clip-path="url(#clip580)" d="M33.8307 616.746 Q33.2578 617.733 33.0032 618.911 Q32.7167 620.056 32.7167 621.457 Q32.7167 626.422 35.9632 629.096 Q39.1779 631.737 45.2253 631.737 L64.0042 631.737 L64.0042 637.626 L28.3562 637.626 L28.3562 631.737 L33.8944 631.737 Q30.6479 629.891 29.0883 626.931 Q27.4968 623.971 27.4968 619.738 Q27.4968 619.133 27.5923 618.401 Q27.656 617.669 27.8151 616.778 L33.8307 616.746 Z" fill="#000000" fill-rule="nonzero" fill-opacity="1" /><path clip-path="url(#clip580)" d="M44.7161 581.544 L47.5806 581.544 L47.5806 608.471 Q53.6281 608.089 56.8109 604.842 Q59.9619 601.564 59.9619 595.739 Q59.9619 592.366 59.1344 589.214 Q58.3069 586.032 56.6518 582.912 L62.1899 582.912 Q63.5267 586.063 64.227 589.374 Q64.9272 592.684 64.9272 596.089 Q64.9272 604.619 59.9619 609.617 Q54.9967 614.582 46.5303 614.582 Q37.7774 614.582 32.6531 609.871 Q27.4968 605.129 27.4968 597.108 Q27.4968 589.915 32.1438 585.745 Q36.7589 581.544 44.7161 581.544 M42.9973 587.4 Q38.1912 587.464 35.3266 590.106 Q32.4621 592.716 32.4621 597.044 Q32.4621 601.946 35.2312 604.906 Q38.0002 607.834 43.0292 608.28 L42.9973 587.4 Z" fill="#000000" fill-rule="nonzero" fill-opacity="1" /><polyline clip-path="url(#clip582)" style="stroke:#ffa500; stroke-linecap:round; stroke-linejoin:round; stroke-width:4; stroke-opacity:1; fill:none" points="-441.476,1384.24 -441.476,1384.24 "/>
<polyline clip-path="url(#clip582)" style="stroke:#ffa500; stroke-linecap:round; stroke-linejoin:round; stroke-width:4; stroke-opacity:1; fill:none" points="1160.8,566.848 1144,559.095 1125.83,552.269 1106.55,546.467 1086.43,541.767 1065.73,538.229 1044.72,535.894 1023.66,534.783 1002.81,534.896 982.391,536.213 962.62,538.697 943.692,542.296 925.78,546.94 909.033,552.551 893.58,559.038 879.528,566.304 866.966,574.248 855.962,582.764 846.569,591.747 838.826,601.09 832.755,610.691 828.369,620.448 825.669,630.266 824.647,640.053 825.285,649.722 827.56,659.193 831.44,668.39 836.886,677.244 843.853,685.691 852.29,693.67 862.137,701.13 873.331,708.02 885.797,714.295 899.456,719.916 914.22,724.846 929.99,729.052 946.66,732.505 964.112,735.178 982.221,737.05 1000.85,738.1 1019.84,738.314 1039.04,737.679 1058.28,736.188 1077.38,733.836 1096.14,730.625 1114.38,726.562 1131.87,721.66 1148.43,715.94 1163.84,709.428 1177.89,702.162 1190.39,694.187 1201.15,685.561 1209.99,676.35 1216.76,666.631 1221.33,656.496 1223.6,646.043 1223.5,635.384 1221.01,624.638 1216.12,613.934 1208.87,603.405 1199.37,593.188 1187.72,583.42 1174.08,574.237 1158.66,565.768 1141.66,558.131 1123.33,551.436 1103.92,545.776 1083.7,541.227 1062.95,537.848 1041.92,535.676 1020.87,534.728 1000.07,535.002 979.72,536.477 960.051,539.113 941.249,542.855 923.483,547.633 906.901,553.365 891.629,559.962 877.771,567.324 865.412,575.35 854.62,583.934 845.444,592.971 837.922,602.354 832.075,611.981 827.913,621.752 825.437,631.571 824.637,641.347 825.495,650.994 827.985,660.433 832.076,669.588 837.727,678.392 844.893,686.779 853.52,694.693 863.55,702.079 874.917,708.89 887.547,715.081 901.358,720.612 916.261,725.447 932.157,729.555 948.938,732.905 966.485,735.473 984.67,737.236 1003.35,738.177 1022.38,738.278 1041.6,737.53 1060.83,735.924 1079.9,733.458 1098.6,730.134 1116.75,725.959 1134.13,720.947 1150.55,715.119 1165.79,708.505 1179.65,701.142 1191.92,693.077 1202.43,684.369 1211.01,675.086 1217.49,665.307 1221.77,655.123 1223.73,644.636 1223.31,633.958 1220.49,623.211 1215.29,612.522 1207.74,602.026 1197.94,591.859 1186.02,582.16 1172.13,573.064 1156.49,564.698 1139.29,557.181 1120.8,550.62 1101.27,545.104 1080.97,540.707 1060.16,537.486 1039.12,535.476 1018.09,534.691 997.328,535.128 977.06,536.762 957.495,539.549 938.822,543.432 921.206,548.342 904.791,554.195 889.701,560.899 876.038,568.356 863.884,576.463 853.305,585.113 844.348,594.202 837.047,603.624 831.424,613.275 827.487,623.058 825.234,632.876 824.656,642.64 825.733,652.264 828.438,661.669 832.738,670.781 838.594,679.533 845.957,687.861 854.774,695.707 864.986,703.02 876.526,709.751 889.318,715.856 903.281,721.297 918.322,726.038 934.343,730.046 951.233,733.293 968.872,735.755 987.132,737.41 1005.87,738.239 1024.94,738.229 1044.17,737.366 1063.39,735.646 1082.41,733.065 1101.05,729.626 1119.11,725.338 1136.38,720.217 1152.65,714.283 1167.72,707.567 1181.38,700.108 1193.44,691.953 1203.7,683.163 1212.01,673.807 1218.21,663.968 1222.17,653.737 1223.82,643.218 1223.08,632.523 1219.94,621.776 1214.41,611.105 1206.56,600.646 1196.47,590.535 1184.27,580.91 1170.13,571.905 1154.26,563.647 1136.88,556.253 1118.24,549.826 1098.59,544.455 1078.2,540.214 1057.35,537.154 1036.29,535.308 1015.29,534.688 994.58,535.286 974.397,537.075 954.943,540.011 936.403,544.036 918.941,549.076 902.697,555.048 887.793,561.858 874.327,569.408 862.382,577.592 852.019,586.306 843.283,595.445 836.206,604.902 830.807,614.577 827.095,624.369 825.068,634.185 824.712,643.935 826.009,653.534 828.93,662.904 833.44,671.971 839.499,680.67 847.059,688.936 856.066,696.714 866.459,703.951 878.17,710.6 891.123,716.619 905.234,721.967 920.411,726.612 936.552,730.52 953.549,733.664 971.278,736.019 989.61,737.564 1008.4,738.282 1027.5,738.158 1046.73,737.182 1065.94,735.348 1084.92,732.653 1103.49,729.101 1121.46,724.701 1138.61,719.47 1154.73,713.429 1169.62,706.611 1183.07,699.057 1194.9,690.815 1204.91,681.947 1212.94,672.524 1218.85,662.628 1222.51,652.353 1223.84,641.804 1222.79,631.095 1219.33,620.351 1213.5,609.701 1205.34,599.28 1194.96,589.224 1182.5,579.671 1168.12,570.756 1152.04,562.605 1134.48,555.333 1115.69,549.043 1095.92,543.82 1075.46,539.733 1054.56,536.832 1033.5,535.148 1012.52,534.689 991.867,535.448 971.768,537.394 952.424,540.482 934.018,544.648 916.709,549.817 900.637,555.906 885.919,562.821 872.651,570.461 860.912,578.723 850.762,587.5 842.244,596.688 835.39,606.18 830.216,615.876 826.728,625.677 824.924,635.489 824.789,645.223 826.303,654.796 829.437,664.13 834.156,673.152 840.418,681.796 848.174,690.001 857.369,697.71 867.942,704.871 879.822,711.439 892.934,717.37 907.192,722.628 922.504,727.176 938.766,730.985 955.868,734.027 973.686,736.276 992.088,737.712 1010.93,738.318 1030.05,738.081 1049.3,736.99 1068.49,735.041 1087.43,732.231 1105.93,728.565 1123.8,724.054 1140.82,718.712 1156.8,712.565 1171.51,705.646 1184.75,697.995 1196.35,689.666 1206.1,680.72 1213.86,671.229 1219.48,661.276 1222.85,650.955 1223.88,640.374 1222.51,629.649 1218.73,618.907 1212.57,608.278 1204.1,597.899 1193.42,587.905 1180.68,578.432 1166.07,569.613 1149.77,561.572 1132.03,554.424 1113.09,548.271 1093.21,543.198 1072.66,539.271 1051.72,536.536 1030.65,535.018 1009.7,534.725 989.114,535.645 969.106,537.747 949.877,540.982 931.61,545.288 914.46,550.588 898.564,556.794 884.037,563.812 870.971,571.541 859.443,579.879 849.51,588.718 841.216,597.953 834.587,607.479 829.641,617.195 826.382,627.002 824.804,636.809 824.893,646.526 826.627,656.071 829.977,665.367 834.908,674.343 841.375,682.932 849.33,691.073 858.716,698.711 869.47,705.795 881.522,712.28 894.793,718.122 909.2,723.285 924.646,727.735 941.029,731.441 958.236,734.376 976.141,736.516 994.61,737.841 1013.5,738.335 1032.65,737.983 1051.89,736.777 1071.06,734.711 1089.95,731.785 1108.39,728.005 1126.15,723.38 1143.04,717.929 1158.86,711.676 1173.38,704.656 1186.42,696.911 1197.77,688.495 1207.27,679.47 1214.74,669.911 1220.06,659.903 1223.1,649.544 1223.8,638.941 1222.1,628.211 1218,617.479 1211.53,606.877 1202.76,596.542 1191.81,586.61 1178.81,577.219 1163.96,568.498 1147.46,560.572 1129.54,553.553 1110.46,547.541 1090.47,542.618 1069.86,538.848 1048.88,536.274 1027.82,534.921 1006.91,534.791 986.394,535.869 966.486,538.124 947.381,541.505 929.255,545.948 912.265,551.373 896.545,557.693 882.21,564.812 869.353,572.627 858.043,581.034 848.333,589.929 840.259,599.208 833.854,608.764 829.132,618.496 826.096,628.308 824.741,638.107 825.051,647.805 827.002,657.321 830.564,666.577 835.7,675.504 842.367,684.035 850.513,692.112 860.083,699.678 871.013,706.685 883.23,713.085 896.657,718.839 911.205,723.909 926.78,728.262 943.278,731.866 960.582,734.696 978.569,736.729 997.101,737.944 1016.03,738.326 1035.2,737.861 1054.44,736.542 1073.58,734.364 1092.42,731.325 1110.77,727.432 1128.43,722.697 1145.19,717.138 1160.85,710.782 1175.18,703.664 1188,695.828 1199.12,687.328 1208.36,678.229 1215.55,668.607 1220.57,658.547 1223.31,648.15 1223.7,637.523 1221.68,626.786 1217.26,616.065 1210.49,605.491 1201.42,595.2 1190.19,585.331 1176.94,576.019 1161.86,567.396 1145.16,559.584 1127.07,552.694 1107.86,546.823 1087.78,542.049 1067.12,538.433 1046.12,536.018 1025.06,534.825 1004.19,534.856 983.735,536.095 963.917,538.505 944.93,542.033 926.947,546.611 910.12,552.159 894.578,558.59 880.432,565.807 867.769,573.708 856.661,582.189 847.162,591.143 839.309,600.464 833.127,610.05 828.629,619.799 825.817,629.614 824.683,639.405 825.212,649.083 827.379,658.569 831.153,667.786 836.496,676.664 843.363,685.138 851.702,693.15 861.456,700.644 872.561,707.573 884.944,713.89 898.525,719.555 913.216,724.531 928.92,728.787 945.532,732.291 962.934,735.018 981.001,736.944 999.595,738.05 1018.57,738.32 1037.76,737.741 1057,736.306 1076.11,734.012 1094.9,730.858 1113.18,726.852 1130.73,722.006 1147.35,716.339 1162.84,709.879 1176.99,702.661 1189.6,694.732 1200.48,686.147 1209.45,676.973 1216.36,667.288 1221.09,657.178 1223.52,646.741 1223.6,636.089 1221.27,625.341 1216.54,614.627 1209.45,604.08 1200.08,593.839 1188.55,584.039 1175.04,574.814 1159.72,566.294 1142.81,558.598 1124.56,551.837 1105.22,546.106 1085.04,541.484 1064.31,538.03 1043.28,535.783 1022.22,534.758 1001.39,534.954 981.014,536.352 961.296,538.915 942.433,542.587 924.597,547.301 907.935,552.975 892.576,559.519 878.625,566.834 866.168,574.82 855.274,583.371 845.994,592.381 838.365,601.744 832.409,611.358 828.139,621.122 825.555,630.94 824.648,640.72 825.4,650.377 827.786,659.831 831.774,669.007 837.325,677.834 844.394,686.25 852.929,694.196 862.872,701.618 874.155,708.467 886.706,714.699 900.443,720.273 915.278,725.154 931.112,729.309 947.839,732.708 965.34,735.327 983.487,737.143 1002.14,738.136 1021.15,738.292 1040.36,737.599 1059.6,736.048 1078.68,733.637 1097.41,730.368 1115.6,726.247 1133.03,721.289 1149.52,715.514 1164.84,708.95 1178.8,701.633 1191.18,693.612 1201.82,684.942 1210.52,675.693 1217.14,665.943 1221.55,655.783 1223.66,645.313 1223.4,634.644 1220.73,623.898 1215.68,613.202 1208.28,602.691 1198.62,592.501 1186.82,582.771 1173.05,573.634 1157.51,565.219 1140.42,557.646 1122,551.02 1102.53,545.435 1082.27,540.966 1061.49,537.671 1040.45,535.584 1019.42,534.723 998.633,535.082 978.331,536.638 958.721,539.351 939.989,543.165 922.303,548.011 905.809,553.805 890.632,560.458 876.876,567.869 864.627,575.935 853.949,584.552 844.891,593.613 837.485,603.015 831.754,612.654 827.709,622.43 825.349,632.248 824.664,642.017 825.636,651.651 828.238,661.072 832.437,670.204 838.194,678.98 845.461,687.336 854.186,695.214 864.309,702.561 875.764,709.33 888.477,715.476 902.366,720.959 917.339,725.745 933.297,729.801 950.132,733.097 967.726,735.61 985.948,737.317 1004.66,738.2 1023.71,738.243 1042.93,737.436 1062.15,735.771 1081.19,733.247 1099.86,729.864 1117.96,725.632 1135.28,720.563 1151.62,714.681 1166.77,708.014 1180.52,700.602 1192.68,692.492 1203.06,683.743 1211.5,674.424 1217.83,664.616 1221.95,654.408 1223.75,643.906 1223.17,633.22 1220.19,622.473 1214.82,611.795 1207.12,601.319 1197.17,591.182 1185.1,581.52 1171.09,572.469 1155.33,564.157 1138.04,556.703 1119.48,550.211 1099.89,544.771 1079.54,540.457 1058.71,537.32 1037.66,535.394 1016.65,534.693 995.915,535.211 975.692,536.925 956.186,539.79 937.584,543.749 920.049,548.727 903.724,554.641 888.731,561.399 875.17,568.903 863.124,577.049 852.656,585.732 843.814,594.846 836.629,604.286 831.123,613.948 827.302,623.735 825.165,633.551 824.701,643.307 825.89,652.917 828.706,662.303 833.115,671.392 839.075,680.116 846.539,688.411 855.453,696.221 865.757,703.494 877.384,710.183 890.258,716.243 904.295,721.635 919.405,726.325 935.486,730.282 952.428,733.477 970.112,735.886 988.406,737.486 1007.17,738.258 1026.25,738.189 1045.48,737.268 1064.7,735.488 1083.7,732.848 1102.31,729.351 1120.32,725.007 1137.52,719.829 1153.71,713.84 1168.69,707.072 1182.24,699.562 1194.18,691.363 1204.31,682.532 1212.48,673.143 1218.52,663.275 1222.33,653.023 1223.83,642.488 1222.94,631.784 1219.64,621.034 1213.96,610.371 1205.95,599.929 1195.71,589.848 1183.36,580.262 1169.1,571.306 1153.11,563.103 1135.64,555.771 1116.92,549.413 1097.21,544.117 1076.78,539.957 1055.9,536.982 1034.83,535.224 1013.83,534.691 993.157,535.373 973.018,537.243 953.621,540.258 935.151,544.357 917.769,549.466 901.616,555.5 886.809,562.365 873.448,569.962 861.61,578.187 851.358,586.934 842.737,596.098 835.776,605.574 830.496,615.26 826.902,625.057 824.992,634.871 824.752,644.612 826.163,654.197 829.196,663.547 833.816,672.591 839.981,681.261 847.644,689.495 856.751,697.237 867.238,704.435 879.039,711.041 892.076,717.014 906.265,722.315 921.513,726.908 937.718,730.764 954.77,733.853 972.546,736.152 990.914,737.64 1009.73,738.3 1028.84,738.117 1048.08,737.08 1067.28,735.184 1086.24,732.429 1104.78,728.816 1122.69,724.358 1139.77,719.07 1155.81,712.975 1170.61,706.104 1183.96,698.499 1195.67,690.21 1205.55,681.299 1213.44,671.838 1219.19,661.912 1222.69,651.614 1223.85,641.05 1222.62,630.336 1218.99,619.594 1212.99,608.955 1204.67,598.556 1194.14,588.534 1181.53,579.025 1167.02,570.163 1150.83,562.073 1133.17,554.868 1114.3,548.65 1094.48,543.505 1073.98,539.501 1053.06,536.686 1032,535.091 1011.04,534.721 990.419,535.564 970.37,537.591 951.089,540.754 932.758,544.991 915.535,550.227 899.556,556.377 884.938,563.346 871.777,571.033 860.15,579.333 850.117,588.141 841.718,597.352 834.983,606.861 829.928,616.567 826.559,626.371 824.873,636.179 824.856,645.904 826.486,655.462 829.734,664.776 834.563,673.773 840.932,682.387 848.791,690.558 858.085,698.229 868.751,705.35 880.72,711.873 893.915,717.758 908.25,722.966 923.632,727.462 939.956,731.216 957.11,734.201 974.972,736.393 993.407,737.771 1012.27,738.319 1031.41,738.021 1050.65,736.871 1069.82,734.861 1088.74,731.991 1107.2,728.266 1125.01,723.696 1141.97,718.298 1157.86,712.097 1172.47,705.126 1185.61,697.427 1197.07,689.053 1206.69,680.067 1214.3,670.541 1219.76,660.561 1222.95,650.222 1223.8,639.632 1222.26,628.907 1218.32,618.172 1212,607.559 1203.38,597.203 1192.57,587.241 1179.7,577.809 1164.96,569.04 1148.56,561.058 1130.72,553.978 1111.71,547.898 1091.79,542.902 1071.22,539.055 1050.27,536.402 1029.21,534.968 1008.28,534.759 987.725,535.76 967.766,537.941 948.602,541.253 930.411,545.63 913.348,550.994 897.545,557.259 883.116,564.328 870.155,572.102 858.735,580.476 848.915,589.345 840.735,598.601 834.222,608.142 829.392,617.866 826.247,627.676 824.784,637.478 824.986,647.185 826.831,656.714 830.291,665.989 835.327,674.939 841.896,683.498 849.949,691.605 859.429,699.206 870.272,706.249 882.408,712.69 895.759,718.487 910.238,723.601 925.75,728 942.19,731.654 959.444,734.536 977.388,736.623 995.888,737.893 1014.8,738.33 1033.96,737.92 1053.2,736.655 1072.36,734.53 1091.22,731.546 1109.61,727.707 1127.32,723.026 1144.15,717.52 1159.88,711.215 1174.31,704.144 1187.23,696.352 1198.47,687.891 1207.83,678.827 1215.16,669.235 1220.32,659.202 1223.21,648.824 1223.75,638.208 1221.89,627.472 1217.64,616.741 1211.01,606.15 1202.1,595.836 1190.99,585.937 1177.86,576.588 1162.88,567.92 1146.27,560.054 1128.26,553.102 1109.11,547.161 1089.09,542.312 1068.45,538.621 1047.46,536.131 1026.39,534.864 1005.49,534.821 985.007,535.984 965.142,538.32 946.096,541.777 928.045,546.29 911.14,551.78 895.514,558.159 881.276,565.33 868.518,573.192 857.31,581.639 847.707,590.566 839.749,599.867 833.461,609.439 828.856,619.181 825.939,628.995 824.7,638.79 825.125,648.478 827.19,657.978 830.863,667.214 836.108,676.115 842.88,684.617 851.129,692.66 860.796,700.19 871.819,707.156 884.125,713.513 897.634,719.221 912.259,724.242 927.903,728.543 944.462,732.094 961.819,734.869 979.848,736.846 998.414,738.003 1017.37,738.326 1036.55,737.802 1055.79,736.422 1074.92,734.181 1093.73,731.081 1112.05,727.128 1129.65,722.334 1146.34,716.719 1161.9,710.309 1176.14,703.14 1188.86,695.254 1199.86,686.708 1208.96,677.566 1216.01,667.907 1220.87,657.819 1223.44,647.401 1223.65,636.763 1221.45,626.022 1216.87,615.306 1209.92,604.747 1200.7,594.482 1189.32,584.649 1175.93,575.384 1160.72,566.817 1143.9,559.069 1125.73,552.25 1106.44,546.454 1086.32,541.76 1065.62,538.228 1044.61,535.9 1023.56,534.796 1002.71,534.916 982.294,536.239 962.53,538.729 943.61,542.331 925.706,546.979 908.967,552.593 893.523,559.083 879.479,566.352 866.925,574.298 855.931,582.815 846.549,591.798 838.815,601.14 832.754,610.739 828.376,620.496 825.684,630.313 824.67,640.098 825.316,649.765 827.6,659.234 831.487,668.429 836.94,677.28 843.914,685.723 852.356,693.7 862.208,701.156 873.406,708.042 885.877,714.314 899.54,719.931 914.307,724.857 930.079,729.059 946.751,732.507 964.204,735.176 982.312,737.044 1000.94,738.09 1019.93,738.3 1039.13,737.661 1058.37,736.166 1077.46,733.81 1096.22,730.596 1114.45,726.53 1131.94,721.625 1148.49,715.901 1163.89,709.386 1177.93,702.118 1190.42,694.141 1201.16,685.513 1209.99,676.3 1216.75,666.581 1221.32,656.445 1223.58,645.993 1223.47,635.334 "/>
<polyline clip-path="url(#clip582)" style="stroke:#ffa500; stroke-linecap:round; stroke-linejoin:round; stroke-width:4; stroke-opacity:1; fill:none" points="1015.14,641.157 1015.14,641.157 "/>
<polyline clip-path="url(#clip582)" style="stroke:#ffa500; stroke-linecap:round; stroke-linejoin:round; stroke-width:4; stroke-opacity:1; fill:none" points="1379.29,455.386 1331.61,433.385 1280.39,414.171 1226.67,398.137 1171.51,385.587 1115.93,376.724 1060.85,371.645 1007.1,370.343 955.372,372.716 906.243,378.578 860.157,387.673 817.441,399.696 778.318,414.307 742.922,431.145 711.314,449.844 683.497,470.046 659.433,491.403 639.052,513.591 622.264,536.311 608.969,559.291 599.06,582.287 592.431,605.085 588.979,627.496 588.607,649.359 591.226,670.535 596.755,690.906 605.119,710.374 616.251,728.856 630.091,746.284 646.583,762.6 665.674,777.758 687.312,791.718 711.444,804.445 738.013,815.909 766.954,826.083 798.193,834.939 831.643,842.452 867.2,848.594 904.736,853.333 944.1,856.638 985.109,858.472 1027.55,858.794 1071.15,857.56 1115.63,854.722 1160.62,850.229 1205.73,844.026 1250.49,836.06 1294.39,826.277 1336.87,814.63 1377.29,801.078 1415,785.597 1449.3,768.18 1479.47,748.847 1504.8,727.655 1524.61,704.7 1538.26,680.131 1545.23,654.154 1545.11,627.04 1537.62,599.123 1522.7,570.804 1500.47,542.539 1471.25,514.832 1435.58,488.217 1394.17,463.233 1347.9,440.406 1297.73,420.218 1244.72,403.09 1189.93,389.355 1134.38,379.251 1079.04,372.91 1024.76,370.361 972.294,371.53 922.246,376.258 875.108,384.311 831.243,395.398 790.907,409.188 754.263,425.327 721.393,443.448 692.32,463.19 667.015,484.2 645.42,506.147 627.449,528.722 613.006,551.644 601.983,574.66 594.276,597.545 589.779,620.104 588.395,642.166 590.03,663.584 594.601,684.234 602.03,704.012 612.25,722.83 625.197,740.614 640.814,757.306 659.048,772.853 679.845,787.215 703.155,800.355 728.92,812.242 757.081,822.847 787.565,832.145 820.292,840.107 855.161,846.707 892.055,851.916 930.83,855.701 971.315,858.028 1013.3,858.857 1056.55,858.144 1100.78,855.845 1145.64,851.907 1190.75,846.278 1235.68,838.904 1279.93,829.731 1322.95,818.709 1364.12,805.794 1402.81,790.956 1438.32,774.182 1469.94,755.482 1496.96,734.9 1518.68,712.517 1534.45,688.465 1543.69,662.93 1545.96,636.16 1540.94,608.469 1528.5,580.233 1508.67,551.892 1481.73,523.939 1448.13,496.899 1408.53,471.313 1363.76,447.713 1314.77,426.597 1262.58,408.409 1208.27,393.515 1152.85,382.187 1097.33,374.592 1042.61,370.789 989.463,370.737 938.552,374.307 890.402,381.287 845.418,391.402 803.889,404.335 766.007,419.734 731.879,437.238 701.546,456.481 674.996,477.108 652.178,498.779 633.015,521.179 617.412,544.015 605.266,567.026 596.47,589.978 590.919,612.665 588.512,634.909 589.155,656.556 592.761,677.474 599.25,697.551 608.551,716.697 620.599,734.832 635.336,751.892 652.707,767.824 672.66,782.584 695.142,796.133 720.099,808.439 747.472,819.473 777.194,829.207 809.187,837.616 843.358,844.671 879.595,850.345 917.763,854.606 957.701,857.421 999.215,858.751 1042.07,858.556 1086.01,856.789 1130.7,853.401 1175.78,848.34 1220.82,841.552 1265.36,832.981 1308.85,822.577 1350.71,810.294 1390.3,796.097 1426.94,779.966 1459.94,761.902 1488.56,741.937 1512.11,720.139 1529.91,696.624 1541.38,671.558 1546.01,645.165 1543.45,617.737 1533.47,589.632 1516.07,561.274 1491.43,533.136 1459.97,505.735 1422.27,479.606 1379.13,455.288 1331.43,433.294 1280.18,414.091 1226.44,398.073 1171.27,385.54 1115.69,376.694 1060.61,371.632 1006.87,370.347 955.151,372.736 906.036,378.613 859.964,387.722 817.263,399.757 778.155,414.378 742.775,431.224 711.183,449.931 683.383,470.138 659.335,491.499 638.969,513.69 622.196,536.411 608.916,559.392 599.021,582.388 592.406,605.184 588.968,627.593 588.61,649.453 591.242,670.626 596.783,690.993 605.16,710.457 616.304,728.935 630.156,746.358 646.659,762.67 665.762,777.823 687.411,791.777 711.554,804.499 738.133,815.957 767.084,826.125 798.334,834.976 831.793,842.483 867.358,848.618 904.902,853.352 944.273,856.65 985.289,858.478 1027.73,858.793 1071.34,857.553 1115.82,854.708 1160.82,850.208 1205.92,843.998 1250.68,836.024 1294.58,826.233 1337.05,814.577 1377.47,801.018 1415.17,785.528 1449.45,768.103 1479.59,748.764 1504.89,727.566 1524.68,704.605 1538.32,680.028 1545.27,654.042 1545.11,626.92 1537.59,598.998 1522.63,570.677 1500.36,542.412 1471.11,514.707 1435.42,488.096 1393.98,463.118 1347.67,440.302 1297.48,420.129 1244.45,403.017 1189.65,389.299 1134.11,379.214 1078.77,372.893 1024.5,370.363 972.043,371.552 922.009,376.296 874.885,384.363 831.036,395.463 790.717,409.265 754.091,425.414 721.24,443.544 692.185,463.292 666.898,484.306 645.32,506.256 627.367,528.834 612.94,551.757 601.935,574.773 594.244,597.658 589.763,620.214 588.393,642.273 590.043,663.688 594.628,684.334 602.072,704.107 612.305,722.92 625.265,740.7 640.896,757.386 659.142,772.928 679.952,787.284 703.274,800.418 729.052,812.299 757.224,822.898 787.72,832.188 820.457,840.144 855.337,846.738 892.24,851.939 931.024,855.718 971.517,858.037 1013.51,858.859 1056.77,858.14 1101,855.832 1145.86,851.887 1190.98,846.25 1235.91,838.867 1280.15,829.684 1323.16,818.652 1364.33,805.727 1403,790.88 1438.49,774.097 1470.09,755.389 1497.09,734.797 1518.78,712.404 1534.52,688.342 1543.73,662.798 1545.96,636.021 1540.9,608.324 1528.41,580.088 1508.54,551.75 1481.56,523.802 1447.93,496.768 1408.3,471.191 1363.5,447.603 1314.49,426.503 1262.3,408.333 1207.97,393.458 1152.56,382.148 1097.06,374.571 1042.35,370.788 989.213,370.755 938.313,374.341 890.175,381.333 845.204,391.461 803.691,404.405 765.827,419.816 731.718,437.329 701.402,456.579 674.869,477.21 652.069,498.885 632.923,521.287 617.337,544.126 605.208,567.137 596.429,590.089 590.894,612.775 588.502,635.017 589.16,656.661 592.78,677.575 599.283,697.649 608.598,716.789 620.659,734.919 635.41,751.975 652.794,767.902 672.759,782.656 695.254,796.199 720.223,808.499 747.608,819.526 777.342,829.254 809.345,837.656 843.526,844.705 879.773,850.372 917.952,854.627 957.899,857.435 999.422,858.758 1042.29,858.555 1086.23,856.781 1130.93,853.385 1176.01,848.315 1221.05,841.517 1265.58,832.937 1309.07,822.524 1350.92,810.231 1390.49,796.025 1427.11,779.885 1460.09,761.812 1488.69,741.838 1512.22,720.03 1530,696.504 1541.44,671.427 1546.03,645.027 1543.41,617.596 1533.39,589.493 1515.95,561.136 1491.29,533.001 1459.8,505.604 1422.07,479.483 1378.89,455.177 1331.17,433.199 1279.91,414.011 1226.18,398.007 1171.02,385.489 1115.44,376.662 1060.37,371.62 1006.63,370.353 954.926,372.757 905.819,378.645 859.757,387.765 817.068,399.812 777.977,414.444 742.613,431.301 711.037,450.015 683.251,470.225 659.218,491.59 638.868,513.785 622.112,536.51 608.847,559.492 598.967,582.489 592.367,605.285 588.942,627.693 588.598,649.551 591.244,670.721 596.798,691.086 605.187,710.546 616.344,729.02 630.208,746.438 646.724,762.746 665.839,777.894 687.5,791.843 711.654,804.56 738.245,816.013 767.208,826.175 798.468,835.021 831.938,842.522 867.513,848.651 905.068,853.379 944.449,856.671 985.473,858.492 1027.92,858.8 1071.54,857.553 1116.03,854.701 1161.02,850.193 1206.13,843.975 1250.89,835.992 1294.79,826.193 1337.25,814.529 1377.66,800.96 1415.34,785.463 1449.6,768.03 1479.73,748.682 1505.03,727.472 1524.79,704.5 1538.4,679.914 1545.31,653.923 1545.11,626.797 1537.56,598.872 1522.57,570.548 1500.27,542.283 1470.99,514.581 1435.26,487.974 1393.79,463.006 1347.46,440.199 1297.26,420.037 1244.23,402.938 1189.42,389.235 1133.87,379.166 1078.53,372.863 1024.27,370.35 971.821,371.554 921.795,376.312 874.68,384.391 830.842,395.503 790.537,409.317 753.925,425.477 721.089,443.616 692.048,463.37 666.775,484.389 645.212,506.344 627.274,528.925 612.862,551.851 601.87,574.868 594.193,597.753 589.725,620.31 588.369,642.367 590.032,663.78 594.63,684.424 602.086,704.194 612.331,723.004 625.304,740.78 640.946,757.462 659.204,773 680.026,787.351 703.359,800.481 729.148,812.356 757.332,822.95 787.839,832.236 820.587,840.186 855.477,846.774 892.39,851.971 931.184,855.743 971.686,858.057 1013.69,858.872 1056.95,858.146 1101.19,855.832 1146.06,851.88 1191.18,846.235 1236.11,838.844 1280.35,829.654 1323.36,818.613 1364.52,805.68 1403.18,790.824 1438.66,774.033 1470.24,755.316 1497.22,734.716 1518.89,712.314 1534.61,688.244 1543.8,662.691 1546,635.907 1540.9,608.206 1528.38,579.965 1508.48,551.626 1481.47,523.678 1447.81,496.647 1408.15,471.074 1363.33,447.493 1314.29,426.404 1262.08,408.246 1207.75,393.384 1152.33,382.089 1096.82,374.528 1042.11,370.76 988.984,370.745 938.093,374.346 889.965,381.353 845.005,391.495 803.505,404.451 765.655,419.873 731.56,437.396 701.26,456.654 674.742,477.292 651.956,498.972 632.825,521.378 617.254,544.219 605.139,567.233 596.374,590.185 590.853,612.871 588.474,635.112 589.145,656.754 592.778,677.666 599.293,697.737 608.62,716.874 620.694,735.001 635.457,752.052 652.853,767.975 672.83,782.724 695.336,796.263 720.317,808.558 747.713,819.581 777.458,829.304 809.473,837.7 843.664,844.744 879.921,850.405 918.109,854.654 958.066,857.456 999.597,858.773 1042.47,858.564 1086.42,856.782 1131.12,853.379 1176.2,848.302 1221.25,841.497 1265.78,832.909 1309.26,822.488 1351.11,810.187 1390.68,795.971 1427.29,779.822 1460.24,761.742 1488.83,741.759 1512.34,719.943 1530.1,696.408 1541.51,671.323 1546.07,644.915 1543.42,617.479 1533.37,589.371 1515.9,561.012 1491.2,532.877 1459.68,505.481 1421.93,479.364 1378.73,455.064 1330.98,433.095 1279.7,413.919 1225.95,397.928 1170.78,385.425 1115.2,376.613 1060.13,371.586 1006.4,370.336 954.698,372.757 905.602,378.661 859.552,387.796 816.878,399.856 777.8,414.5 742.451,431.367 710.891,450.09 683.121,470.308 659.103,491.679 638.769,513.878 622.028,536.606 608.778,559.59 598.912,582.587 592.326,605.383 588.915,627.79 588.584,649.646 591.243,670.814 596.81,691.176 605.212,710.633 616.381,729.102 630.257,746.517 646.785,762.82 665.912,777.964 687.584,791.908 711.75,804.62 738.352,816.068 767.326,826.225 798.597,835.065 832.078,842.56 867.664,848.684 905.228,853.405 944.618,856.691 985.651,858.506 1028.11,858.808 1071.73,857.554 1116.22,854.695 1161.22,850.179 1206.33,843.954 1251.09,835.963 1294.99,826.156 1337.44,814.483 1377.84,800.906 1415.51,785.399 1449.76,767.958 1479.88,748.601 1505.15,727.383 1524.89,704.402 1538.47,679.809 1545.35,653.81 1545.13,626.679 1537.54,598.75 1522.52,570.423 1500.19,542.158 1470.88,514.457 1435.12,487.855 1393.62,462.892 1347.27,440.095 1297.05,419.944 1244.01,402.858 1189.19,389.169 1133.63,379.116 1078.3,372.829 1024.04,370.332 971.594,371.552 921.577,376.325 874.474,384.42 830.649,395.545 790.358,409.371 753.761,425.541 720.94,443.689 691.914,463.45 666.657,484.476 645.11,506.435 627.186,529.02 612.789,551.947 601.812,574.966 594.149,597.851 589.695,620.406 588.352,642.462 590.028,663.873 594.638,684.514 602.107,704.281 612.365,723.087 625.349,740.859 641.003,757.537 659.273,773.07 680.106,787.417 703.451,800.541 729.252,812.412 757.446,823.001 787.964,832.281 820.723,840.226 855.623,846.808 892.546,851.999 931.349,855.765 971.86,858.072 1013.87,858.881 1057.14,858.149 1101.38,855.828 1146.25,851.868 1191.38,846.216 1236.31,838.818 1280.55,829.619 1323.55,818.57 1364.71,805.628 1403.36,790.764 1438.82,773.964 1470.39,755.238 1497.35,734.629 1519,712.219 1534.69,688.14 1543.85,662.581 1546.02,635.791 1540.89,608.085 1528.33,579.842 1508.4,551.502 1481.36,523.555 1447.67,496.527 1407.99,470.961 1363.14,447.388 1314.09,426.308 1261.87,408.163 1207.52,393.315 1152.1,382.035 1096.59,374.489 1041.88,370.738 988.759,370.738 937.876,374.355 889.758,381.377 844.811,391.531 803.324,404.5 765.488,419.933 731.409,437.465 701.124,456.731 674.62,477.375 651.85,499.06 632.734,521.47 617.177,544.313 605.077,567.328 596.325,590.281 590.817,612.966 588.452,635.206 589.136,656.846 592.781,677.755 599.309,697.823 608.648,716.957 620.734,735.08 635.509,752.127 652.916,768.046 672.904,782.791 695.422,796.325 720.414,808.615 747.821,819.632 777.577,829.35 809.602,837.741 843.804,844.779 880.07,850.435 918.268,854.678 958.233,857.474 999.772,858.785 1042.65,858.569 1086.61,856.781 1131.31,853.371 1176.4,848.287 1221.45,841.474 1265.98,832.879 1309.46,822.449 1351.29,810.139 1390.85,795.915 1427.45,779.758 1460.39,761.668 1488.96,741.677 1512.45,719.853 1530.19,696.31 1541.57,671.217 1546.1,644.803 1543.42,617.362 1533.34,589.251 1515.83,560.89 1491.11,532.755 1459.56,505.362 1421.79,479.249 1378.55,454.957 1330.78,432.997 1279.49,413.833 1225.73,397.855 1170.56,385.366 1114.97,376.569 1059.9,371.558 1006.17,370.324 954.482,372.76 905.395,378.679 859.357,387.828 816.695,399.9 777.631,414.555 742.297,431.431 710.751,450.162 682.996,470.388 658.993,491.764 638.674,513.967 621.947,536.698 608.711,559.683 598.859,582.681 592.286,605.477 588.889,627.883 588.57,649.738 591.241,670.903 596.821,691.262 605.234,710.716 616.416,729.182 630.304,746.593 646.843,762.891 665.981,778.031 687.665,791.971 711.842,804.677 738.455,816.12 767.439,826.273 798.721,835.107 832.212,842.597 867.807,848.715 905.38,853.431 944.779,856.711 985.82,858.52 1028.29,858.816 1071.92,857.555 1116.41,854.689 1161.41,850.167 1206.53,843.934 1251.29,835.936 1295.18,826.121 1337.63,814.44 1378.02,800.854 1415.68,785.339 1449.91,767.889 1480.01,748.523 1505.27,727.297 1524.99,704.308 1538.54,679.707 1545.4,653.703 1545.14,626.565 1537.52,598.632 1522.47,570.303 1500.11,542.037 1470.77,514.338 1434.98,487.74 1393.46,462.784 1347.09,439.995 1296.85,419.855 1243.79,402.781 1188.97,389.106 1133.41,379.067 1078.07,372.796 1023.82,370.315 971.377,371.549 921.369,376.338 874.276,384.446 830.463,395.584 790.186,409.421 753.603,425.602 720.797,443.758 691.786,463.527 666.543,484.558 645.01,506.522 627.101,529.109 612.718,552.039 601.755,575.058 594.105,597.943 589.664,620.498 588.334,642.553 590.022,663.961 594.645,684.6 602.125,704.364 612.395,723.167 625.391,740.935 641.056,757.609 659.337,773.138 680.182,787.48 703.538,800.6 729.349,812.466 757.554,823.05 788.082,832.325 820.851,840.264 855.761,846.841 892.693,852.026 931.505,855.787 972.024,858.088 1014.04,858.891 1057.32,858.152 1101.56,855.825 1146.44,851.858 1191.57,846.199 1236.5,838.793 1280.74,829.587 1323.74,818.53 1364.89,805.58 1403.53,790.707 1438.98,773.899 1470.53,755.165 1497.47,734.547 1519.1,712.129 1534.77,688.043 1543.9,662.477 1546.04,635.681 1540.89,607.97 1528.3,579.724 1508.34,551.383 1481.26,523.437 1447.54,496.412 1407.84,470.851 1362.97,447.286 1313.9,426.216 1261.66,408.083 1207.3,393.248 1151.88,381.982 1096.36,374.451 1041.66,370.716 988.543,370.731 937.668,374.362 889.56,381.398 844.624,391.566 803.15,404.546 765.328,419.989 731.262,437.53 700.992,456.804 674.503,477.454 651.747,499.144 632.645,521.557 617.103,544.403 605.016,567.42 596.277,590.373 590.782,613.058 588.43,635.296 589.126,656.934 592.783,677.841 599.323,697.906 608.674,717.037 620.772,735.156 635.557,752.2 652.976,768.114 672.975,782.855 695.503,796.384 720.506,808.67 747.924,819.682 777.69,829.395 809.725,837.781 843.937,844.814 880.213,850.464 918.419,854.701 958.393,857.492 999.94,858.796 1042.83,858.575 1086.79,856.78 1131.5,853.363 1176.59,848.272 1221.63,841.452 1266.16,832.85 1309.64,822.412 1351.47,810.095 1391.03,795.862 1427.61,779.696 1460.54,761.599 1489.09,741.599 1512.56,719.766 1530.27,696.216 1541.63,671.116 1546.14,644.697 1543.43,617.25 1533.31,589.135 1515.78,560.773 1491.02,532.638 1459.45,505.247 1421.64,479.139 1378.39,454.854 1330.6,432.903 1279.3,413.749 1225.52,397.784 1170.34,385.309 1114.75,376.527 1059.68,371.531 1005.96,370.312 954.274,372.762 905.195,378.696 859.168,387.857 816.518,399.941 777.468,414.607 742.147,431.493 710.616,450.232 682.875,470.464 658.887,491.845 638.581,514.052 621.868,536.786 608.646,559.773 598.807,582.772 592.247,605.567 588.862,627.972 588.556,649.825 591.24,670.989 596.831,691.345 605.256,710.795 616.448,729.258 630.348,746.666 646.898,762.96 666.047,778.095 687.741,792.031 711.929,804.733 738.553,816.171 767.547,826.319 798.839,835.148 832.34,842.633 867.944,848.746 905.527,853.456 944.934,856.731 985.983,858.534 1028.46,858.824 1072.09,857.556 1116.59,854.684 1161.6,850.155 1206.71,843.915 1251.47,835.91 1295.36,826.087 1337.81,814.398 1378.19,800.804 "/>
<polyline clip-path="url(#clip582)" style="stroke:#ffa500; stroke-linecap:round; stroke-linejoin:round; stroke-width:4; stroke-opacity:1; fill:none" points="1743.44,269.616 1629.27,216.937 1508.11,171.642 1383.94,135.191 1260.42,108.573 1140.67,92.2524 1027.14,86.1857 921.546,89.8832 824.95,102.511 737.842,123.005 660.273,150.172 591.972,182.788 532.466,219.664 481.164,259.694 437.428,301.884 400.617,345.367 370.125,389.403 345.392,433.375 325.92,476.781 311.273,519.218 301.076,560.373 295.016,600.006 292.833,637.943 294.318,674.061 299.309,708.281 307.68,740.555 319.348,770.866 334.255,799.216 352.377,825.622 373.712,850.112 398.279,872.723 426.118,893.493 457.282,912.465 491.837,929.679 529.858,945.171 571.423,958.973 616.614,971.113 665.508,981.606 718.171,990.462 774.655,997.675 834.988,1003.23 899.165,1007.1 967.139,1009.22 1038.8,1009.54 1113.99,1007.97 1192.42,1004.39 1273.74,998.665 1357.44,990.626 1442.87,980.075 1529.19,966.784 1615.37,950.489 1700.14,930.899 1782,907.699 1859.19,880.562 1929.7,849.165 1991.31,813.216 2041.67,772.494 2078.38,726.896 2099.15,676.496 2101.97,621.604 2085.35,562.838 2048.53,501.165 1991.65,437.917 1915.86,374.761 1823.34,313.616 1717.14,256.517 1600.94,205.442 1478.73,162.139 1354.43,127.962 1231.56,103.771 1113.1,89.9043 1001.3,86.207 897.741,92.104 803.355,106.7 718.517,128.889 643.179,157.463 577.003,191.198 519.487,228.922 470.039,269.556 428.009,312.132 392.757,355.813 363.685,399.889 340.248,443.772 321.962,486.983 308.407,529.143 299.222,569.957 294.108,609.203 292.816,646.718 295.15,682.392 300.955,716.153 310.119,747.962 322.562,777.807 338.237,805.693 357.124,831.641 379.226,855.681 404.569,877.85 433.195,898.189 465.16,916.74 500.534,933.541 539.392,948.628 581.815,962.033 627.882,973.78 677.669,983.884 731.24,992.349 788.641,999.171 849.893,1004.33 914.983,1007.78 983.85,1009.49 1056.37,1009.37 1132.36,1007.33 1211.53,1003.25 1293.47,996.992 1377.65,988.375 1463.38,977.195 1549.78,963.214 1635.76,946.162 1719.99,925.743 1800.92,901.636 1876.71,873.514 1945.3,841.057 2004.38,803.997 2051.61,762.125 2084.66,715.362 2101.33,663.837 2099.69,607.945 2078.38,548.391 2036.79,486.224 1975.31,422.846 1895.33,359.983 1799.25,299.596 1690.3,243.738 1572.26,194.364 1449.16,153.134 1324.86,121.273 1202.79,99.5322 1085.74,88.1289 975.821,86.7943 874.419,94.8618 782.309,111.375 699.759,135.196 626.651,165.107 562.605,199.893 507.082,238.4 459.461,279.573 419.098,322.478 385.369,366.307 357.684,410.381 335.514,454.138 318.388,497.126 305.902,538.986 297.71,579.441 293.525,618.284 293.111,655.367 296.283,690.588 302.896,723.885 312.845,755.225 326.059,784.601 342.499,812.022 362.148,837.511 385.018,861.102 411.137,882.831 440.551,902.74 473.32,920.869 509.515,937.259 549.213,951.943 592.494,964.951 639.438,976.305 690.118,986.018 744.594,994.093 802.908,1000.52 865.073,1005.28 931.066,1008.32 1000.81,1009.6 1074.18,1009.03 1150.96,1006.52 1230.84,1001.93 1313.39,995.108 1398.03,985.881 1484,974.038 1570.37,959.341 1656.02,941.516 1739.56,920.258 1819.38,895.239 1893.61,866.124 1960.14,832.6 2016.67,794.402 2060.82,751.367 2090.2,703.476 2102.66,650.913 2096.41,594.124 2070.27,533.87 2023.87,471.276 1957.82,407.856 1873.78,345.413 1774.36,285.938 1662.95,231.466 1543.41,183.886 1419.73,144.773 1295.7,115.258 1174.59,95.9582 1059.08,86.9727 951.076,87.9319 851.828,98.0894 761.976,116.434 681.684,141.8 610.762,172.967 548.785,208.728 495.187,247.951 449.34,289.608 410.601,332.794 378.352,376.734 352.017,420.776 331.08,464.385 315.085,507.132 303.641,548.679 296.419,588.767 293.145,627.203 293.594,663.851 297.589,698.62 304.998,731.455 315.723,762.33 329.701,791.241 346.899,818.202 367.307,843.238 390.941,866.384 417.833,887.679 448.033,907.163 481.604,924.877 518.618,940.86 559.154,955.145 603.293,967.76 651.112,978.725 702.682,988.051 758.06,995.737 817.281,1001.77 880.352,1006.13 947.237,1008.76 1017.85,1009.6 1092.04,1008.58 1169.56,1005.59 1250.08,1000.5 1333.14,993.142 1418.13,983.336 1504.28,970.859 1590.6,955.457 1675.91,936.847 1758.76,914.719 1837.47,888.75 1910.09,858.614 1974.48,824.007 2028.31,784.683 2069.19,740.495 2094.73,691.466 2102.85,637.833 2091.92,580.105 2060.95,519.146 2009.79,456.197 1939.3,392.844 1851.34,330.938 1748.75,272.483 1635.06,219.486 1514.17,173.787 1390.07,136.883 1266.44,109.781 1146.47,92.9538 1032.61,86.388 926.617,89.6165 829.579,101.82 742.013,121.942 663.986,148.798 595.245,181.162 535.324,217.843 483.635,257.729 439.542,299.822 402.404,343.249 371.613,387.263 346.608,431.242 326.886,474.677 312.009,517.162 301.599,558.378 295.34,598.085 292.97,636.103 294.278,672.308 299.097,706.618 307.304,738.985 318.809,769.389 333.557,797.832 351.519,824.33 372.694,848.912 397.101,871.612 424.776,892.47 455.773,911.528 490.158,928.825 528.004,944.4 569.391,958.284 614.399,970.503 663.105,981.076 715.578,990.011 771.869,997.304 832.007,1002.94 895.989,1006.89 963.77,1009.1 1035.25,1009.51 1110.25,1008.03 1188.52,1004.55 1269.7,998.934 1353.29,991.009 1438.65,980.581 1524.94,967.422 1611.14,951.274 1695.98,931.851 1777.98,908.838 1855.39,881.906 1926.24,850.729 1988.3,815.014 2039.24,774.534 2076.65,729.184 2098.23,679.028 2101.96,624.368 2086.33,565.797 2050.52,504.258 1994.62,441.071 1919.75,377.887 1828.02,316.613 1722.44,259.284 1606.68,207.887 1484.69,164.177 1360.41,129.532 1237.42,104.843 1118.71,90.4802 1006.59,86.3076 902.656,91.7614 807.849,105.954 722.566,127.791 646.786,156.069 580.195,189.565 522.292,227.105 472.473,267.603 430.097,310.088 394.528,353.716 365.165,397.772 341.463,441.662 322.933,484.903 309.152,527.11 299.759,567.985 294.449,607.302 292.973,644.897 295.13,680.656 300.766,714.505 309.766,746.405 322.047,776.34 337.562,804.317 356.29,830.355 378.232,854.485 403.413,876.742 431.875,897.167 463.673,915.802 498.875,932.685 537.557,947.853 579.799,961.338 625.682,973.164 675.279,983.346 728.656,991.89 785.861,998.79 846.915,1004.03 911.807,1007.57 980.479,1009.36 1052.81,1009.33 1128.62,1007.38 1207.62,1003.4 1289.42,997.253 1373.48,988.754 1459.13,977.702 1545.49,963.862 1631.48,946.966 1715.8,926.717 1796.89,902.798 1872.94,874.879 1941.89,842.644 2001.5,805.814 2049.4,764.179 2083.23,717.665 2100.74,666.389 2099.98,610.72 2079.59,551.339 2038.95,489.277 1978.38,425.931 1899.26,363.022 1803.91,302.504 1695.54,246.42 1577.92,196.715 1455.04,155.066 1330.78,122.742 1208.57,100.512 1091.27,88.6137 980.994,86.8011 879.182,94.4276 786.633,110.549 703.636,134.034 630.091,163.666 565.627,198.229 509.71,236.568 461.723,277.622 421.028,320.449 386.994,364.237 359.031,408.301 336.606,452.074 319.247,495.098 306.545,537.01 298.152,577.529 293.778,616.447 293.186,653.61 296.188,688.917 302.637,722.302 312.426,753.732 325.484,783.198 341.767,810.709 361.262,836.287 383.975,859.965 409.935,881.78 439.188,901.774 471.793,919.986 507.82,936.456 547.345,951.219 590.449,964.305 637.212,975.737 687.707,985.527 741.996,993.679 800.119,1000.18 862.093,1005.02 927.895,1008.14 997.455,1009.51 1070.64,1009.03 1147.25,1006.6 1226.97,1002.12 1309.37,995.412 1393.88,986.315 1479.77,974.615 1566.12,960.069 1651.82,942.402 1735.49,921.309 1815.53,896.467 1890.06,867.547 1957,834.236 2014.04,796.272 2058.81,753.481 2088.94,705.829 2102.23,653.48 2096.88,596.86 2071.66,536.734 2026.22,474.228 1961.11,410.817 1877.9,348.291 1779.16,288.644 1668.21,233.909 1548.94,185.981 1425.35,146.453 1301.27,116.481 1180,96.711 1064.2,87.2681 955.828,87.798 856.178,97.5613 765.909,115.552 685.197,140.618 613.866,171.538 551.501,207.106 497.542,246.185 451.363,287.742 412.319,330.867 379.789,374.778 353.197,418.818 332.024,462.449 315.814,505.235 304.172,546.836 296.765,586.988 293.315,625.497 293.598,662.224 297.435,697.075 304.691,729.994 315.267,760.954 329.099,789.951 346.151,816.996 366.413,842.117 389.9,865.345 416.643,886.721 446.691,906.284 480.107,924.076 516.963,940.135 557.337,954.494 601.309,967.183 648.958,978.221 700.354,987.619 755.556,995.379 814.599,1001.49 877.49,1005.92 944.197,1008.63 1014.64,1009.55 1088.66,1008.62 1166.03,1005.72 1246.42,1000.72 1329.37,993.473 1414.28,983.78 1500.38,971.426 1586.71,956.159 1672.07,937.699 1755.05,915.736 1833.96,889.945 1906.89,860.001 1971.67,825.598 2025.97,786.492 2067.4,742.529 2093.66,693.713 2102.63,640.271 2092.62,582.722 2062.57,521.913 2012.31,459.051 1942.65,395.693 1855.43,333.681 1753.43,275.033 1640.16,221.773 1519.53,175.741 1395.53,138.427 1271.87,110.868 1151.7,93.5817 1037.55,86.5652 931.194,89.3683 833.754,101.188 745.77,120.976 667.33,147.551 598.189,179.688 537.89,216.192 485.848,255.95 441.431,297.958 403.999,341.334 372.938,385.329 347.687,429.314 327.74,472.776 312.655,515.305 302.053,556.579 295.615,596.352 293.077,634.445 294.224,670.729 298.889,705.121 306.947,737.572 318.306,768.061 332.91,796.589 350.73,823.171 371.761,847.835 396.022,870.616 423.551,891.554 454.398,910.689 488.63,928.063 526.319,943.712 567.546,957.669 612.39,969.961 660.928,980.606 713.23,989.613 769.347,996.978 829.311,1002.69 893.119,1006.71 960.728,1009 1032.04,1009.49 1106.89,1008.09 1185.03,1004.7 1266.08,999.174 1349.56,991.35 1434.83,981.037 1521.06,968.008 1607.25,952.006 1692.16,932.739 1774.3,909.892 1851.95,883.139 1923.12,852.155 1985.61,816.648 2037.07,776.391 2075.12,731.271 2097.44,681.337 2102,626.871 2087.24,568.458 2052.34,507.037 1997.36,443.896 1923.34,380.674 1832.32,319.275 1727.28,261.735 1611.85,210.043 1490.03,165.966 1365.77,130.901 1242.67,105.768 1123.74,90.9614 1011.3,86.367 906.99,91.4286 811.792,105.262 726.105,126.788 649.928,154.806 582.956,188.095 524.694,225.476 474.543,265.859 431.86,308.268 396.01,351.855 366.392,395.899 342.455,439.8 323.712,483.072 309.734,525.325 300.157,566.258 294.676,605.641 293.038,643.309 295.042,679.145 300.531,713.075 309.386,745.056 321.527,775.074 336.903,803.133 355.492,829.252 377.295,853.461 402.336,875.796 430.654,896.298 462.306,915.007 497.36,931.964 535.889,947.205 577.975,960.76 623.698,972.656 673.132,982.908 726.344,991.521 783.38,998.492 844.265,1003.8 908.989,1007.41 977.496,1009.28 1049.67,1009.33 1125.33,1007.46 1204.19,1003.58 1285.87,997.521 1369.83,989.125 1455.42,978.186 1541.76,964.47 1627.78,947.71 1712.18,927.611 1793.43,903.855 1869.72,876.115 1939,844.072 1999.04,807.445 2047.47,766.021 2081.94,719.719 2100.18,668.647 2100.23,613.162 2080.69,553.93 2040.91,491.967 1981.19,428.655 1902.82,365.701 1808.13,305.053 1700.26,248.751 1582.97,198.749 1460.27,156.737 1336.01,124.003 1213.68,101.339 1096.13,89.0039 985.546,86.7716 883.367,94.0107 790.426,109.788 707.032,132.978 633.097,162.366 568.262,196.736 511.997,234.929 463.689,275.88 422.698,318.642 388.393,362.397 360.184,406.454 337.533,450.244 319.967,493.301 307.074,535.261 298.504,575.84 293.964,614.825 293.215,652.062 296.067,687.445 302.371,720.91 312.02,752.421 324.939,781.968 341.086,809.559 360.443,835.217 383.019,858.973 408.84,880.865 437.951,900.933 470.412,919.219 506.29,935.761 545.664,950.595 588.614,963.751 635.218,975.251 685.552,985.11 739.675,993.331 797.632,999.905 859.439,1004.81 925.076,1008.01 994.473,1009.45 1067.5,1009.04 1143.96,1006.71 1223.55,1002.31 1305.84,995.7 1390.26,986.707 1476.1,975.121 1562.44,960.7 1648.17,943.17 1731.95,922.228 1812.16,897.551 1886.95,868.81 1954.24,835.691 2011.73,797.93 2057.05,755.349 2087.83,707.905 2101.86,655.752 2097.31,599.307 2072.95,539.318 2028.36,476.896 1964.06,413.501 1881.59,350.911 1783.45,291.114 1672.96,236.145 1553.98,187.907 1430.52,148.008 1306.41,117.623 1184.98,97.4226 1068.93,87.5515 960.232,87.6744 860.212,97.0657 769.554,114.728 688.451,139.515 616.74,170.207 554.014,205.597 499.719,244.542 453.228,286.007 413.899,329.075 381.109,372.96 354.279,417 332.888,460.651 316.478,503.475 304.652,545.126 297.072,585.338 293.461,623.915 293.591,660.715 297.282,695.643 304.397,728.641 314.835,759.68 328.531,788.757 345.447,815.882 365.575,841.08 388.925,864.386 415.53,885.836 445.439,905.473 478.712,923.337 515.421,939.467 555.645,953.896 599.463,966.653 646.955,977.758 698.191,987.224 753.23,995.051 812.109,1001.23 874.836,1005.73 941.38,1008.51 1011.66,1009.51 1085.53,1008.66 1162.76,1005.84 1243.02,1000.93 1325.87,993.779 1410.7,984.192 1496.76,971.952 1583.08,956.812 1668.5,938.489 1751.59,916.678 1830.7,891.054 1903.89,861.29 1969.04,827.079 2023.8,788.175 2065.81,744.419 2092.73,695.806 2102.45,642.555 2093.25,585.171 2064.04,524.486 2014.62,461.692 1945.74,398.331 1859.22,336.236 1757.78,277.421 1644.92,223.911 1524.54,177.558 1400.63,139.866 1276.91,111.895 1156.57,94.1827 1042.14,86.7473 935.454,89.1557 837.643,100.617 749.274,120.094 670.449,146.406 600.938,178.329 540.288,214.667 487.92,254.305 443.202,296.23 405.494,339.558 374.183,383.534 348.701,427.524 328.544,471.011 313.266,513.58 302.485,554.906 295.88,594.741 293.184,632.901 294.182,669.258 298.705,703.726 306.624,736.255 317.848,766.823 332.318,795.429 350.004,822.089 370.902,846.83 395.029,869.687 422.421,890.699 453.129,909.906 487.219,927.351 524.763,943.069 565.841,957.095 610.532,969.454 658.915,980.166 711.058,989.239 767.014,996.671 826.816,1002.45 890.462,1006.54 957.911,1008.9 1029.07,1009.47 1103.77,1008.15 1181.77,1004.84 1262.71,999.403 1346.09,991.677 1431.28,981.469 1517.48,968.557 1603.68,952.681 1688.65,933.553 1770.93,910.86 1848.78,884.274 1920.24,853.471 1983.12,818.156 2035.07,778.1 2073.7,733.183 2096.69,683.448 2102.01,629.165 2088.06,570.906 2053.99,509.596 1999.83,446.507 1926.56,383.264 1836.2,321.763 1731.68,264.038 1616.62,212.081 1495,167.672 1370.79,132.225 1247.61,106.679 1128.48,91.4532 1015.75,86.4505 911.103,91.1315 815.534,104.623 729.467,125.852 652.914,153.623 585.58,186.713 526.979,223.942 476.511,264.215 433.538,306.552 397.423,350.098 367.562,394.129 343.405,438.04 324.458,481.34 310.293,523.636 300.543,564.622 294.9,604.069 293.109,641.805 294.968,677.714 300.317,711.719 309.037,743.777 321.044,773.873 336.289,802.009 354.747,828.204 376.418,852.489 401.325,874.898 429.509,895.472 461.024,914.253 495.936,931.279 534.322,946.587 576.26,960.21 621.832,972.172 671.112,982.489 724.166,991.168 781.044,998.205 841.769,1003.58 906.334,1007.26 974.684,1009.2 1046.71,1009.32 1122.22,1007.54 1200.95,1003.73 1282.51,997.768 1366.39,989.47 1451.91,978.638 1538.23,965.038 1624.27,948.406 1708.76,928.448 1790.15,904.846 1866.66,877.274 1936.25,845.412 1996.69,808.977 2045.63,767.752 2080.69,721.651 2099.61,670.772 2100.42,615.462 2081.69,556.373 2042.73,494.507 1983.8,431.23 1906.16,368.237 1812.08,307.47 1704.7,250.966 1587.74,200.687 1465.2,158.334 1340.95,125.214 1218.51,102.141 1100.74,89.393 989.861,86.7632 887.338,93.6345 794.029,109.084 710.259,131.993 635.956,161.149 570.769,195.334 514.174,233.387 465.561,274.239 424.289,316.937 389.729,360.659 361.285,404.71 338.421,448.513 320.659,491.603 307.585,533.608 298.847,574.242 294.149,613.289 293.252,650.595 295.961,686.051 302.129,719.591 311.644,751.178 324.433,780.801 340.45,808.468 359.678,834.202 382.124,858.032 407.813,879.996 436.791,900.136 469.115,918.491 504.854,935.101 544.085,950.002 586.888,963.224 633.343,974.789 683.523,984.712 737.491,992.998 795.291,999.637 856.94,1004.61 922.42,1007.88 991.664,1009.38 1064.55,1009.06 1140.87,1006.8 1220.33,1002.48 1302.51,995.965 1386.85,987.071 1472.64,975.591 1558.97,961.287 1644.73,943.887 1728.6,923.087 1808.97,898.566 1884,869.993 1951.61,837.056 2009.52,799.487 2055.36,757.102 2086.74,709.855 2101.47,657.891 2097.68,601.614 2074.12,541.757 2030.33,479.417 1966.8,416.041 1885.02,353.396 1787.47,293.462 1677.43,238.275 1558.74,189.748 1435.41,149.5 1311.27,118.728 1189.71,98.1196 1073.42,87.8415 964.42,87.5764 864.051,96.6133 773.026,113.963 691.553,138.484 619.482,168.958 556.413,204.175 501.798,242.992 455.011,284.367 415.411,327.38 382.373,371.239 355.317,415.278 333.72,458.947 317.119,501.806 305.117,543.503 297.375,583.773 293.61,622.414 293.595,659.282 297.147,694.282 304.127,727.354 314.434,758.469 328.001,787.621 344.79,814.821 "/>
<path clip-path="url(#clip582)" d="M1015.14 621.157 L995.138 641.157 L1015.14 661.157 L1035.14 641.157 L1015.14 621.157 Z" fill="#00a9ad" fill-rule="evenodd" fill-opacity="1" stroke="#000000" stroke-opacity="1" stroke-width="3.2"/>
<path clip-path="url(#clip580)" d="M1818.53 1377.32 L2281.66 1377.32 L2281.66 1221.8 L1818.53 1221.8  Z" fill="#ffffff" fill-rule="evenodd" fill-opacity="1"/>
<polyline clip-path="url(#clip580)" style="stroke:#000000; stroke-linecap:round; stroke-linejoin:round; stroke-width:4; stroke-opacity:1; fill:none" points="1818.53,1377.32 2281.66,1377.32 2281.66,1221.8 1818.53,1221.8 1818.53,1377.32 "/>
<polyline clip-path="url(#clip580)" style="stroke:#ffa500; stroke-linecap:round; stroke-linejoin:round; stroke-width:4; stroke-opacity:1; fill:none" points="1842.23,1273.64 1984.43,1273.64 "/>
<path clip-path="url(#clip580)" d="M2012.41 1287.03 L2012.41 1300.78 L2008.12 1300.78 L2008.12 1264.99 L2012.41 1264.99 L2012.41 1268.92 Q2013.75 1266.61 2015.79 1265.5 Q2017.85 1264.36 2020.69 1264.36 Q2025.42 1264.36 2028.36 1268.11 Q2031.32 1271.86 2031.32 1277.98 Q2031.32 1284.09 2028.36 1287.84 Q2025.42 1291.59 2020.69 1291.59 Q2017.85 1291.59 2015.79 1290.48 Q2013.75 1289.34 2012.41 1287.03 M2026.9 1277.98 Q2026.9 1273.28 2024.95 1270.61 Q2023.03 1267.93 2019.65 1267.93 Q2016.27 1267.93 2014.33 1270.61 Q2012.41 1273.28 2012.41 1277.98 Q2012.41 1282.67 2014.33 1285.36 Q2016.27 1288.02 2019.65 1288.02 Q2023.03 1288.02 2024.95 1285.36 Q2026.9 1282.67 2026.9 1277.98 Z" fill="#000000" fill-rule="nonzero" fill-opacity="1" /><path clip-path="url(#clip580)" d="M2059.93 1275.27 L2059.93 1290.92 L2055.67 1290.92 L2055.67 1275.41 Q2055.67 1271.73 2054.24 1269.9 Q2052.8 1268.07 2049.93 1268.07 Q2046.48 1268.07 2044.49 1270.27 Q2042.5 1272.47 2042.5 1276.26 L2042.5 1290.92 L2038.22 1290.92 L2038.22 1254.9 L2042.5 1254.9 L2042.5 1269.02 Q2044.03 1266.68 2046.09 1265.52 Q2048.17 1264.36 2050.88 1264.36 Q2055.35 1264.36 2057.64 1267.14 Q2059.93 1269.9 2059.93 1275.27 Z" fill="#000000" fill-rule="nonzero" fill-opacity="1" /><path clip-path="url(#clip580)" d="M2080.21 1277.88 Q2075.05 1277.88 2073.05 1279.06 Q2071.06 1280.24 2071.06 1283.09 Q2071.06 1285.36 2072.55 1286.7 Q2074.05 1288.02 2076.62 1288.02 Q2080.16 1288.02 2082.29 1285.52 Q2084.44 1283 2084.44 1278.83 L2084.44 1277.88 L2080.21 1277.88 M2088.7 1276.12 L2088.7 1290.92 L2084.44 1290.92 L2084.44 1286.98 Q2082.98 1289.34 2080.81 1290.48 Q2078.63 1291.59 2075.48 1291.59 Q2071.5 1291.59 2069.14 1289.36 Q2066.8 1287.12 2066.8 1283.37 Q2066.8 1278.99 2069.72 1276.77 Q2072.66 1274.55 2078.47 1274.55 L2084.44 1274.55 L2084.44 1274.13 Q2084.44 1271.19 2082.5 1269.6 Q2080.58 1267.98 2077.08 1267.98 Q2074.86 1267.98 2072.75 1268.51 Q2070.65 1269.04 2068.7 1270.11 L2068.7 1266.17 Q2071.04 1265.27 2073.24 1264.83 Q2075.44 1264.36 2077.52 1264.36 Q2083.15 1264.36 2085.92 1267.28 Q2088.7 1270.2 2088.7 1276.12 Z" fill="#000000" fill-rule="nonzero" fill-opacity="1" /><path clip-path="url(#clip580)" d="M2114 1265.75 L2114 1269.78 Q2112.2 1268.86 2110.25 1268.39 Q2108.31 1267.93 2106.23 1267.93 Q2103.05 1267.93 2101.46 1268.9 Q2099.88 1269.87 2099.88 1271.82 Q2099.88 1273.3 2101.02 1274.16 Q2102.15 1274.99 2105.58 1275.75 L2107.04 1276.08 Q2111.57 1277.05 2113.47 1278.83 Q2115.39 1280.59 2115.39 1283.76 Q2115.39 1287.37 2112.52 1289.48 Q2109.67 1291.59 2104.67 1291.59 Q2102.59 1291.59 2100.32 1291.17 Q2098.08 1290.78 2095.58 1289.97 L2095.58 1285.57 Q2097.94 1286.79 2100.23 1287.42 Q2102.52 1288.02 2104.77 1288.02 Q2107.78 1288.02 2109.4 1287 Q2111.02 1285.96 2111.02 1284.09 Q2111.02 1282.35 2109.84 1281.42 Q2108.68 1280.5 2104.72 1279.64 L2103.24 1279.3 Q2099.28 1278.46 2097.52 1276.75 Q2095.76 1275.01 2095.76 1272 Q2095.76 1268.35 2098.36 1266.36 Q2100.95 1264.36 2105.72 1264.36 Q2108.08 1264.36 2110.16 1264.71 Q2112.24 1265.06 2114 1265.75 Z" fill="#000000" fill-rule="nonzero" fill-opacity="1" /><path clip-path="url(#clip580)" d="M2144.35 1276.89 L2144.35 1278.97 L2124.77 1278.97 Q2125.04 1283.37 2127.41 1285.68 Q2129.79 1287.98 2134.03 1287.98 Q2136.48 1287.98 2138.77 1287.37 Q2141.09 1286.77 2143.35 1285.57 L2143.35 1289.6 Q2141.06 1290.57 2138.66 1291.08 Q2136.25 1291.59 2133.77 1291.59 Q2127.57 1291.59 2123.93 1287.98 Q2120.32 1284.36 2120.32 1278.21 Q2120.32 1271.84 2123.75 1268.11 Q2127.2 1264.36 2133.03 1264.36 Q2138.26 1264.36 2141.29 1267.74 Q2144.35 1271.1 2144.35 1276.89 M2140.09 1275.64 Q2140.04 1272.14 2138.12 1270.06 Q2136.23 1267.98 2133.08 1267.98 Q2129.51 1267.98 2127.36 1269.99 Q2125.23 1272 2124.91 1275.66 L2140.09 1275.64 Z" fill="#000000" fill-rule="nonzero" fill-opacity="1" /><path clip-path="url(#clip580)" d="M2170.62 1257.63 L2170.62 1264.99 L2179.4 1264.99 L2179.4 1268.3 L2170.62 1268.3 L2170.62 1282.37 Q2170.62 1285.54 2171.48 1286.45 Q2172.36 1287.35 2175.02 1287.35 L2179.4 1287.35 L2179.4 1290.92 L2175.02 1290.92 Q2170.09 1290.92 2168.22 1289.09 Q2166.34 1287.23 2166.34 1282.37 L2166.34 1268.3 L2163.22 1268.3 L2163.22 1264.99 L2166.34 1264.99 L2166.34 1257.63 L2170.62 1257.63 Z" fill="#000000" fill-rule="nonzero" fill-opacity="1" /><path clip-path="url(#clip580)" d="M2200.02 1268.97 Q2199.3 1268.55 2198.45 1268.37 Q2197.61 1268.16 2196.6 1268.16 Q2192.98 1268.16 2191.04 1270.52 Q2189.12 1272.86 2189.12 1277.26 L2189.12 1290.92 L2184.84 1290.92 L2184.84 1264.99 L2189.12 1264.99 L2189.12 1269.02 Q2190.46 1266.66 2192.61 1265.52 Q2194.77 1264.36 2197.85 1264.36 Q2198.29 1264.36 2198.82 1264.43 Q2199.35 1264.48 2200 1264.6 L2200.02 1268.97 Z" fill="#000000" fill-rule="nonzero" fill-opacity="1" /><path clip-path="url(#clip580)" d="M2216.27 1277.88 Q2211.11 1277.88 2209.12 1279.06 Q2207.13 1280.24 2207.13 1283.09 Q2207.13 1285.36 2208.61 1286.7 Q2210.11 1288.02 2212.68 1288.02 Q2216.22 1288.02 2218.35 1285.52 Q2220.51 1283 2220.51 1278.83 L2220.51 1277.88 L2216.27 1277.88 M2224.77 1276.12 L2224.77 1290.92 L2220.51 1290.92 L2220.51 1286.98 Q2219.05 1289.34 2216.87 1290.48 Q2214.7 1291.59 2211.55 1291.59 Q2207.57 1291.59 2205.21 1289.36 Q2202.87 1287.12 2202.87 1283.37 Q2202.87 1278.99 2205.79 1276.77 Q2208.72 1274.55 2214.54 1274.55 L2220.51 1274.55 L2220.51 1274.13 Q2220.51 1271.19 2218.56 1269.6 Q2216.64 1267.98 2213.15 1267.98 Q2210.92 1267.98 2208.82 1268.51 Q2206.71 1269.04 2204.77 1270.11 L2204.77 1266.17 Q2207.1 1265.27 2209.3 1264.83 Q2211.5 1264.36 2213.59 1264.36 Q2219.21 1264.36 2221.99 1267.28 Q2224.77 1270.2 2224.77 1276.12 Z" fill="#000000" fill-rule="nonzero" fill-opacity="1" /><path clip-path="url(#clip580)" d="M2233.54 1264.99 L2237.8 1264.99 L2237.8 1291.38 Q2237.8 1296.33 2235.9 1298.55 Q2234.03 1300.78 2229.84 1300.78 L2228.22 1300.78 L2228.22 1297.17 L2229.35 1297.17 Q2231.78 1297.17 2232.66 1296.03 Q2233.54 1294.92 2233.54 1291.38 L2233.54 1264.99 M2233.54 1254.9 L2237.8 1254.9 L2237.8 1260.29 L2233.54 1260.29 L2233.54 1254.9 Z" fill="#000000" fill-rule="nonzero" fill-opacity="1" /><path clip-path="url(#clip580)" d="M1913.33 1302.2 L1890.06 1325.48 L1913.33 1348.75 L1936.6 1325.48 L1913.33 1302.2 Z" fill="#00a9ad" fill-rule="evenodd" fill-opacity="1" stroke="#000000" stroke-opacity="1" stroke-width="3.72364"/>
<path clip-path="url(#clip580)" d="M2008.12 1308.2 L2027.99 1308.2 L2027.99 1312.13 L2012.8 1312.13 L2012.8 1322.32 L2026.5 1322.32 L2026.5 1326.25 L2012.8 1326.25 L2012.8 1342.76 L2008.12 1342.76 L2008.12 1308.2 Z" fill="#000000" fill-rule="nonzero" fill-opacity="1" /><path clip-path="url(#clip580)" d="M2031.76 1316.83 L2036.02 1316.83 L2036.02 1342.76 L2031.76 1342.76 L2031.76 1316.83 M2031.76 1306.74 L2036.02 1306.74 L2036.02 1312.13 L2031.76 1312.13 L2031.76 1306.74 Z" fill="#000000" fill-rule="nonzero" fill-opacity="1" /><path clip-path="url(#clip580)" d="M2066.48 1316.83 L2057.11 1329.45 L2066.97 1342.76 L2061.94 1342.76 L2054.4 1332.57 L2046.85 1342.76 L2041.83 1342.76 L2051.9 1329.19 L2042.68 1316.83 L2047.71 1316.83 L2054.58 1326.07 L2061.46 1316.83 L2066.48 1316.83 Z" fill="#000000" fill-rule="nonzero" fill-opacity="1" /><path clip-path="url(#clip580)" d="M2093.7 1328.73 L2093.7 1330.81 L2074.12 1330.81 Q2074.4 1335.21 2076.76 1337.52 Q2079.14 1339.82 2083.38 1339.82 Q2085.83 1339.82 2088.12 1339.21 Q2090.44 1338.61 2092.71 1337.41 L2092.71 1341.44 Q2090.42 1342.41 2088.01 1342.92 Q2085.6 1343.43 2083.12 1343.43 Q2076.92 1343.43 2073.29 1339.82 Q2069.67 1336.2 2069.67 1330.05 Q2069.67 1323.68 2073.1 1319.95 Q2076.55 1316.2 2082.38 1316.2 Q2087.61 1316.2 2090.65 1319.58 Q2093.7 1322.94 2093.7 1328.73 M2089.44 1327.48 Q2089.4 1323.98 2087.48 1321.9 Q2085.58 1319.82 2082.43 1319.82 Q2078.86 1319.82 2076.71 1321.83 Q2074.58 1323.84 2074.26 1327.5 L2089.44 1327.48 Z" fill="#000000" fill-rule="nonzero" fill-opacity="1" /><path clip-path="url(#clip580)" d="M2117.75 1320.76 L2117.75 1306.74 L2122.01 1306.74 L2122.01 1342.76 L2117.75 1342.76 L2117.75 1338.87 Q2116.41 1341.18 2114.35 1342.32 Q2112.31 1343.43 2109.44 1343.43 Q2104.74 1343.43 2101.78 1339.68 Q2098.84 1335.93 2098.84 1329.82 Q2098.84 1323.7 2101.78 1319.95 Q2104.74 1316.2 2109.44 1316.2 Q2112.31 1316.2 2114.35 1317.34 Q2116.41 1318.45 2117.75 1320.76 M2103.24 1329.82 Q2103.24 1334.51 2105.16 1337.2 Q2107.11 1339.86 2110.48 1339.86 Q2113.86 1339.86 2115.81 1337.2 Q2117.75 1334.51 2117.75 1329.82 Q2117.75 1325.12 2115.81 1322.45 Q2113.86 1319.77 2110.48 1319.77 Q2107.11 1319.77 2105.16 1322.45 Q2103.24 1325.12 2103.24 1329.82 Z" fill="#000000" fill-rule="nonzero" fill-opacity="1" /><path clip-path="url(#clip580)" d="M2150.72 1312.04 L2150.72 1325.02 L2156.6 1325.02 Q2159.86 1325.02 2161.64 1323.33 Q2163.42 1321.64 2163.42 1318.52 Q2163.42 1315.42 2161.64 1313.73 Q2159.86 1312.04 2156.6 1312.04 L2150.72 1312.04 M2146.04 1308.2 L2156.6 1308.2 Q2162.41 1308.2 2165.37 1310.83 Q2168.35 1313.45 2168.35 1318.52 Q2168.35 1323.64 2165.37 1326.25 Q2162.41 1328.87 2156.6 1328.87 L2150.72 1328.87 L2150.72 1342.76 L2146.04 1342.76 L2146.04 1308.2 Z" fill="#000000" fill-rule="nonzero" fill-opacity="1" /><path clip-path="url(#clip580)" d="M2182.8 1319.82 Q2179.37 1319.82 2177.38 1322.5 Q2175.39 1325.16 2175.39 1329.82 Q2175.39 1334.47 2177.36 1337.15 Q2179.35 1339.82 2182.8 1339.82 Q2186.2 1339.82 2188.19 1337.13 Q2190.18 1334.45 2190.18 1329.82 Q2190.18 1325.21 2188.19 1322.52 Q2186.2 1319.82 2182.8 1319.82 M2182.8 1316.2 Q2188.35 1316.2 2191.53 1319.82 Q2194.7 1323.43 2194.7 1329.82 Q2194.7 1336.18 2191.53 1339.82 Q2188.35 1343.43 2182.8 1343.43 Q2177.22 1343.43 2174.05 1339.82 Q2170.9 1336.18 2170.9 1329.82 Q2170.9 1323.43 2174.05 1319.82 Q2177.22 1316.2 2182.8 1316.2 Z" fill="#000000" fill-rule="nonzero" fill-opacity="1" /><path clip-path="url(#clip580)" d="M2201.76 1316.83 L2206.02 1316.83 L2206.02 1342.76 L2201.76 1342.76 L2201.76 1316.83 M2201.76 1306.74 L2206.02 1306.74 L2206.02 1312.13 L2201.76 1312.13 L2201.76 1306.74 Z" fill="#000000" fill-rule="nonzero" fill-opacity="1" /><path clip-path="url(#clip580)" d="M2236.48 1327.11 L2236.48 1342.76 L2232.22 1342.76 L2232.22 1327.25 Q2232.22 1323.57 2230.79 1321.74 Q2229.35 1319.91 2226.48 1319.91 Q2223.03 1319.91 2221.04 1322.11 Q2219.05 1324.31 2219.05 1328.1 L2219.05 1342.76 L2214.77 1342.76 L2214.77 1316.83 L2219.05 1316.83 L2219.05 1320.86 Q2220.58 1318.52 2222.64 1317.36 Q2224.72 1316.2 2227.43 1316.2 Q2231.9 1316.2 2234.19 1318.98 Q2236.48 1321.74 2236.48 1327.11 Z" fill="#000000" fill-rule="nonzero" fill-opacity="1" /><path clip-path="url(#clip580)" d="M2249.19 1309.47 L2249.19 1316.83 L2257.96 1316.83 L2257.96 1320.14 L2249.19 1320.14 L2249.19 1334.21 Q2249.19 1337.38 2250.04 1338.29 Q2250.92 1339.19 2253.59 1339.19 L2257.96 1339.19 L2257.96 1342.76 L2253.59 1342.76 Q2248.66 1342.76 2246.78 1340.93 Q2244.91 1339.07 2244.91 1334.21 L2244.91 1320.14 L2241.78 1320.14 L2241.78 1316.83 L2244.91 1316.83 L2244.91 1309.47 L2249.19 1309.47 Z" fill="#000000" fill-rule="nonzero" fill-opacity="1" /></svg>
